<svg xmlns="http://www.w3.org/2000/svg" viewBox="0 0 575.57 243.13"><defs><style>.cls-1{fill:#6f7173;}.cls-2{fill:none;stroke:#231f20;stroke-linecap:round;stroke-miterlimit:10;}.cls-3{fill:#515454;}.cls-4{fill:#8c8e90;}.cls-5{fill:#fff;}</style></defs><g id="Layer_2" data-name="Layer 2"><g id="Layer_1-2" data-name="Layer 1"><path d="M274.46,143.58a2.37,2.37,0,0,1,0-4.74h8.87a6.55,6.55,0,0,0,6.43-6.42,6.68,6.68,0,0,0-.45-2.32l-15.75-41a2.37,2.37,0,0,1,2.22-3.22,2.42,2.42,0,0,1,2.29,1.53L293.63,128a13,13,0,0,1,.87,4.39,11.18,11.18,0,0,1-11.17,11.16Z"/><path d="M333.36,143.58a2.37,2.37,0,0,1,0-4.74h8.87a6.55,6.55,0,0,0,6.43-6.42,6.68,6.68,0,0,0-.45-2.32l-15.75-41a2.37,2.37,0,0,1,2.22-3.22A2.42,2.42,0,0,1,337,87.36L352.53,128a13,13,0,0,1,.86,4.39,11.17,11.17,0,0,1-11.16,11.16Z"/><path d="M371.25,143.58A2.43,2.43,0,0,1,369,142L353.45,101.3a11.29,11.29,0,0,1,10.3-15.63h8.84a2.41,2.41,0,0,1,0,4.82h-8.84a6.43,6.43,0,0,0-6.43,6.43,6.67,6.67,0,0,0,.45,2.31l15.73,41.08a2.41,2.41,0,0,1-2.25,3.27Z"/><path class="cls-1" d="M453.57,143.58a11.26,11.26,0,0,1-11.25-11.24V88.12a2.37,2.37,0,1,1,4.74,0V132.5a6.5,6.5,0,0,0,6.33,6.34h9.22a2.37,2.37,0,0,1,0,4.74Z"/><path d="M402.73,143.58a2.37,2.37,0,0,1-2.37-2.37l-.09-43.87a6.57,6.57,0,0,0-4.82-6.48,6.28,6.28,0,0,0-1.6-.21A6.47,6.47,0,0,0,387.43,97v44.21a2.37,2.37,0,0,1-4.74,0V97.53A11.42,11.42,0,0,1,393.9,85.92c.24,0,.48,0,.73,0A11.22,11.22,0,0,1,405.1,97.08v44.13A2.38,2.38,0,0,1,402.73,143.58Z"/><path class="cls-1" d="M573.2,143.58a2.38,2.38,0,0,1-2.37-2.37l-.08-43.87a6.57,6.57,0,0,0-4.82-6.48,6.28,6.28,0,0,0-1.6-.21A6.47,6.47,0,0,0,557.9,97v44.21a2.37,2.37,0,1,1-4.74,0V97.53a11.43,11.43,0,0,1,11.22-11.61c.24,0,.48,0,.72,0a11.22,11.22,0,0,1,10.47,11.14v44.13A2.37,2.37,0,0,1,573.2,143.58Z"/><path d="M313.76,143.66a11.25,11.25,0,0,1-11.24-11.24V88.2a2.37,2.37,0,1,1,4.74,0v43.93a6.6,6.6,0,0,0,5.17,6.58,6.73,6.73,0,0,0,1.33.13,6.43,6.43,0,0,0,6.43-6.42,6.54,6.54,0,0,0-5.82-6.47v0l-.53,0a2.37,2.37,0,0,1-.19-4.73l.32,0a11.25,11.25,0,0,1,1,22.42Q314.36,143.66,313.76,143.66Z"/><path class="cls-1" d="M513,143.66a11.26,11.26,0,0,1-11.25-11.24V88.2a2.37,2.37,0,1,1,4.74,0v43.93a6.48,6.48,0,0,0,6.51,6.71,6.43,6.43,0,0,0,6.42-6.42,6.54,6.54,0,0,0-5.82-6.47v0l-.52,0a2.37,2.37,0,0,1-.19-4.73l.32,0a11.25,11.25,0,0,1,1,22.42C513.83,143.64,513.43,143.66,513,143.66Z"/><path class="cls-1" d="M473.73,143.58a2.37,2.37,0,0,1,0-4.74h8.88a6.55,6.55,0,0,0,6.42-6.42,6.74,6.74,0,0,0-.44-2.32l-15.75-41a2.31,2.31,0,0,1,.26-2.19,2.35,2.35,0,0,1,1.95-1,2.42,2.42,0,0,1,2.29,1.53L492.9,128a13,13,0,0,1,.87,4.39,11.18,11.18,0,0,1-11.16,11.16Z"/><path class="cls-1" d="M541.73,143.58a2.42,2.42,0,0,1-2.25-1.55L523.92,101.3a11.51,11.51,0,0,1-.86-4.38,11.35,11.35,0,0,1,11.16-11.25h8.84a2.41,2.41,0,1,1,0,4.82h-8.84a6.43,6.43,0,0,0-6.42,6.43,6.65,6.65,0,0,0,.44,2.31L544,140.31a2.41,2.41,0,0,1-2.25,3.27Z"/><line class="cls-2" x1="233.51" y1="0.5" x2="233.51" y2="242.63"/><path class="cls-1" d="M465.74,167.27a3,3,0,0,1-3,3H442.54l0-2.4h19.79c.63,0,1-.29,1-.89v-.59c0-.63-.32-1-1-1H445.47c-2,0-2.93-.91-2.93-2.71v-1.6c0-2,1-2.94,2.87-2.94l20.33,0v2.42H445.92a.85.85,0,0,0-.95,1V162c0,.65.31,1,.94,1h16.87c2,0,3,1,3,2.86Z"/><path class="cls-1" d="M543.34,170.24h0a1.19,1.19,0,0,1-1.19-1.2V166.6a1.19,1.19,0,0,0-1.2-1.19h-16a1.19,1.19,0,0,0-1.2,1.19V169a1.19,1.19,0,0,1-1.19,1.2h0a1.19,1.19,0,0,1-1.19-1.2v-9.67a1.19,1.19,0,0,1,1.19-1.2h0a1.19,1.19,0,0,1,1.19,1.2v2.43a1.19,1.19,0,0,0,1.2,1.19h16a1.19,1.19,0,0,0,1.2-1.19v-2.43a1.19,1.19,0,0,1,1.19-1.2h0a1.19,1.19,0,0,1,1.19,1.2V169A1.19,1.19,0,0,1,543.34,170.24Z"/><path class="cls-1" d="M569,170.24H548.18A1.21,1.21,0,0,1,547,169v-9.66a1.21,1.21,0,0,1,1.2-1.21h0a1.21,1.21,0,0,1,1.21,1.21v7.25a1.21,1.21,0,0,0,1.21,1.2H569a1.21,1.21,0,0,1,1.21,1.21h0A1.21,1.21,0,0,1,569,170.24Z"/><path class="cls-1" d="M573.11,169v-9.6a1.23,1.23,0,0,1,1.23-1.23h0a1.23,1.23,0,0,1,1.23,1.23V169a1.23,1.23,0,0,1-1.23,1.23h0A1.23,1.23,0,0,1,573.11,169Z"/><path class="cls-1" d="M515.55,164.18l2.32-4.07a1.28,1.28,0,1,0-2.19-1.32h0l-2.29,3.79h0a.84.84,0,0,1-.72.41H497.11a.83.83,0,0,1-.84-.84h0V159.4a1.23,1.23,0,1,0-2.46,0V169a1.23,1.23,0,0,0,2.46,0v-2.75h0a.83.83,0,0,1,.84-.84h15.55a.84.84,0,0,1,.75.46h0l2.28,3.78a1.27,1.27,0,0,0,2.18-1.32Z"/><path class="cls-1" d="M488.45,158.14H471.1c-1.94,0-2.91,1-2.91,2.07V169a1.21,1.21,0,1,0,2.41,0v-2.78a.84.84,0,0,1,.84-.84h16.64a.83.83,0,0,1,.84.84V169a1.23,1.23,0,1,0,2.45,0v-8.77C491.37,159.15,490.4,158.14,488.45,158.14Zm.47,4a.84.84,0,0,1-.83.84H471.44a.85.85,0,0,1-.84-.84v-.59a.86.86,0,0,1,1-1H488a1,1,0,0,1,1,1Z"/><path d="M398.44,170.24H377.66a1.21,1.21,0,0,1-1.21-1.21v-9.66a1.21,1.21,0,0,1,1.21-1.21h0a1.21,1.21,0,0,1,1.21,1.21v7.25a1.2,1.2,0,0,0,1.2,1.2h18.36a1.21,1.21,0,0,1,1.2,1.21h0A1.21,1.21,0,0,1,398.44,170.24Z"/><path d="M402.58,169v-9.6a1.24,1.24,0,0,1,1.24-1.23h0a1.23,1.23,0,0,1,1.23,1.23V169a1.23,1.23,0,0,1-1.23,1.23h0A1.24,1.24,0,0,1,402.58,169Z"/><path d="M347.19,158.17a1.2,1.2,0,0,0-1.2,1.2h0v2.78h0a.84.84,0,0,1-.84.84h-16.7a.83.83,0,0,1-.84-.84h0v-2.78a1.2,1.2,0,1,0-2.39,0V169a1.2,1.2,0,1,0,2.39,0v-2.79a.83.83,0,0,1,.84-.84h16.7a.84.84,0,0,1,.84.84V169a1.21,1.21,0,1,0,2.41,0v-9.66A1.21,1.21,0,0,0,347.19,158.17Z"/><path d="M319.38,164.18l2.33-4.07a1.28,1.28,0,1,0-2.19-1.32h0l-2.29,3.79h0a.84.84,0,0,1-.72.41H301a.83.83,0,0,1-.84-.84h0V159.4a1.23,1.23,0,1,0-2.46,0V169a1.23,1.23,0,1,0,2.46,0v-2.75h0a.83.83,0,0,1,.84-.84H316.5a.82.82,0,0,1,.74.46h0l2.27,3.78a1.29,1.29,0,0,0,1.75.42,1.27,1.27,0,0,0,.44-1.74Z"/><path d="M292.34,158.14H275c-1.93,0-2.9,1-2.9,2.07V169a1.2,1.2,0,1,0,2.4,0v-2.78a.84.84,0,0,1,.84-.84H292a.84.84,0,0,1,.84.84V169a1.22,1.22,0,1,0,2.44,0v-8.77C295.26,159.15,294.29,158.14,292.34,158.14Zm.48,4a.85.85,0,0,1-.84.84H275.33a.85.85,0,0,1-.84-.84v-.59a.86.86,0,0,1,1-1h16.4a1,1,0,0,1,1,1Z"/><path d="M371.16,158.14H353.81c-1.94,0-2.91,1-2.91,2.07V169a1.2,1.2,0,1,0,2.4,0v-2.78a.84.84,0,0,1,.84-.84h16.65a.84.84,0,0,1,.84.84V169a1.22,1.22,0,1,0,2.44,0v-8.77C374.07,159.15,373.1,158.14,371.16,158.14Zm.47,4a.85.85,0,0,1-.84.84H354.14a.85.85,0,0,1-.84-.84v-.59a.87.87,0,0,1,1-1h16.4a1,1,0,0,1,1,1Z"/><polygon class="cls-3" points="100.27 120.63 100.27 21.77 199.12 71.2 100.27 120.63"/><polygon class="cls-4" points="100.27 122.5 100.27 221.35 199.12 172.31 199.12 73.46 100.27 122.5"/><polygon class="cls-5" points="0 73.07 0 171.93 32.07 187.96 49.43 208.04 49.43 136.59 32.07 116.38 58.1 129.11 58.1 200.98 98.85 221.35 98.85 122.5 0 73.07"/></g></g></svg>