<svg xmlns="http://www.w3.org/2000/svg" viewBox="0 0 578.35 243.13"><defs><style>.cls-1{fill:#6f7173;}.cls-2{fill:none;stroke:#231f20;stroke-linecap:round;stroke-miterlimit:10;}.cls-3{fill:#093630;}.cls-4{fill:#b7dec0;}.cls-5{fill:#66997b;}</style></defs><g id="Layer_2" data-name="Layer 2"><g id="Layer_1-2" data-name="Layer 1"><path d="M277.24,143.58a2.37,2.37,0,0,1,0-4.74h8.87a6.55,6.55,0,0,0,6.43-6.42,6.68,6.68,0,0,0-.45-2.32l-15.74-41a2.31,2.31,0,0,1,.26-2.19,2.35,2.35,0,0,1,1.95-1,2.42,2.42,0,0,1,2.29,1.53L296.41,128a13,13,0,0,1,.87,4.39,11.18,11.18,0,0,1-11.17,11.16Z"/><path d="M336.14,143.58a2.37,2.37,0,0,1,0-4.74H345a6.55,6.55,0,0,0,6.43-6.42,6.68,6.68,0,0,0-.45-2.32l-15.74-41a2.37,2.37,0,0,1,2.21-3.22,2.42,2.42,0,0,1,2.29,1.53L355.31,128a13,13,0,0,1,.87,4.39A11.18,11.18,0,0,1,345,143.58Z"/><path d="M374,143.58a2.4,2.4,0,0,1-2.24-1.55L356.23,101.3a11.29,11.29,0,0,1,10.3-15.63h8.84a2.41,2.41,0,0,1,0,4.82h-8.84a6.44,6.44,0,0,0-6.43,6.43,6.67,6.67,0,0,0,.45,2.31l15.73,41.08a2.4,2.4,0,0,1-2.25,3.27Z"/><path class="cls-1" d="M456.35,143.58a11.26,11.26,0,0,1-11.25-11.24V88.12a2.37,2.37,0,1,1,4.74,0V132.5a6.5,6.5,0,0,0,6.33,6.34h9.22a2.37,2.37,0,0,1,0,4.74Z"/><path d="M405.51,143.58a2.37,2.37,0,0,1-2.37-2.37l-.08-43.87a6.58,6.58,0,0,0-4.83-6.48,6.22,6.22,0,0,0-1.6-.21A6.47,6.47,0,0,0,390.21,97v44.21a2.37,2.37,0,0,1-4.74,0V97.53a11.42,11.42,0,0,1,11.21-11.61c.24,0,.49,0,.73,0a11.22,11.22,0,0,1,10.47,11.14v44.13A2.38,2.38,0,0,1,405.51,143.58Z"/><path class="cls-1" d="M576,143.58a2.38,2.38,0,0,1-2.37-2.37l-.08-43.87a6.57,6.57,0,0,0-4.82-6.48,6.28,6.28,0,0,0-1.6-.21A6.48,6.48,0,0,0,560.68,97v44.21a2.37,2.37,0,1,1-4.73,0V97.53a11.42,11.42,0,0,1,11.21-11.61c.24,0,.48,0,.73,0a11.21,11.21,0,0,1,10.46,11.14v44.13A2.37,2.37,0,0,1,576,143.58Z"/><path d="M316.55,143.66a11.26,11.26,0,0,1-11.25-11.24V88.2a2.37,2.37,0,1,1,4.74,0v43.93a6.48,6.48,0,0,0,6.51,6.71,6.43,6.43,0,0,0,6.42-6.42,6.54,6.54,0,0,0-5.82-6.47v0l-.52,0a2.37,2.37,0,0,1-.2-4.73l.32,0a11.25,11.25,0,0,1,1,22.42C317.34,143.64,316.94,143.66,316.55,143.66Z"/><path class="cls-1" d="M515.82,143.66a11.26,11.26,0,0,1-11.25-11.24V88.2a2.37,2.37,0,1,1,4.74,0v43.93a6.48,6.48,0,0,0,6.51,6.71,6.43,6.43,0,0,0,6.42-6.42,6.54,6.54,0,0,0-5.82-6.47v0l-.52,0a2.37,2.37,0,0,1-.19-4.73l.32,0a11.25,11.25,0,0,1,1,22.42C516.61,143.64,516.21,143.66,515.82,143.66Z"/><path class="cls-1" d="M476.51,143.58a2.37,2.37,0,0,1,0-4.74h8.88a6.54,6.54,0,0,0,6.42-6.42,6.74,6.74,0,0,0-.44-2.32l-15.75-41a2.37,2.37,0,0,1,2.21-3.22,2.42,2.42,0,0,1,2.29,1.53L495.69,128a13.26,13.26,0,0,1,.86,4.39,11.18,11.18,0,0,1-11.16,11.16Z"/><path class="cls-1" d="M544.51,143.58a2.43,2.43,0,0,1-2.25-1.55L526.71,101.3A11.29,11.29,0,0,1,537,85.67h8.83a2.41,2.41,0,1,1,0,4.82H537a6.43,6.43,0,0,0-6.43,6.43,6.65,6.65,0,0,0,.44,2.31l15.74,41.08a2.41,2.41,0,0,1-2.25,3.27Z"/><line class="cls-2" x1="236.29" y1="0.5" x2="236.29" y2="242.63"/><polygon class="cls-3" points="49.43 128.47 32.07 108.27 32.07 179.85 49.43 199.93 49.43 128.47"/><polygon class="cls-4" points="197.71 164.2 98.85 114.78 98.85 15.92 197.71 65.35 197.71 164.2"/><polygon class="cls-5" points="98.85 114.39 98.85 213.25 197.71 164.2 197.71 65.35 98.85 114.39"/><polygon class="cls-3" points="0 64.96 0 163.82 32.07 179.85 32.07 108.27 58.1 121 58.1 192.87 98.85 213.24 98.85 114.39 0 64.96"/><path class="cls-1" d="M468.52,167.27a3,3,0,0,1-3,3H445.33l0-2.4h19.79c.64,0,1-.29,1-.89v-.59c0-.63-.31-1-1-1H448.25c-1.95,0-2.92-.91-2.92-2.71v-1.6c0-2,.95-2.94,2.86-2.94l20.33,0v2.42H448.71a.85.85,0,0,0-1,1V162c0,.65.31,1,.94,1h16.87c2,0,3,1,3,2.86Z"/><path class="cls-1" d="M546.12,170.24h0a1.19,1.19,0,0,1-1.19-1.2V166.6a1.19,1.19,0,0,0-1.2-1.19h-16a1.19,1.19,0,0,0-1.2,1.19V169a1.19,1.19,0,0,1-1.19,1.2h0a1.19,1.19,0,0,1-1.19-1.2v-9.67a1.19,1.19,0,0,1,1.19-1.2h0a1.19,1.19,0,0,1,1.19,1.2v2.43a1.19,1.19,0,0,0,1.2,1.19h16a1.19,1.19,0,0,0,1.2-1.19v-2.43a1.19,1.19,0,0,1,1.19-1.2h0a1.19,1.19,0,0,1,1.19,1.2V169A1.19,1.19,0,0,1,546.12,170.24Z"/><path class="cls-1" d="M571.74,170.24H551a1.21,1.21,0,0,1-1.2-1.21v-9.66a1.21,1.21,0,0,1,1.2-1.21h0a1.21,1.21,0,0,1,1.2,1.21v7.25a1.21,1.21,0,0,0,1.21,1.2h18.35A1.21,1.21,0,0,1,573,169h0A1.21,1.21,0,0,1,571.74,170.24Z"/><path class="cls-1" d="M575.89,169v-9.6a1.23,1.23,0,0,1,1.23-1.23h0a1.23,1.23,0,0,1,1.23,1.23V169a1.23,1.23,0,0,1-1.23,1.23h0A1.23,1.23,0,0,1,575.89,169Z"/><path class="cls-1" d="M518.33,164.18l2.32-4.07a1.28,1.28,0,1,0-2.19-1.32h0l-2.29,3.79h0a.83.83,0,0,1-.72.41H499.89a.84.84,0,0,1-.84-.84h0l0-2.74a1.24,1.24,0,0,0-2.47,0V169a1.24,1.24,0,0,0,2.47,0l0-2.75h0a.84.84,0,0,1,.84-.84h15.55a.84.84,0,0,1,.75.46h0l2.27,3.78a1.27,1.27,0,0,0,2.18-1.32Z"/><path class="cls-1" d="M491.23,158.14H473.88c-1.93,0-2.9,1-2.9,2.07V169a1.2,1.2,0,1,0,2.4,0v-2.78a.84.84,0,0,1,.84-.84h16.65a.84.84,0,0,1,.84.84V169a1.22,1.22,0,1,0,2.44,0v-8.77C494.15,159.15,493.18,158.14,491.23,158.14Zm.48,4a.85.85,0,0,1-.84.84H474.22a.85.85,0,0,1-.84-.84v-.59a.86.86,0,0,1,1-1h16.4a1,1,0,0,1,1,1Z"/><path d="M401.22,170.24H380.44a1.21,1.21,0,0,1-1.21-1.21v-9.66a1.21,1.21,0,0,1,1.21-1.21h0a1.21,1.21,0,0,1,1.21,1.21v7.25a1.21,1.21,0,0,0,1.21,1.2h18.35a1.21,1.21,0,0,1,1.21,1.21h0A1.21,1.21,0,0,1,401.22,170.24Z"/><path d="M405.37,169v-9.6a1.23,1.23,0,0,1,1.23-1.23h0a1.23,1.23,0,0,1,1.23,1.23V169a1.23,1.23,0,0,1-1.23,1.23h0A1.23,1.23,0,0,1,405.37,169Z"/><path d="M350,158.17a1.21,1.21,0,0,0-1.21,1.2h0v2.78h0a.83.83,0,0,1-.84.84h-16.7a.83.83,0,0,1-.84-.84h0v-2.78a1.2,1.2,0,1,0-2.39,0V169a1.2,1.2,0,1,0,2.39,0v-2.79a.83.83,0,0,1,.84-.84h16.7a.83.83,0,0,1,.84.84V169a1.21,1.21,0,1,0,2.41,0v-9.66A1.2,1.2,0,0,0,350,158.17Z"/><path d="M322.17,164.18l2.32-4.07a1.28,1.28,0,1,0-2.19-1.32h0L320,162.58h0a.83.83,0,0,1-.72.41H303.73a.84.84,0,0,1-.84-.84h0V159.4a1.23,1.23,0,0,0-2.46,0V169a1.23,1.23,0,0,0,2.46,0v-2.75h0a.84.84,0,0,1,.84-.84h15.55a.84.84,0,0,1,.75.46h0l2.27,3.78a1.27,1.27,0,0,0,2.18-1.32Z"/><path d="M295.13,158.14H277.78c-1.94,0-2.91,1-2.91,2.07V169a1.2,1.2,0,1,0,2.4,0v-2.78a.84.84,0,0,1,.84-.84h16.65a.84.84,0,0,1,.84.84V169a1.22,1.22,0,1,0,2.44,0v-8.77C298,159.15,297.07,158.14,295.13,158.14Zm.47,4a.85.85,0,0,1-.84.84H278.11a.85.85,0,0,1-.84-.84v-.59a.87.87,0,0,1,1-1h16.4a1,1,0,0,1,1,1Z"/><path d="M373.94,158.14H356.59c-1.94,0-2.91,1-2.91,2.07V169a1.21,1.21,0,1,0,2.41,0v-2.78a.83.83,0,0,1,.84-.84h16.64a.84.84,0,0,1,.84.84V169a1.23,1.23,0,1,0,2.45,0v-8.77C376.86,159.15,375.88,158.14,373.94,158.14Zm.47,4a.85.85,0,0,1-.84.84H356.92a.84.84,0,0,1-.83-.84v-.59a.86.86,0,0,1,1-1h16.4a1,1,0,0,1,1,1Z"/></g></g></svg>