<svg xmlns="http://www.w3.org/2000/svg" version="1.1" xmlns:xlink="http://www.w3.org/1999/xlink" xmlns:svgjs="http://svgjs.dev/svgjs" width="1440" height="560" preserveAspectRatio="none" viewBox="0 0 1440 560"><g mask="url(&quot;#SvgjsMask1021&quot;)" fill="none"><path d="M1488 560L0 560 L0 319.05Q23.1 270.15, 72 293.26Q101.81 251.06, 144 280.87Q221.75 238.62, 264 316.36Q336.12 268.48, 384 340.59Q438.37 322.96, 456 377.33Q483.65 332.98, 528 360.62Q576.5 289.13, 648 337.63Q684.51 254.14, 768 290.66Q858.32 260.98, 888 351.29Q923.18 266.47, 1008 301.64Q1037.67 259.31, 1080 288.98Q1181.03 270.01, 1200 371.04Q1228.13 327.17, 1272 355.29Q1273.67 284.97, 1344 286.64Q1424.27 294.91, 1416 375.18Q1415 302.18, 1488 301.18z" fill="rgba(7, 52, 47, 1)"></path><path d="M1536 560L0 560 L0 368.45Q80.96 329.41, 120 410.37Q163.98 382.35, 192 426.33Q202.6 364.93, 264 375.53Q307.26 346.79, 336 390.05Q378.12 360.17, 408 402.29Q455.63 329.93, 528 377.56Q556.79 334.35, 600 363.14Q690.91 334.06, 720 424.97Q745.07 378.04, 792 403.11Q835.95 327.06, 912 371Q1007.27 346.27, 1032 441.55Q1054.52 392.07, 1104 414.59Q1141.98 332.57, 1224 370.56Q1277.57 304.13, 1344 357.7Q1396.85 338.54, 1416 391.39Q1469.38 324.76, 1536 378.14z" fill="rgba(56, 153, 104, 1)"></path><path d="M1488 560L0 560 L0 515.82Q3.78 447.6, 72 451.38Q100.33 407.71, 144 436.04Q199.73 419.77, 216 475.51Q259.99 447.5, 288 491.49Q330.89 462.38, 360 505.28Q376 449.28, 432 465.28Q459.45 420.73, 504 448.18Q598.73 422.91, 624 517.64Q667.67 441.31, 744 484.98Q771.44 440.42, 816 467.85Q836.44 416.29, 888 436.73Q933.84 410.57, 960 456.41Q1018.75 443.16, 1032 501.91Q1085.48 435.39, 1152 488.88Q1156.17 421.06, 1224 425.23Q1261.69 390.93, 1296 428.62Q1351.26 411.88, 1368 467.15Q1414.51 393.65, 1488 440.16z" fill="rgba(112, 207, 154, 1)"></path><path d="M1536 560L0 560 L0 577.15Q29.6 534.75, 72 564.35Q104.99 477.34, 192 510.33Q234.57 480.9, 264 523.47Q284.77 472.25, 336 493.02Q420.74 457.75, 456 542.49Q478.72 493.21, 528 515.93Q611.81 479.74, 648 563.56Q673.99 469.54, 768 495.53Q812.4 467.93, 840 512.33Q919.55 471.88, 960 551.43Q1002.08 521.51, 1032 563.59Q1035.94 495.53, 1104 499.47Q1171.05 446.52, 1224 513.57Q1282.12 499.69, 1296 557.81Q1342.16 483.97, 1416 530.13Q1460.12 454.25, 1536 498.37z" fill="rgba(172, 223, 194, 1)"></path></g><defs><mask id="SvgjsMask1021"><rect width="1440" height="560" fill="#ffffff"></rect></mask></defs></svg>