<svg xmlns="http://www.w3.org/2000/svg" version="1.1" xmlns:xlink="http://www.w3.org/1999/xlink" xmlns:svgjs="http://svgjs.dev/svgjs" width="1440" height="560" preserveAspectRatio="none" viewBox="0 0 1440 560"><g mask="url(&quot;#SvgjsMask1007&quot;)" fill="none"><path d="M0 101.82C6.19 50.72 -14.97 23.23 16.97 0C55.03 -27.68 78.49 0 140 0C210 0 210 0 280 0C350 0 350 0 420 0C490 0 490 0 560 0C630 0 630 0 700 0C770 0 770 0 840 0C895.59 0 897.41 -6.6 951.18 0C967.41 1.99 963.75 16.93 980 17.19C1048.16 18.3 1050.65 11.14 1120 2.75C1121.71 2.54 1120.4 0.03 1122.12 0C1190.4 -1.34 1191.06 0 1260 0C1330 0 1330 0 1400 0C1470 0 1505 -35 1540 0C1575 35 1540 70 1540 140C1540 152.18 1546.07 154.13 1540 164.35C1504.51 224.13 1456.88 233.55 1456.88 280C1456.88 309.6 1520.59 283.75 1540 316.44C1562.15 353.75 1540 368.22 1540 420C1540 490 1575 525 1540 560C1505 595 1470 560 1400 560C1330 560 1330 560 1260 560C1190 560 1190 560 1120 560C1050 560 1050 560 980 560C910 560 910 560 840 560C789.44 560 787.15 568.18 738.89 560C717.15 556.31 720.95 536.27 700 536.27C662.61 536.27 661.88 553.28 622.22 560C591.88 565.14 591.11 560 560 560C504 560 503.88 561.62 448 560C433.88 559.59 433.46 555.94 420 555.94C416.87 555.94 418.07 559.91 414.81 560C348.07 561.94 347.4 560 280 560C210 560 210 560 140 560C72.22 560 71.29 562.19 4.44 560C1.29 559.9 0.1 558.56 0 555.41C-2.12 488.56 0 487.7 0 420C0 350 0 350 0 280C0 210 0 210 0 140C0 120.91 -2.29 120.72 0 101.82" stroke="rgba(7, 52, 47, 1)" stroke-width="2"></path><path d="M140 104.1C84.23 104.1 18.26 123.4 18.26 140C18.26 156.4 83.05 170.11 140 170.11C160.01 170.11 172.18 155.76 172.18 140C172.18 122.76 161.19 104.1 140 104.1" stroke="rgba(7, 52, 47, 1)" stroke-width="2"></path><path d="M560 133.44C553.91 134.96 550.38 133.99 549.23 140C536.38 207.27 527.72 215.1 532 280C533.11 296.77 547.84 303.33 560 303.33C569.21 303.33 564.43 289.02 574.74 280C634.43 227.77 635.86 228.3 700 180.83C730.45 158.3 763.91 159.85 763.91 140C763.91 120.59 734.76 103.43 700 102.31C632.81 100.15 629.29 116.12 560 133.44" stroke="rgba(7, 52, 47, 1)" stroke-width="2"></path><path d="M840 212.92C818.14 212.92 796.49 246.76 796.49 280C796.49 311.87 818.14 343.14 840 343.14C861.95 343.14 884.11 311.88 884.11 280C884.11 246.77 861.95 212.92 840 212.92" stroke="rgba(7, 52, 47, 1)" stroke-width="2"></path><path d="M980 378.59C948.83 378.59 920 399.39 920 420C920 440.51 948.86 460.83 980 460.83C1017.54 460.83 1057.37 440.53 1057.37 420C1057.37 399.41 1017.52 378.59 980 378.59" stroke="rgba(7, 52, 47, 1)" stroke-width="2"></path><path d="M140 59.23C107.38 27.16 70 16.79 70 0C70 -12.82 105 0 140 0C210 0 210 0 280 0C350 0 350 0 420 0C490 0 490 0 560 0C630 0 630 0 700 0C770 0 770 0 840 0C844.12 0 848.24 -3.88 848.24 0C848.24 66.12 874.33 126.7 840 140C800.21 155.42 774.81 73.81 700 57.44C634.81 43.18 625.67 56.21 560 78.75C505.42 97.49 492.19 95.72 459.49 140C422.19 190.51 440.65 204.53 420 268.33C417.99 274.53 414.17 275.06 414.17 280C414.17 282.53 417.43 281.13 420 283.26C490.34 341.41 499.31 401.48 560 400.56C607.38 399.85 591.59 334.45 636.14 280C661.59 248.89 669.71 229.44 700 229.44C726.23 229.44 727.77 252.11 749.19 280C797.77 343.27 793.75 346.6 840 411.76C843.44 416.6 843.7 416.6 848.57 420C913.7 465.44 910.94 502.65 980 509.44C1046.65 515.99 1060.14 433.8 1120 446.67C1177.74 459.08 1215.2 525.52 1215.2 560C1215.2 582.18 1167.6 560 1120 560C1050 560 1050 560 980 560C910 560 910 560 840 560C838.06 560 837.78 560.99 836.11 560C767.78 519.46 772.97 505.54 700 476.95C634.91 451.45 628.18 444.94 560 451.82C488.18 459.07 485.9 471.27 420 505.22C380.9 525.36 389.16 544.68 350 560C319.16 572.07 315 560 280 560C210 560 210 560 140 560C100 560 93.68 574.91 60 560C23.68 543.92 15.75 534.78 0 498.03C-14.25 464.78 0 459.01 0 420C0 350 0 350 0 280C0 235.66 -27.03 205.28 0 191.33C42.97 169.15 77.65 222.81 140 207.74C183.86 197.14 212.41 175.46 212.41 140C212.41 101.21 178.59 97.16 140 59.23" stroke="rgba(7, 52, 47, 1)" stroke-width="2"></path><path d="M840 140C851.44 91.96 906.97 96.5 980 78.6C1046.97 62.19 1060.63 95.28 1120 71.37C1158.2 55.98 1139.08 18.39 1175.15 0C1209.08 -17.3 1217.57 0 1260 0C1330 0 1330 0 1400 0C1470 0 1473.04 -3.04 1540 0C1543.04 0.14 1542.58 4.59 1540 6.36C1472.58 52.71 1476.01 73.06 1400 96.25C1336.01 115.78 1324.88 77.88 1260 91.8C1222.92 99.76 1196.09 112.94 1196.09 140C1196.09 172.04 1225.15 178.11 1260 210C1301.65 248.11 1349.09 245 1349.09 280C1349.09 315 1309.98 325.42 1260 350C1195.44 381.76 1188.29 397.73 1120 392.68C1048.29 387.38 1044.92 368.22 980 329.3C950.95 311.88 952.42 307.54 932.05 280C882.42 212.89 827.46 192.66 840 140" stroke="rgba(7, 52, 47, 1)" stroke-width="2"></path><path d="M140 393.9C120.29 401.99 105.78 405.99 105.78 420C105.78 435.42 118.42 444.61 140 452.77C205.53 477.55 219.54 496.26 280 485.88C314.99 479.87 330.91 453.44 330.91 420C330.91 384.75 315.66 353.39 280 348.51C220.2 340.34 207.4 366.24 140 393.9" stroke="rgba(7, 52, 47, 1)" stroke-width="2"></path><path d="M1368.89 420C1382.32 395.43 1375.56 381.27 1400 373.33C1461.12 353.46 1489.87 347.67 1540 364.38C1559.87 371.01 1540 392.19 1540 420C1540 459.81 1552.06 463.97 1540 499.61C1528.37 533.97 1524.34 546.32 1492.62 560C1454.34 576.51 1446.31 560 1400 560C1348.99 560 1304.1 587.58 1297.97 560C1288.54 517.58 1331.31 488.76 1368.89 420" stroke="rgba(7, 52, 47, 1)" stroke-width="2"></path><path d="M140 14.36C132.46 6.21 123.03 4.07 123.03 0C123.03 -3.11 131.51 0 140 0C210 0 210 0 280 0C319.07 0 344.39 -25.07 358.14 0C382.78 44.93 375.83 75.28 356.77 140C336.76 207.91 307.8 265.26 280 265.26C255.74 265.26 282.86 194.16 252.64 140C212.86 68.71 197.26 76.21 140 14.36" stroke="rgba(7, 52, 47, 1)" stroke-width="2"></path><path d="M560 24.06C532.49 22.25 508.67 6.31 508.67 0C508.67 -5.72 534.34 0 560 0C630 0 630 0 700 0C716.34 0 732.67 -3.03 732.67 0C732.67 3.25 717.22 10.16 700 12.56C630.89 22.19 628.16 28.53 560 24.06" stroke="rgba(7, 52, 47, 1)" stroke-width="2"></path><path d="M1260 34.43C1238.5 31.51 1228.18 10.25 1228.18 0C1228.18 -6.96 1244.09 0 1260 0C1330 0 1330 0 1400 0C1417.5 0 1435 -5.3 1435 0C1435 6.37 1420.17 19.36 1400 23.33C1332.67 36.58 1324.41 43.18 1260 34.43" stroke="rgba(7, 52, 47, 1)" stroke-width="2"></path><path d="M0 249.67C57.54 235.44 71.15 237.61 140 245.38C205.55 252.78 268.8 258.23 268.8 280C268.8 302.83 199.99 299.7 140 334.58C79.59 369.7 84.13 377.47 28 420C14.13 430.51 8.78 440.66 0 440.66C-5.22 440.66 0 430.33 0 420C0 350 0 350 0 280C0 264.84 -12.46 252.75 0 249.67" stroke="rgba(7, 52, 47, 1)" stroke-width="2"></path><path d="M697.54 280C697.54 278.46 698.83 278.06 700 278.06C701.01 278.06 701.89 278.66 701.89 280C701.89 314.63 701.09 350 700 350C698.91 350 697.54 314.43 697.54 280" stroke="rgba(7, 52, 47, 1)" stroke-width="2"></path><path d="M980 280C980 231.37 1056.93 140 1120 140C1173.6 140 1213.33 226.98 1213.33 280C1213.33 310.64 1167.29 307.32 1120 307.32C1050.63 307.32 980 315.03 980 280" stroke="rgba(7, 52, 47, 1)" stroke-width="2"></path><path d="M383.94 420C383.94 394.41 398.03 364.65 420 364.65C448.22 364.65 484.32 395.85 484.32 420C484.32 440.77 449.81 454.49 420 454.49C399.62 454.49 383.94 439.33 383.94 420" stroke="rgba(7, 52, 47, 1)" stroke-width="2"></path><path d="M1515.65 420C1515.65 415.44 1530.64 412.33 1540 412.33C1542.81 412.33 1540 416.16 1540 420C1540 425.49 1543.55 430.98 1540 430.98C1531.37 430.98 1515.65 424.77 1515.65 420" stroke="rgba(7, 52, 47, 1)" stroke-width="2"></path><path d="M115.56 560C115.56 549.75 121.68 527.84 140 527.23C203.9 525.1 211.06 538.95 280 554.51C283.65 555.33 285.19 558.37 285.19 560C285.19 561.12 282.6 560 280 560C210 560 210 560 140 560C127.78 560 115.56 566.13 115.56 560" stroke="rgba(7, 52, 47, 1)" stroke-width="2"></path><path d="M974.4 560C974.4 559.5 977.1 558.66 980 558.06C1049.9 543.66 1055.19 529.24 1120 530C1137.79 530.21 1145.2 550.87 1145.2 560C1145.2 565.87 1132.6 560 1120 560C1050 560 1050 560 980 560C977.2 560 974.4 560.47 974.4 560" stroke="rgba(7, 52, 47, 1)" stroke-width="2"></path><path d="M1357.29 560C1357.29 537.76 1379.37 491.89 1400 491.89C1420.11 491.89 1438.77 537.22 1438.77 560C1438.77 571.27 1419.39 560 1400 560C1378.64 560 1357.29 571.82 1357.29 560" stroke="rgba(7, 52, 47, 1)" stroke-width="2"></path></g><defs><mask id="SvgjsMask1007"><rect width="1440" height="560" fill="#ffffff"></rect></mask></defs></svg>