<svg xmlns="http://www.w3.org/2000/svg" version="1.1" xmlns:xlink="http://www.w3.org/1999/xlink" xmlns:svgjs="http://svgjs.dev/svgjs" width="1440" height="560" preserveAspectRatio="none" viewBox="0 0 1440 560"><g mask="url(&quot;#SvgjsMask1013&quot;)" fill="none"><rect width="1440" height="560" x="0" y="0" fill="rgba(238, 240, 229, 1)"></rect><path d="M-9.31 236.02C108.82 236.21 224.34 306.02 458 306.02 691.65 306.02 681.99 233.28 925.3 236.02 1168.61 238.76 1248.95 560.16 1392.61 577.73" stroke="rgba(7, 52, 47, 1)" stroke-width="2"></path><path d="M-179.91 125.13C-34.89 126.61 134.17 262.39 378.61 281.93 623.05 301.47 551.83 597.43 657.87 635.26" stroke="rgba(7, 52, 47, 1)" stroke-width="2"></path><path d="M-82.4 71.28C53.61 74.64 143.74 254.7 425.29 267.28 706.85 279.86 786.71 550.76 932.99 561.1" stroke="rgba(7, 52, 47, 1)" stroke-width="2"></path><path d="M-91.02 202.65C27.64 202.84 143.71 272.65 378.44 272.65 613.17 272.65 600.51 198.57 847.89 202.65 1095.27 206.73 1167.7 562.26 1317.35 585.48" stroke="rgba(7, 52, 47, 1)" stroke-width="2"></path><path d="M-76.28 292.05C45.55 281.89 119.75 30.55 339.39 34.45 559.03 38.35 595.16 516.59 755.06 576.58" stroke="rgba(7, 52, 47, 1)" stroke-width="2"></path></g><defs><mask id="SvgjsMask1013"><rect width="1440" height="560" fill="#ffffff"></rect></mask></defs></svg>