<?xml version="1.0"?>
<svg width="1955.1" height="652.14" xmlns="http://www.w3.org/2000/svg" xmlns:svg="http://www.w3.org/2000/svg" data-name="Layer 1">
 <defs>
  <style>.cls-1 {
        opacity: .87;
        stroke: #fff;
        stroke-miterlimit: 10;
      }

      .cls-2 {
        opacity: .15;
      }

      .cls-3, .cls-4 {
        stroke-width: 0px;
      }

      .cls-4 {
        fill: #0c0c0c;
      }</style>
 </defs>
 <g class="layer">
  <title>Layer 1</title>
  <rect class="cls-1" height="560.23" id="svg_1" transform="matrix(1 0 0 1 0 0)" width="1920" x="0.5" y="46.08"/>
  <g class="cls-2" id="svg_2">
   <polygon class="cls-4" id="svg_3" points="53.39 93.17 53.39 47.08 99.48 70.13 53.39 93.17"/>
   <polygon class="cls-3" id="svg_4" points="53.39 94.04 53.39 140.13 99.48 117.26 99.48 71.18 53.39 94.04"/>
   <polygon class="cls-3" id="svg_5" points="6.65 71 6.65 117.08 21.6 124.56 29.69 133.92 29.69 100.61 21.6 91.19 33.74 97.12 33.74 130.63 52.74 140.13 52.74 94.04 6.65 71"/>
  </g>
  <g class="cls-2" id="svg_6">
   <polygon class="cls-4" id="svg_7" points="53.39 186.41 53.39 140.32 99.48 163.36 53.39 186.41"/>
   <polygon class="cls-3" id="svg_8" points="53.39 187.28 53.39 233.36 99.48 210.5 99.48 164.42 53.39 187.28"/>
   <polygon class="cls-3" id="svg_9" points="6.65 164.24 6.65 210.32 21.6 217.8 29.69 227.16 29.69 193.84 21.6 184.42 33.74 190.36 33.74 223.86 52.74 233.36 52.74 187.28 6.65 164.24"/>
  </g>
  <g class="cls-2" id="svg_10">
   <polygon class="cls-4" id="svg_11" points="53.39 279.64 53.39 233.56 99.48 256.6 53.39 279.64"/>
   <polygon class="cls-3" id="svg_12" points="53.39 280.52 53.39 326.6 99.48 303.74 99.48 257.65 53.39 280.52"/>
   <polygon class="cls-3" id="svg_13" points="6.65 257.47 6.65 303.56 21.6 311.03 29.69 320.39 29.69 287.08 21.6 277.66 33.74 283.6 33.74 317.1 52.74 326.6 52.74 280.52 6.65 257.47"/>
  </g>
  <g class="cls-2" id="svg_14">
   <polygon class="cls-4" id="svg_15" points="53.39 372.88 53.39 326.8 99.48 349.84 53.39 372.88"/>
   <polygon class="cls-3" id="svg_16" points="53.39 373.75 53.39 419.84 99.48 396.97 99.48 350.89 53.39 373.75"/>
   <polygon class="cls-3" id="svg_17" points="6.65 350.71 6.65 396.79 21.6 404.27 29.69 413.63 29.69 380.32 21.6 370.9 33.74 376.84 33.74 410.34 52.74 419.84 52.74 373.75 6.65 350.71"/>
  </g>
  <g class="cls-2" id="svg_18">
   <polygon class="cls-4" id="svg_19" points="53.39 466.12 53.39 420.03 99.48 443.07 53.39 466.12"/>
   <polygon class="cls-3" id="svg_20" points="53.39 466.99 53.39 513.07 99.48 490.21 99.48 444.13 53.39 466.99"/>
   <polygon class="cls-3" id="svg_21" points="6.65 443.95 6.65 490.03 21.6 497.51 29.69 506.87 29.69 473.56 21.6 464.14 33.74 470.07 33.74 503.58 52.74 513.07 52.74 466.99 6.65 443.95"/>
  </g>
  <g class="cls-2" id="svg_22">
   <polygon class="cls-4" id="svg_23" points="53.39 559.35 53.39 513.27 99.48 536.31 53.39 559.35"/>
   <polygon class="cls-3" id="svg_24" points="53.39 560.23 53.39 606.31 99.48 583.45 99.48 537.36 53.39 560.23"/>
   <polygon class="cls-3" id="svg_25" points="6.65 537.18 6.65 583.27 21.6 590.74 29.69 600.11 29.69 566.79 21.6 557.37 33.74 563.31 33.74 596.81 52.74 606.31 52.74 560.23 6.65 537.18"/>
  </g>
  <g class="cls-2" id="svg_26" transform="matrix(1 0 0 1 0 0)">
   <polygon class="cls-4" id="svg_27" points="146.1699981689453,70.8022728217311 146.1699981689453,47.99999957678301 192.25,59.40113619925705 146.1699981689453,70.8022728217311 "/>
   <polygon class="cls-3" id="svg_28" points="146.1699981689453,71.23773152463673 146.1699981689453,94.04000476958481 192.25,82.72793967444795 192.25,59.925667373334136 146.1699981689453,71.23773152463673 "/>
   <polygon class="cls-3" id="svg_29" points="99.41999816894531,59.83164732294108 99.41999816894531,82.63886814711077 114.37000274658203,86.33533086859825 122.47000122070312,90.97198843101069 122.47000122070312,74.48388903021669 114.37000274658203,69.82248602102209 126.51000213623047,72.76184264781205 126.51000213623047,89.33901546361176 145.50999450683594,94.04000476958481 145.50999450683594,71.23773152463673 99.41999816894531,59.83164732294108 "/>
  </g>
  <g class="cls-2" id="svg_30">
   <polygon class="cls-4" id="svg_31" points="146.17 139.32 146.17 93.24 192.25 116.28 146.17 139.32"/>
   <polygon class="cls-3" id="svg_32" points="146.17 140.19 146.17 186.28 192.25 163.42 192.25 117.33 146.17 140.19"/>
   <polygon class="cls-3" id="svg_33" points="99.42 117.15 99.42 163.24 114.37 170.71 122.47 180.07 122.47 146.76 114.37 137.34 126.51 143.28 126.51 176.78 145.51 186.28 145.51 140.19 99.42 117.15"/>
  </g>
  <g class="cls-2" id="svg_34">
   <polygon class="cls-4" id="svg_35" points="146.17 232.56 146.17 186.47 192.25 209.52 146.17 232.56"/>
   <polygon class="cls-3" id="svg_36" points="146.17 233.43 146.17 279.52 192.25 256.65 192.25 210.57 146.17 233.43"/>
   <polygon class="cls-3" id="svg_37" points="99.42 210.39 99.42 256.47 114.37 263.95 122.47 273.31 122.47 240 114.37 230.58 126.51 236.51 126.51 270.02 145.51 279.52 145.51 233.43 99.42 210.39"/>
  </g>
  <g class="cls-2" id="svg_38">
   <polygon class="cls-4" id="svg_39" points="146.17 325.8 146.17 279.71 192.25 302.75 146.17 325.8"/>
   <polygon class="cls-3" id="svg_40" points="146.17 326.67 146.17 372.75 192.25 349.89 192.25 303.81 146.17 326.67"/>
   <polygon class="cls-3" id="svg_41" points="99.42 303.63 99.42 349.71 114.37 357.19 122.47 366.55 122.47 333.23 114.37 323.81 126.51 329.75 126.51 363.25 145.51 372.75 145.51 326.67 99.42 303.63"/>
  </g>
  <g class="cls-2" id="svg_42">
   <polygon class="cls-4" id="svg_43" points="146.17 419.03 146.17 372.95 192.25 395.99 146.17 419.03"/>
   <polygon class="cls-3" id="svg_44" points="146.17 419.91 146.17 465.99 192.25 443.13 192.25 397.04 146.17 419.91"/>
   <polygon class="cls-3" id="svg_45" points="99.42 396.86 99.42 442.95 114.37 450.42 122.47 459.78 122.47 426.47 114.37 417.05 126.51 422.99 126.51 456.49 145.51 465.99 145.51 419.91 99.42 396.86"/>
  </g>
  <g class="cls-2" id="svg_46">
   <polygon class="cls-4" id="svg_47" points="146.17 512.27 146.17 466.19 192.25 489.23 146.17 512.27"/>
   <polygon class="cls-3" id="svg_48" points="146.17 513.14 146.17 559.23 192.25 536.36 192.25 490.28 146.17 513.14"/>
   <polygon class="cls-3" id="svg_49" points="99.42 490.1 99.42 536.18 114.37 543.66 122.47 553.02 122.47 519.71 114.37 510.29 126.51 516.22 126.51 549.73 145.51 559.23 145.51 513.14 99.42 490.1"/>
  </g>
  <g class="cls-2" id="svg_50">
   <polygon class="cls-4" id="svg_51" points="238.94 93.17 238.94 47.08 285.02 70.13 238.94 93.17"/>
   <polygon class="cls-3" id="svg_52" points="238.94 94.04 238.94 140.13 285.02 117.26 285.02 71.18 238.94 94.04"/>
   <polygon class="cls-3" id="svg_53" points="192.19 71 192.19 117.08 207.14 124.56 215.24 133.92 215.24 100.61 207.14 91.19 219.28 97.12 219.28 130.63 238.28 140.13 238.28 94.04 192.19 71"/>
  </g>
  <g class="cls-2" id="svg_54">
   <polygon class="cls-4" id="svg_55" points="238.94 186.41 238.94 140.32 285.02 163.36 238.94 186.41"/>
   <polygon class="cls-3" id="svg_56" points="238.94 187.28 238.94 233.36 285.02 210.5 285.02 164.42 238.94 187.28"/>
   <polygon class="cls-3" id="svg_57" points="192.19 164.24 192.19 210.32 207.14 217.8 215.24 227.16 215.24 193.84 207.14 184.42 219.28 190.36 219.28 223.86 238.28 233.36 238.28 187.28 192.19 164.24"/>
  </g>
  <g class="cls-2" id="svg_58">
   <polygon class="cls-4" id="svg_59" points="238.94 279.64 238.94 233.56 285.02 256.6 238.94 279.64"/>
   <polygon class="cls-3" id="svg_60" points="238.94 280.52 238.94 326.6 285.02 303.74 285.02 257.65 238.94 280.52"/>
   <polygon class="cls-3" id="svg_61" points="192.19 257.47 192.19 303.56 207.14 311.03 215.24 320.39 215.24 287.08 207.14 277.66 219.28 283.6 219.28 317.1 238.28 326.6 238.28 280.52 192.19 257.47"/>
  </g>
  <g class="cls-2" id="svg_62">
   <polygon class="cls-4" id="svg_63" points="238.94 372.88 238.94 326.8 285.02 349.84 238.94 372.88"/>
   <polygon class="cls-3" id="svg_64" points="238.94 373.75 238.94 419.84 285.02 396.97 285.02 350.89 238.94 373.75"/>
   <polygon class="cls-3" id="svg_65" points="192.19 350.71 192.19 396.79 207.14 404.27 215.24 413.63 215.24 380.32 207.14 370.9 219.28 376.84 219.28 410.34 238.28 419.84 238.28 373.75 192.19 350.71"/>
  </g>
  <g class="cls-2" id="svg_66">
   <polygon class="cls-4" id="svg_67" points="238.94 466.12 238.94 420.03 285.02 443.07 238.94 466.12"/>
   <polygon class="cls-3" id="svg_68" points="238.94 466.99 238.94 513.07 285.02 490.21 285.02 444.13 238.94 466.99"/>
   <polygon class="cls-3" id="svg_69" points="192.19 443.95 192.19 490.03 207.14 497.51 215.24 506.87 215.24 473.56 207.14 464.14 219.28 470.07 219.28 503.58 238.28 513.07 238.28 466.99 192.19 443.95"/>
  </g>
  <g class="cls-2" id="svg_70">
   <polygon class="cls-4" id="svg_71" points="238.94 559.35 238.94 513.27 285.02 536.31 238.94 559.35"/>
   <polygon class="cls-3" id="svg_72" points="238.94 560.23 238.94 606.31 285.02 583.45 285.02 537.36 238.94 560.23"/>
   <polygon class="cls-3" id="svg_73" points="192.19 537.18 192.19 583.27 207.14 590.74 215.24 600.11 215.24 566.79 207.14 557.37 219.28 563.31 219.28 596.81 238.28 606.31 238.28 560.23 192.19 537.18"/>
  </g>
  <g class="cls-2" id="svg_74">
   <polygon class="cls-4" id="svg_75" points="331.7099914550781,69.29754252019211 331.7099914550781,45.999997343942596 377.7900085449219,57.64876993206735 331.7099914550781,69.29754252019211 "/>
   <polygon class="cls-3" id="svg_76" points="331.7099914550781,69.74245951133389 331.7099914550781,93.0400046875834 377.7900085449219,81.48223828598066 377.7900085449219,58.18469407406576 331.7099914550781,69.74245951133389 "/>
   <polygon class="cls-3" id="svg_77" points="284.9700012207031,58.08863188114424 284.9700012207031,81.39123209945865 299.9200134277344,85.1679830541143 308.010009765625,89.90535015197747 308.010009765625,73.0591244913146 299.9200134277344,68.29647446845001 312.04998779296875,71.29967476633783 312.04998779296875,88.23690854219194 331.04998779296875,93.0400046875834 331.04998779296875,69.74245951133389 284.9700012207031,58.08863188114424 "/>
  </g>
  <g class="cls-2" id="svg_78">
   <polygon class="cls-4" id="svg_79" points="331.71 139.32 331.71 93.24 377.79 116.28 331.71 139.32"/>
   <polygon class="cls-3" id="svg_80" points="331.71 140.19 331.71 186.28 377.79 163.42 377.79 117.33 331.71 140.19"/>
   <polygon class="cls-3" id="svg_81" points="284.97 117.15 284.97 163.24 299.92 170.71 308.01 180.07 308.01 146.76 299.92 137.34 312.05 143.28 312.05 176.78 331.05 186.28 331.05 140.19 284.97 117.15"/>
  </g>
  <g class="cls-2" id="svg_82">
   <polygon class="cls-4" id="svg_83" points="331.71 232.56 331.71 186.47 377.79 209.52 331.71 232.56"/>
   <polygon class="cls-3" id="svg_84" points="331.71 233.43 331.71 279.52 377.79 256.65 377.79 210.57 331.71 233.43"/>
   <polygon class="cls-3" id="svg_85" points="284.97 210.39 284.97 256.47 299.92 263.95 308.01 273.31 308.01 240 299.92 230.58 312.05 236.51 312.05 270.02 331.05 279.52 331.05 233.43 284.97 210.39"/>
  </g>
  <g class="cls-2" id="svg_86">
   <polygon class="cls-4" id="svg_87" points="331.71 325.8 331.71 279.71 377.79 302.75 331.71 325.8"/>
   <polygon class="cls-3" id="svg_88" points="331.71 326.67 331.71 372.75 377.79 349.89 377.79 303.81 331.71 326.67"/>
   <polygon class="cls-3" id="svg_89" points="284.97 303.63 284.97 349.71 299.92 357.19 308.01 366.55 308.01 333.23 299.92 323.81 312.05 329.75 312.05 363.25 331.05 372.75 331.05 326.67 284.97 303.63"/>
  </g>
  <g class="cls-2" id="svg_90">
   <polygon class="cls-4" id="svg_91" points="331.71 419.03 331.71 372.95 377.79 395.99 331.71 419.03"/>
   <polygon class="cls-3" id="svg_92" points="331.71 419.91 331.71 465.99 377.79 443.13 377.79 397.04 331.71 419.91"/>
   <polygon class="cls-3" id="svg_93" points="284.97 396.86 284.97 442.95 299.92 450.42 308.01 459.78 308.01 426.47 299.92 417.05 312.05 422.99 312.05 456.49 331.05 465.99 331.05 419.91 284.97 396.86"/>
  </g>
  <g class="cls-2" id="svg_94">
   <polygon class="cls-4" id="svg_95" points="331.71 512.27 331.71 466.19 377.79 489.23 331.71 512.27"/>
   <polygon class="cls-3" id="svg_96" points="331.71 513.14 331.71 559.23 377.79 536.36 377.79 490.28 331.71 513.14"/>
   <polygon class="cls-3" id="svg_97" points="284.97 490.1 284.97 536.18 299.92 543.66 308.01 553.02 308.01 519.71 299.92 510.29 312.05 516.22 312.05 549.73 331.05 559.23 331.05 513.14 284.97 490.1"/>
  </g>
  <g class="cls-2" id="svg_98">
   <polygon class="cls-4" id="svg_99" points="424.48 93.17 424.48 47.08 470.56 70.13 424.48 93.17"/>
   <polygon class="cls-3" id="svg_100" points="424.48 94.04 424.48 140.13 470.56 117.26 470.56 71.18 424.48 94.04"/>
   <polygon class="cls-3" id="svg_101" points="377.74 71 377.74 117.08 392.69 124.56 400.78 133.92 400.78 100.61 392.69 91.19 404.82 97.12 404.82 130.63 423.82 140.13 423.82 94.04 377.74 71"/>
  </g>
  <g class="cls-2" id="svg_102">
   <polygon class="cls-4" id="svg_103" points="424.48 186.41 424.48 140.32 470.56 163.36 424.48 186.41"/>
   <polygon class="cls-3" id="svg_104" points="424.48 187.28 424.48 233.36 470.56 210.5 470.56 164.42 424.48 187.28"/>
   <polygon class="cls-3" id="svg_105" points="377.74 164.24 377.74 210.32 392.69 217.8 400.78 227.16 400.78 193.84 392.69 184.42 404.82 190.36 404.82 223.86 423.82 233.36 423.82 187.28 377.74 164.24"/>
  </g>
  <g class="cls-2" id="svg_106">
   <polygon class="cls-4" id="svg_107" points="424.48 279.64 424.48 233.56 470.56 256.6 424.48 279.64"/>
   <polygon class="cls-3" id="svg_108" points="424.48 280.52 424.48 326.6 470.56 303.74 470.56 257.65 424.48 280.52"/>
   <polygon class="cls-3" id="svg_109" points="377.74 257.47 377.74 303.56 392.69 311.03 400.78 320.39 400.78 287.08 392.69 277.66 404.82 283.6 404.82 317.1 423.82 326.6 423.82 280.52 377.74 257.47"/>
  </g>
  <g class="cls-2" id="svg_110">
   <polygon class="cls-4" id="svg_111" points="424.48 372.88 424.48 326.8 470.56 349.84 424.48 372.88"/>
   <polygon class="cls-3" id="svg_112" points="424.48 373.75 424.48 419.84 470.56 396.97 470.56 350.89 424.48 373.75"/>
   <polygon class="cls-3" id="svg_113" points="377.74 350.71 377.74 396.79 392.69 404.27 400.78 413.63 400.78 380.32 392.69 370.9 404.82 376.84 404.82 410.34 423.82 419.84 423.82 373.75 377.74 350.71"/>
  </g>
  <g class="cls-2" id="svg_114">
   <polygon class="cls-4" id="svg_115" points="424.48 466.12 424.48 420.03 470.56 443.07 424.48 466.12"/>
   <polygon class="cls-3" id="svg_116" points="424.48 466.99 424.48 513.07 470.56 490.21 470.56 444.13 424.48 466.99"/>
   <polygon class="cls-3" id="svg_117" points="377.74 443.95 377.74 490.03 392.69 497.51 400.78 506.87 400.78 473.56 392.69 464.14 404.82 470.07 404.82 503.58 423.82 513.07 423.82 466.99 377.74 443.95"/>
  </g>
  <g class="cls-2" id="svg_118">
   <polygon class="cls-4" id="svg_119" points="424.48 559.35 424.48 513.27 470.56 536.31 424.48 559.35"/>
   <polygon class="cls-3" id="svg_120" points="424.48 560.23 424.48 606.31 470.56 583.45 470.56 537.36 424.48 560.23"/>
   <polygon class="cls-3" id="svg_121" points="377.74 537.18 377.74 583.27 392.69 590.74 400.78 600.11 400.78 566.79 392.69 557.37 404.82 563.31 404.82 596.81 423.82 606.31 423.82 560.23 377.74 537.18"/>
  </g>
  <g class="cls-2" id="svg_122">
   <polygon class="cls-4" id="svg_123" points="517.25,70.30700172375282 517.25,47.9999990368151 563.3300170898438,59.15350038028396 517.25,70.30700172375282 "/>
   <polygon class="cls-3" id="svg_124" points="517.25,70.73300216464827 517.25,93.04000485158599 563.3300170898438,81.97364038163391 563.3300170898438,59.66663861803016 517.25,70.73300216464827 "/>
   <polygon class="cls-3" id="svg_125" points="470.510009765625,59.57466070450312 470.510009765625,81.88650350811713 485.4599914550781,85.50267821905982 493.54998779296875,90.03862652526914 493.54998779296875,73.90865239133075 485.4599914550781,69.3484961150682 497.5899963378906,72.22400924778617 497.5899963378906,88.44112210190929 516.5900268554688,93.04000485158599 516.5900268554688,70.73300216464827 470.510009765625,59.57466070450312 "/>
  </g>
  <g class="cls-2" id="svg_126">
   <polygon class="cls-4" id="svg_127" points="517.25 139.32 517.25 93.24 563.33 116.28 517.25 139.32"/>
   <polygon class="cls-3" id="svg_128" points="517.25 140.19 517.25 186.28 563.33 163.42 563.33 117.33 517.25 140.19"/>
   <polygon class="cls-3" id="svg_129" points="470.51 117.15 470.51 163.24 485.46 170.71 493.55 180.07 493.55 146.76 485.46 137.34 497.59 143.28 497.59 176.78 516.59 186.28 516.59 140.19 470.51 117.15"/>
  </g>
  <g class="cls-2" id="svg_130">
   <polygon class="cls-4" id="svg_131" points="517.25 232.56 517.25 186.47 563.33 209.52 517.25 232.56"/>
   <polygon class="cls-3" id="svg_132" points="517.25 233.43 517.25 279.52 563.33 256.65 563.33 210.57 517.25 233.43"/>
   <polygon class="cls-3" id="svg_133" points="470.51 210.39 470.51 256.47 485.46 263.95 493.55 273.31 493.55 240 485.46 230.58 497.59 236.51 497.59 270.02 516.59 279.52 516.59 233.43 470.51 210.39"/>
  </g>
  <g class="cls-2" id="svg_134">
   <polygon class="cls-4" id="svg_135" points="517.25 325.8 517.25 279.71 563.33 302.75 517.25 325.8"/>
   <polygon class="cls-3" id="svg_136" points="517.25 326.67 517.25 372.75 563.33 349.89 563.33 303.81 517.25 326.67"/>
   <polygon class="cls-3" id="svg_137" points="470.51 303.63 470.51 349.71 485.46 357.19 493.55 366.55 493.55 333.23 485.46 323.81 497.59 329.75 497.59 363.25 516.59 372.75 516.59 326.67 470.51 303.63"/>
  </g>
  <g class="cls-2" id="svg_138">
   <polygon class="cls-4" id="svg_139" points="517.25 419.03 517.25 372.95 563.33 395.99 517.25 419.03"/>
   <polygon class="cls-3" id="svg_140" points="517.25 419.91 517.25 465.99 563.33 443.13 563.33 397.04 517.25 419.91"/>
   <polygon class="cls-3" id="svg_141" points="470.51 396.86 470.51 442.95 485.46 450.42 493.55 459.78 493.55 426.47 485.46 417.05 497.59 422.99 497.59 456.49 516.59 465.99 516.59 419.91 470.51 396.86"/>
  </g>
  <g class="cls-2" id="svg_142">
   <polygon class="cls-4" id="svg_143" points="517.25 512.27 517.25 466.19 563.33 489.23 517.25 512.27"/>
   <polygon class="cls-3" id="svg_144" points="517.25 513.14 517.25 559.23 563.33 536.36 563.33 490.28 517.25 513.14"/>
   <polygon class="cls-3" id="svg_145" points="470.51 490.1 470.51 536.18 485.46 543.66 493.55 553.02 493.55 519.71 485.46 510.29 497.59 516.22 497.59 549.73 516.59 559.23 516.59 513.14 470.51 490.1"/>
  </g>
  <g class="cls-2" id="svg_146">
   <polygon class="cls-4" id="svg_147" points="610.02 93.17 610.02 47.08 656.1 70.13 610.02 93.17"/>
   <polygon class="cls-3" id="svg_148" points="610.02 94.04 610.02 140.13 656.1 117.26 656.1 71.18 610.02 94.04"/>
   <polygon class="cls-3" id="svg_149" points="563.28 71 563.28 117.08 578.23 124.56 586.32 133.92 586.32 100.61 578.23 91.19 590.37 97.12 590.37 130.63 609.36 140.13 609.36 94.04 563.28 71"/>
  </g>
  <g class="cls-2" id="svg_150">
   <polygon class="cls-4" id="svg_151" points="610.02 186.41 610.02 140.32 656.1 163.36 610.02 186.41"/>
   <polygon class="cls-3" id="svg_152" points="610.02 187.28 610.02 233.36 656.1 210.5 656.1 164.42 610.02 187.28"/>
   <polygon class="cls-3" id="svg_153" points="563.28 164.24 563.28 210.32 578.23 217.8 586.32 227.16 586.32 193.84 578.23 184.42 590.37 190.36 590.37 223.86 609.36 233.36 609.36 187.28 563.28 164.24"/>
  </g>
  <g class="cls-2" id="svg_154">
   <polygon class="cls-4" id="svg_155" points="610.02 279.64 610.02 233.56 656.1 256.6 610.02 279.64"/>
   <polygon class="cls-3" id="svg_156" points="610.02 280.52 610.02 326.6 656.1 303.74 656.1 257.65 610.02 280.52"/>
   <polygon class="cls-3" id="svg_157" points="563.28 257.47 563.28 303.56 578.23 311.03 586.32 320.39 586.32 287.08 578.23 277.66 590.37 283.6 590.37 317.1 609.36 326.6 609.36 280.52 563.28 257.47"/>
  </g>
  <g class="cls-2" id="svg_158">
   <polygon class="cls-4" id="svg_159" points="610.02 372.88 610.02 326.8 656.1 349.84 610.02 372.88"/>
   <polygon class="cls-3" id="svg_160" points="610.02 373.75 610.02 419.84 656.1 396.97 656.1 350.89 610.02 373.75"/>
   <polygon class="cls-3" id="svg_161" points="563.28 350.71 563.28 396.79 578.23 404.27 586.32 413.63 586.32 380.32 578.23 370.9 590.37 376.84 590.37 410.34 609.36 419.84 609.36 373.75 563.28 350.71"/>
  </g>
  <g class="cls-2" id="svg_162">
   <polygon class="cls-4" id="svg_163" points="610.02 466.12 610.02 420.03 656.1 443.07 610.02 466.12"/>
   <polygon class="cls-3" id="svg_164" points="610.02 466.99 610.02 513.07 656.1 490.21 656.1 444.13 610.02 466.99"/>
   <polygon class="cls-3" id="svg_165" points="563.28 443.95 563.28 490.03 578.23 497.51 586.32 506.87 586.32 473.56 578.23 464.14 590.37 470.07 590.37 503.58 609.36 513.07 609.36 466.99 563.28 443.95"/>
  </g>
  <g class="cls-2" id="svg_166">
   <polygon class="cls-4" id="svg_167" points="610.02 559.35 610.02 513.27 656.1 536.31 610.02 559.35"/>
   <polygon class="cls-3" id="svg_168" points="610.02 560.23 610.02 606.31 656.1 583.45 656.1 537.36 610.02 560.23"/>
   <polygon class="cls-3" id="svg_169" points="563.28 537.18 563.28 583.27 578.23 590.74 586.32 600.11 586.32 566.79 578.23 557.37 590.37 563.31 590.37 596.81 609.36 606.31 609.36 560.23 563.28 537.18"/>
  </g>
  <g class="cls-2" id="svg_170" transform="matrix(1 0 0 1 0 0)">
   <polygon class="cls-4" id="svg_171" points="702.7899780273438,70.30700172375282 702.7899780273438,47.9999990368151 748.8699951171875,59.15350038028396 702.7899780273438,70.30700172375282 "/>
   <polygon class="cls-3" id="svg_172" points="702.7899780273438,70.73300216464827 702.7899780273438,93.04000485158599 748.8699951171875,81.97364038163391 748.8699951171875,59.66663861803016 702.7899780273438,70.73300216464827 "/>
   <polygon class="cls-3" id="svg_173" points="656.0499877929688,59.57466070450312 656.0499877929688,81.88650350811713 671,85.50267821905982 679.0900268554688,90.03862652526914 679.0900268554688,73.90865239133075 671,69.3484961150682 683.1400146484375,72.22400924778617 683.1400146484375,88.44112210190929 702.1300048828125,93.04000485158599 702.1300048828125,70.73300216464827 656.0499877929688,59.57466070450312 "/>
  </g>
  <g class="cls-2" id="svg_174">
   <polygon class="cls-4" id="svg_175" points="702.79 139.32 702.79 93.24 748.87 116.28 702.79 139.32"/>
   <polygon class="cls-3" id="svg_176" points="702.79 140.19 702.79 186.28 748.87 163.42 748.87 117.33 702.79 140.19"/>
   <polygon class="cls-3" id="svg_177" points="656.05 117.15 656.05 163.24 671 170.71 679.09 180.07 679.09 146.76 671 137.34 683.14 143.28 683.14 176.78 702.13 186.28 702.13 140.19 656.05 117.15"/>
  </g>
  <g class="cls-2" id="svg_178">
   <polygon class="cls-4" id="svg_179" points="702.79 232.56 702.79 186.47 748.87 209.52 702.79 232.56"/>
   <polygon class="cls-3" id="svg_180" points="702.79 233.43 702.79 279.52 748.87 256.65 748.87 210.57 702.79 233.43"/>
   <polygon class="cls-3" id="svg_181" points="656.05 210.39 656.05 256.47 671 263.95 679.09 273.31 679.09 240 671 230.58 683.14 236.51 683.14 270.02 702.13 279.52 702.13 233.43 656.05 210.39"/>
  </g>
  <g class="cls-2" id="svg_182">
   <polygon class="cls-4" id="svg_183" points="702.79 325.8 702.79 279.71 748.87 302.75 702.79 325.8"/>
   <polygon class="cls-3" id="svg_184" points="702.79 326.67 702.79 372.75 748.87 349.89 748.87 303.81 702.79 326.67"/>
   <polygon class="cls-3" id="svg_185" points="656.05 303.63 656.05 349.71 671 357.19 679.09 366.55 679.09 333.23 671 323.81 683.14 329.75 683.14 363.25 702.13 372.75 702.13 326.67 656.05 303.63"/>
  </g>
  <g class="cls-2" id="svg_186">
   <polygon class="cls-4" id="svg_187" points="702.79 419.03 702.79 372.95 748.87 395.99 702.79 419.03"/>
   <polygon class="cls-3" id="svg_188" points="702.79 419.91 702.79 465.99 748.87 443.13 748.87 397.04 702.79 419.91"/>
   <polygon class="cls-3" id="svg_189" points="656.05 396.86 656.05 442.95 671 450.42 679.09 459.78 679.09 426.47 671 417.05 683.14 422.99 683.14 456.49 702.13 465.99 702.13 419.91 656.05 396.86"/>
  </g>
  <g class="cls-2" id="svg_190">
   <polygon class="cls-4" id="svg_191" points="702.79 512.27 702.79 466.19 748.87 489.23 702.79 512.27"/>
   <polygon class="cls-3" id="svg_192" points="702.79 513.14 702.79 559.23 748.87 536.36 748.87 490.28 702.79 513.14"/>
   <polygon class="cls-3" id="svg_193" points="656.05 490.1 656.05 536.18 671 543.66 679.09 553.02 679.09 519.71 671 510.29 683.14 516.22 683.14 549.73 702.13 559.23 702.13 513.14 656.05 490.1"/>
  </g>
  <g class="cls-2" id="svg_194">
   <polygon class="cls-4" id="svg_195" points="795.56 93.17 795.56 47.08 841.65 70.13 795.56 93.17"/>
   <polygon class="cls-3" id="svg_196" points="795.56 94.04 795.56 140.13 841.65 117.26 841.65 71.18 795.56 94.04"/>
   <polygon class="cls-3" id="svg_197" points="748.82 71 748.82 117.08 763.77 124.56 771.86 133.92 771.86 100.61 763.77 91.19 775.91 97.12 775.91 130.63 794.9 140.13 794.9 94.04 748.82 71"/>
  </g>
  <g class="cls-2" id="svg_198">
   <polygon class="cls-4" id="svg_199" points="795.56 186.41 795.56 140.32 841.65 163.36 795.56 186.41"/>
   <polygon class="cls-3" id="svg_200" points="795.56 187.28 795.56 233.36 841.65 210.5 841.65 164.42 795.56 187.28"/>
   <polygon class="cls-3" id="svg_201" points="748.82 164.24 748.82 210.32 763.77 217.8 771.86 227.16 771.86 193.84 763.77 184.42 775.91 190.36 775.91 223.86 794.9 233.36 794.9 187.28 748.82 164.24"/>
  </g>
  <g class="cls-2" id="svg_202">
   <polygon class="cls-4" id="svg_203" points="795.56 279.64 795.56 233.56 841.65 256.6 795.56 279.64"/>
   <polygon class="cls-3" id="svg_204" points="795.56 280.52 795.56 326.6 841.65 303.74 841.65 257.65 795.56 280.52"/>
   <polygon class="cls-3" id="svg_205" points="748.82 257.47 748.82 303.56 763.77 311.03 771.86 320.39 771.86 287.08 763.77 277.66 775.91 283.6 775.91 317.1 794.9 326.6 794.9 280.52 748.82 257.47"/>
  </g>
  <g class="cls-2" id="svg_206">
   <polygon class="cls-4" id="svg_207" points="795.56 372.88 795.56 326.8 841.65 349.84 795.56 372.88"/>
   <polygon class="cls-3" id="svg_208" points="795.56 373.75 795.56 419.84 841.65 396.97 841.65 350.89 795.56 373.75"/>
   <polygon class="cls-3" id="svg_209" points="748.82 350.71 748.82 396.79 763.77 404.27 771.86 413.63 771.86 380.32 763.77 370.9 775.91 376.84 775.91 410.34 794.9 419.84 794.9 373.75 748.82 350.71"/>
  </g>
  <g class="cls-2" id="svg_210">
   <polygon class="cls-4" id="svg_211" points="795.56 466.12 795.56 420.03 841.65 443.07 795.56 466.12"/>
   <polygon class="cls-3" id="svg_212" points="795.56 466.99 795.56 513.07 841.65 490.21 841.65 444.13 795.56 466.99"/>
   <polygon class="cls-3" id="svg_213" points="748.82 443.95 748.82 490.03 763.77 497.51 771.86 506.87 771.86 473.56 763.77 464.14 775.91 470.07 775.91 503.58 794.9 513.07 794.9 466.99 748.82 443.95"/>
  </g>
  <g class="cls-2" id="svg_214">
   <polygon class="cls-4" id="svg_215" points="795.56 559.35 795.56 513.27 841.65 536.31 795.56 559.35"/>
   <polygon class="cls-3" id="svg_216" points="795.56 560.23 795.56 606.31 841.65 583.45 841.65 537.36 795.56 560.23"/>
   <polygon class="cls-3" id="svg_217" points="748.82 537.18 748.82 583.27 763.77 590.74 771.86 600.11 771.86 566.79 763.77 557.37 775.91 563.31 775.91 596.81 794.9 606.31 794.9 560.23 748.82 537.18"/>
  </g>
  <g class="cls-2" id="svg_218" transform="matrix(1 0 0 1 0 0)">
   <polygon class="cls-4" id="svg_219" points="889.3300170898438,71.30700172375282 889.3300170898438,48.9999990368151 935.4199829101562,60.15350038028396 889.3300170898438,71.30700172375282 "/>
   <polygon class="cls-3" id="svg_220" points="889.3300170898438,71.73300216464827 889.3300170898438,94.04000854492188 935.4199829101562,82.97364038163391 935.4199829101562,60.66663769469619 889.3300170898438,71.73300216464827 "/>
   <polygon class="cls-3" id="svg_221" points="842.5900268554688,60.57466255117106 842.5900268554688,82.88650350811713 857.5399780273438,86.50267821905982 865.6300048828125,91.03862652526914 865.6300048828125,74.90865423799869 857.5399780273438,70.3484961150682 869.6799926757812,73.22400924778617 869.6799926757812,89.44112579524517 888.6699829101562,94.04000854492188 888.6699829101562,71.73300216464827 842.5900268554688,60.57466255117106 "/>
  </g>
  <g class="cls-2" id="svg_222">
   <polygon class="cls-4" id="svg_223" points="888.33 139.32 888.33 93.24 934.42 116.28 888.33 139.32"/>
   <polygon class="cls-3" id="svg_224" points="888.33 140.19 888.33 186.28 934.42 163.42 934.42 117.33 888.33 140.19"/>
   <polygon class="cls-3" id="svg_225" points="841.59 117.15 841.59 163.24 856.54 170.71 864.63 180.07 864.63 146.76 856.54 137.34 868.68 143.28 868.68 176.78 887.67 186.28 887.67 140.19 841.59 117.15"/>
  </g>
  <g class="cls-2" id="svg_226">
   <polygon class="cls-4" id="svg_227" points="888.33 232.56 888.33 186.47 934.42 209.52 888.33 232.56"/>
   <polygon class="cls-3" id="svg_228" points="888.33 233.43 888.33 279.52 934.42 256.65 934.42 210.57 888.33 233.43"/>
   <polygon class="cls-3" id="svg_229" points="841.59 210.39 841.59 256.47 856.54 263.95 864.63 273.31 864.63 240 856.54 230.58 868.68 236.51 868.68 270.02 887.67 279.52 887.67 233.43 841.59 210.39"/>
  </g>
  <g class="cls-2" id="svg_230">
   <polygon class="cls-4" id="svg_231" points="888.33 325.8 888.33 279.71 934.42 302.75 888.33 325.8"/>
   <polygon class="cls-3" id="svg_232" points="888.33 326.67 888.33 372.75 934.42 349.89 934.42 303.81 888.33 326.67"/>
   <polygon class="cls-3" id="svg_233" points="841.59 303.63 841.59 349.71 856.54 357.19 864.63 366.55 864.63 333.23 856.54 323.81 868.68 329.75 868.68 363.25 887.67 372.75 887.67 326.67 841.59 303.63"/>
  </g>
  <g class="cls-2" id="svg_234">
   <polygon class="cls-4" id="svg_235" points="888.33 419.03 888.33 372.95 934.42 395.99 888.33 419.03"/>
   <polygon class="cls-3" id="svg_236" points="888.33 419.91 888.33 465.99 934.42 443.13 934.42 397.04 888.33 419.91"/>
   <polygon class="cls-3" id="svg_237" points="841.59 396.86 841.59 442.95 856.54 450.42 864.63 459.78 864.63 426.47 856.54 417.05 868.68 422.99 868.68 456.49 887.67 465.99 887.67 419.91 841.59 396.86"/>
  </g>
  <g class="cls-2" id="svg_238">
   <polygon class="cls-4" id="svg_239" points="888.33 512.27 888.33 466.19 934.42 489.23 888.33 512.27"/>
   <polygon class="cls-3" id="svg_240" points="888.33 513.14 888.33 559.23 934.42 536.36 934.42 490.28 888.33 513.14"/>
   <polygon class="cls-3" id="svg_241" points="841.59 490.1 841.59 536.18 856.54 543.66 864.63 553.02 864.63 519.71 856.54 510.29 868.68 516.22 868.68 549.73 887.67 559.23 887.67 513.14 841.59 490.1"/>
  </g>
  <g class="cls-2" id="svg_242">
   <polygon class="cls-4" id="svg_243" points="981.1 93.17 981.1 47.08 1027.19 70.13 981.1 93.17"/>
   <polygon class="cls-3" id="svg_244" points="981.1 94.04 981.1 140.13 1027.19 117.26 1027.19 71.18 981.1 94.04"/>
   <polygon class="cls-3" id="svg_245" points="934.36 71 934.36 117.08 949.31 124.56 957.4 133.92 957.4 100.61 949.31 91.19 961.45 97.12 961.45 130.63 980.45 140.13 980.45 94.04 934.36 71"/>
  </g>
  <g class="cls-2" id="svg_246">
   <polygon class="cls-4" id="svg_247" points="981.1 186.41 981.1 140.32 1027.19 163.36 981.1 186.41"/>
   <polygon class="cls-3" id="svg_248" points="981.1 187.28 981.1 233.36 1027.19 210.5 1027.19 164.42 981.1 187.28"/>
   <polygon class="cls-3" id="svg_249" points="934.36 164.24 934.36 210.32 949.31 217.8 957.4 227.16 957.4 193.84 949.31 184.42 961.45 190.36 961.45 223.86 980.45 233.36 980.45 187.28 934.36 164.24"/>
  </g>
  <g class="cls-2" id="svg_250">
   <polygon class="cls-4" id="svg_251" points="981.1 279.64 981.1 233.56 1027.19 256.6 981.1 279.64"/>
   <polygon class="cls-3" id="svg_252" points="981.1 280.52 981.1 326.6 1027.19 303.74 1027.19 257.65 981.1 280.52"/>
   <polygon class="cls-3" id="svg_253" points="934.36 257.47 934.36 303.56 949.31 311.03 957.4 320.39 957.4 287.08 949.31 277.66 961.45 283.6 961.45 317.1 980.45 326.6 980.45 280.52 934.36 257.47"/>
  </g>
  <g class="cls-2" id="svg_254">
   <polygon class="cls-4" id="svg_255" points="981.1 372.88 981.1 326.8 1027.19 349.84 981.1 372.88"/>
   <polygon class="cls-3" id="svg_256" points="981.1 373.75 981.1 419.84 1027.19 396.97 1027.19 350.89 981.1 373.75"/>
   <polygon class="cls-3" id="svg_257" points="934.36 350.71 934.36 396.79 949.31 404.27 957.4 413.63 957.4 380.32 949.31 370.9 961.45 376.84 961.45 410.34 980.45 419.84 980.45 373.75 934.36 350.71"/>
  </g>
  <g class="cls-2" id="svg_258">
   <polygon class="cls-4" id="svg_259" points="981.1 466.12 981.1 420.03 1027.19 443.07 981.1 466.12"/>
   <polygon class="cls-3" id="svg_260" points="981.1 466.99 981.1 513.07 1027.19 490.21 1027.19 444.13 981.1 466.99"/>
   <polygon class="cls-3" id="svg_261" points="934.36 443.95 934.36 490.03 949.31 497.51 957.4 506.87 957.4 473.56 949.31 464.14 961.45 470.07 961.45 503.58 980.45 513.07 980.45 466.99 934.36 443.95"/>
  </g>
  <g class="cls-2" id="svg_262">
   <polygon class="cls-4" id="svg_263" points="981.1 559.35 981.1 513.27 1027.19 536.31 981.1 559.35"/>
   <polygon class="cls-3" id="svg_264" points="981.1 560.23 981.1 606.31 1027.19 583.45 1027.19 537.36 981.1 560.23"/>
   <polygon class="cls-3" id="svg_265" points="934.36 537.18 934.36 583.27 949.31 590.74 957.4 600.11 957.4 566.79 949.31 557.37 961.45 563.31 961.45 596.81 980.45 606.31 980.45 560.23 934.36 537.18"/>
  </g>
  <g class="cls-2" id="svg_266" transform="matrix(1 0 0 1 0 0)">
   <polygon class="cls-4" id="svg_267" points="1073.8699951171875,70.30700172375282 1073.8699951171875,47.9999990368151 1119.9599609375,59.15350038028396 1073.8699951171875,70.30700172375282 "/>
   <polygon class="cls-3" id="svg_268" points="1073.8699951171875,70.73300216464827 1073.8699951171875,93.04000485158599 1119.9599609375,81.97364038163391 1119.9599609375,59.66663861803016 1073.8699951171875,70.73300216464827 "/>
   <polygon class="cls-3" id="svg_269" points="1027.1300048828125,59.57466070450312 1027.1300048828125,81.88650350811713 1042.0799560546875,85.50267821905982 1050.1700439453125,90.03862652526914 1050.1700439453125,73.90865239133075 1042.0799560546875,69.3484961150682 1054.219970703125,72.22400924778617 1054.219970703125,88.44112210190929 1073.219970703125,93.04000485158599 1073.219970703125,70.73300216464827 1027.1300048828125,59.57466070450312 "/>
  </g>
  <g class="cls-2" id="svg_270">
   <polygon class="cls-4" id="svg_271" points="1073.87 139.32 1073.87 93.24 1119.96 116.28 1073.87 139.32"/>
   <polygon class="cls-3" id="svg_272" points="1073.87 140.19 1073.87 186.28 1119.96 163.42 1119.96 117.33 1073.87 140.19"/>
   <polygon class="cls-3" id="svg_273" points="1027.13 117.15 1027.13 163.24 1042.08 170.71 1050.17 180.07 1050.17 146.76 1042.08 137.34 1054.22 143.28 1054.22 176.78 1073.22 186.28 1073.22 140.19 1027.13 117.15"/>
  </g>
  <g class="cls-2" id="svg_274">
   <polygon class="cls-4" id="svg_275" points="1073.87 233.62 1073.87 187.53 1119.96 210.58 1073.87 233.62"/>
   <polygon class="cls-3" id="svg_276" points="1073.87 233.43 1073.87 279.52 1119.96 256.65 1119.96 210.57 1073.87 233.43"/>
   <polygon class="cls-3" id="svg_277" points="1027.13 210.39 1027.13 256.47 1042.08 263.95 1050.17 273.31 1050.17 240 1042.08 230.58 1054.22 236.51 1054.22 270.02 1073.22 279.52 1073.22 233.43 1027.13 210.39"/>
  </g>
  <g class="cls-2" id="svg_278">
   <polygon class="cls-4" id="svg_279" points="1073.87 325.8 1073.87 279.71 1119.96 302.75 1073.87 325.8"/>
   <polygon class="cls-3" id="svg_280" points="1073.87 326.67 1073.87 372.75 1119.96 349.89 1119.96 303.81 1073.87 326.67"/>
   <polygon class="cls-3" id="svg_281" points="1027.13 303.63 1027.13 349.71 1042.08 357.19 1050.17 366.55 1050.17 333.23 1042.08 323.81 1054.22 329.75 1054.22 363.25 1073.22 372.75 1073.22 326.67 1027.13 303.63"/>
  </g>
  <g class="cls-2" id="svg_282">
   <polygon class="cls-4" id="svg_283" points="1073.87 419.03 1073.87 372.95 1119.96 395.99 1073.87 419.03"/>
   <polygon class="cls-3" id="svg_284" points="1073.87 419.91 1073.87 465.99 1119.96 443.13 1119.96 397.04 1073.87 419.91"/>
   <polygon class="cls-3" id="svg_285" points="1027.13 396.86 1027.13 442.95 1042.08 450.42 1050.17 459.78 1050.17 426.47 1042.08 417.05 1054.22 422.99 1054.22 456.49 1073.22 465.99 1073.22 419.91 1027.13 396.86"/>
  </g>
  <g class="cls-2" id="svg_286">
   <polygon class="cls-4" id="svg_287" points="1073.87 512.27 1073.87 466.19 1119.96 489.23 1073.87 512.27"/>
   <polygon class="cls-3" id="svg_288" points="1073.87 513.14 1073.87 559.23 1119.96 536.36 1119.96 490.28 1073.87 513.14"/>
   <polygon class="cls-3" id="svg_289" points="1027.13 490.1 1027.13 536.18 1042.08 543.66 1050.17 553.02 1050.17 519.71 1042.08 510.29 1054.22 516.22 1054.22 549.73 1073.22 559.23 1073.22 513.14 1027.13 490.1"/>
  </g>
  <g class="cls-2" id="svg_290">
   <polygon class="cls-4" id="svg_291" points="1166.65 93.17 1166.65 47.08 1212.73 70.13 1166.65 93.17"/>
   <polygon class="cls-3" id="svg_292" points="1166.65 94.04 1166.65 140.13 1212.73 117.26 1212.73 71.18 1166.65 94.04"/>
   <polygon class="cls-3" id="svg_293" points="1119.9 71 1119.9 117.08 1134.85 124.56 1142.95 133.92 1142.95 100.61 1134.85 91.19 1146.99 97.12 1146.99 130.63 1165.99 140.13 1165.99 94.04 1119.9 71"/>
  </g>
  <g class="cls-2" id="svg_294">
   <polygon class="cls-4" id="svg_295" points="1166.65 186.41 1166.65 140.32 1212.73 163.36 1166.65 186.41"/>
   <polygon class="cls-3" id="svg_296" points="1166.65 187.28 1166.65 233.36 1212.73 210.5 1212.73 164.42 1166.65 187.28"/>
   <polygon class="cls-3" id="svg_297" points="1119.9 164.24 1119.9 210.32 1134.85 217.8 1142.95 227.16 1142.95 193.84 1134.85 184.42 1146.99 190.36 1146.99 223.86 1165.99 233.36 1165.99 187.28 1119.9 164.24"/>
  </g>
  <g class="cls-2" id="svg_298">
   <polygon class="cls-4" id="svg_299" points="1166.65 279.64 1166.65 233.56 1212.73 256.6 1166.65 279.64"/>
   <polygon class="cls-3" id="svg_300" points="1166.65 280.52 1166.65 326.6 1212.73 303.74 1212.73 257.65 1166.65 280.52"/>
   <polygon class="cls-3" id="svg_301" points="1119.9 257.47 1119.9 303.56 1134.85 311.03 1142.95 320.39 1142.95 287.08 1134.85 277.66 1146.99 283.6 1146.99 317.1 1165.99 326.6 1165.99 280.52 1119.9 257.47"/>
  </g>
  <g class="cls-2" id="svg_302">
   <polygon class="cls-4" id="svg_303" points="1166.65 372.88 1166.65 326.8 1212.73 349.84 1166.65 372.88"/>
   <polygon class="cls-3" id="svg_304" points="1166.65 373.75 1166.65 419.84 1212.73 396.97 1212.73 350.89 1166.65 373.75"/>
   <polygon class="cls-3" id="svg_305" points="1119.9 350.71 1119.9 396.79 1134.85 404.27 1142.95 413.63 1142.95 380.32 1134.85 370.9 1146.99 376.84 1146.99 410.34 1165.99 419.84 1165.99 373.75 1119.9 350.71"/>
  </g>
  <g class="cls-2" id="svg_306">
   <polygon class="cls-4" id="svg_307" points="1166.65 466.12 1166.65 420.03 1212.73 443.07 1166.65 466.12"/>
   <polygon class="cls-3" id="svg_308" points="1166.65 466.99 1166.65 513.07 1212.73 490.21 1212.73 444.13 1166.65 466.99"/>
   <polygon class="cls-3" id="svg_309" points="1119.9 443.95 1119.9 490.03 1134.85 497.51 1142.95 506.87 1142.95 473.56 1134.85 464.14 1146.99 470.07 1146.99 503.58 1165.99 513.07 1165.99 466.99 1119.9 443.95"/>
  </g>
  <g class="cls-2" id="svg_310">
   <polygon class="cls-4" id="svg_311" points="1166.65 559.35 1166.65 513.27 1212.73 536.31 1166.65 559.35"/>
   <polygon class="cls-3" id="svg_312" points="1166.65 560.23 1166.65 606.31 1212.73 583.45 1212.73 537.36 1166.65 560.23"/>
   <polygon class="cls-3" id="svg_313" points="1119.9 537.18 1119.9 583.27 1134.85 590.74 1142.95 600.11 1142.95 566.79 1134.85 557.37 1146.99 563.31 1146.99 596.81 1165.99 606.31 1165.99 560.23 1119.9 537.18"/>
  </g>
  <g class="cls-2" id="svg_314" transform="matrix(1 0 0 1 0 0)">
   <polygon class="cls-4" id="svg_315" points="1259.4200439453125,70.30700172375282 1259.4200439453125,47.9999990368151 1305.5,59.15350038028396 1259.4200439453125,70.30700172375282 "/>
   <polygon class="cls-3" id="svg_316" points="1259.4200439453125,70.73300216464827 1259.4200439453125,93.04000485158599 1305.5,81.97364038163391 1305.5,59.66663861803016 1259.4200439453125,70.73300216464827 "/>
   <polygon class="cls-3" id="svg_317" points="1212.6700439453125,59.57466070450312 1212.6700439453125,81.88650350811713 1227.6199951171875,85.50267821905982 1235.719970703125,90.03862652526914 1235.719970703125,73.90865239133075 1227.6199951171875,69.3484961150682 1239.760009765625,72.22400924778617 1239.760009765625,88.44112210190929 1258.760009765625,93.04000485158599 1258.760009765625,70.73300216464827 1212.6700439453125,59.57466070450312 "/>
  </g>
  <g class="cls-2" id="svg_318">
   <polygon class="cls-4" id="svg_319" points="1259.42 139.32 1259.42 93.24 1305.5 116.28 1259.42 139.32"/>
   <polygon class="cls-3" id="svg_320" points="1259.42 140.19 1259.42 186.28 1305.5 163.42 1305.5 117.33 1259.42 140.19"/>
   <polygon class="cls-3" id="svg_321" points="1212.67 117.15 1212.67 163.24 1227.62 170.71 1235.72 180.07 1235.72 146.76 1227.62 137.34 1239.76 143.28 1239.76 176.78 1258.76 186.28 1258.76 140.19 1212.67 117.15"/>
  </g>
  <g class="cls-2" id="svg_322">
   <polygon class="cls-4" id="svg_323" points="1259.42 232.56 1259.42 186.47 1305.5 209.52 1259.42 232.56"/>
   <polygon class="cls-3" id="svg_324" points="1259.42 233.43 1259.42 279.52 1305.5 256.65 1305.5 210.57 1259.42 233.43"/>
   <polygon class="cls-3" id="svg_325" points="1212.67 210.39 1212.67 256.47 1227.62 263.95 1235.72 273.31 1235.72 240 1227.62 230.58 1239.76 236.51 1239.76 270.02 1258.76 279.52 1258.76 233.43 1212.67 210.39"/>
  </g>
  <g class="cls-2" id="svg_326">
   <polygon class="cls-4" id="svg_327" points="1259.42 325.8 1259.42 279.71 1305.5 302.75 1259.42 325.8"/>
   <polygon class="cls-3" id="svg_328" points="1259.42 326.67 1259.42 372.75 1305.5 349.89 1305.5 303.81 1259.42 326.67"/>
   <polygon class="cls-3" id="svg_329" points="1212.67 303.63 1212.67 349.71 1227.62 357.19 1235.72 366.55 1235.72 333.23 1227.62 323.81 1239.76 329.75 1239.76 363.25 1258.76 372.75 1258.76 326.67 1212.67 303.63"/>
  </g>
  <g class="cls-2" id="svg_330">
   <polygon class="cls-4" id="svg_331" points="1259.42 419.03 1259.42 372.95 1305.5 395.99 1259.42 419.03"/>
   <polygon class="cls-3" id="svg_332" points="1259.42 419.91 1259.42 465.99 1305.5 443.13 1305.5 397.04 1259.42 419.91"/>
   <polygon class="cls-3" id="svg_333" points="1212.67 396.86 1212.67 442.95 1227.62 450.42 1235.72 459.78 1235.72 426.47 1227.62 417.05 1239.76 422.99 1239.76 456.49 1258.76 465.99 1258.76 419.91 1212.67 396.86"/>
  </g>
  <g class="cls-2" id="svg_334">
   <polygon class="cls-4" id="svg_335" points="1259.42 512.27 1259.42 466.19 1305.5 489.23 1259.42 512.27"/>
   <polygon class="cls-3" id="svg_336" points="1259.42 513.14 1259.42 559.23 1305.5 536.36 1305.5 490.28 1259.42 513.14"/>
   <polygon class="cls-3" id="svg_337" points="1212.67 490.1 1212.67 536.18 1227.62 543.66 1235.72 553.02 1235.72 519.71 1227.62 510.29 1239.76 516.22 1239.76 549.73 1258.76 559.23 1258.76 513.14 1212.67 490.1"/>
  </g>
  <g class="cls-2" id="svg_338">
   <polygon class="cls-4" id="svg_339" points="146.1699981689453,580.4164510819792 146.1699981689453,559.0999755859375 192.25,569.758227451297 146.1699981689453,580.4164510819792 "/>
   <polygon class="cls-3" id="svg_340" points="146.1699981689453,580.8189081722412 146.1699981689453,602.1400141553604 192.25,591.5604241009642 192.25,570.2439486049225 146.1699981689453,580.8189081722412 "/>
   <polygon class="cls-3" id="svg_341" points="99.41999816894531,570.160684541559 99.41999816894531,591.4771600376007 114.37000274658203,594.9373762103096 122.47000122070312,599.2672769132732 122.47000122070312,583.8581735410553 114.37000274658203,579.5005181503038 126.51000213623047,582.2437146929296 126.51000213623047,597.7453431026661 145.50999450683594,602.1400141553604 145.50999450683594,580.8189081722412 99.41999816894531,570.160684541559 "/>
  </g>
  <g class="cls-2" id="svg_342" transform="matrix(1 0 0 1 0 0)">
   <polygon class="cls-4" id="svg_343" points="331.7099914550781,580.9117231772834 331.7099914550781,559.0999755859375 377.7900085449219,570.0058638269547 331.7099914550781,580.9117231772834 "/>
   <polygon class="cls-3" id="svg_344" points="331.7099914550781,581.3235310519376 331.7099914550781,603.1400167162064 377.7900085449219,592.3146179335017 377.7900085449219,570.5028703421558 331.7099914550781,581.3235310519376 "/>
   <polygon class="cls-3" id="svg_345" points="284.9700012207031,570.4176717016089 284.9700012207031,592.2294192929548 299.9200134277344,595.7700309566717 308.010009765625,600.2005336092407 308.010009765625,584.4334114399971 299.9200134277344,579.9745092405792 312.04998779296875,582.7814418684575 312.04998779296875,598.6432388240937 331.04998779296875,603.1400167162064 331.04998779296875,581.3235310519376 284.9700012207031,570.4176717016089 "/>
  </g>
  <g class="cls-2" id="svg_346" transform="matrix(1 0 0 1 0 0)">
   <polygon class="cls-4" id="svg_347" points="517.25,581.9022646213089 517.25,559.0999755859375 563.3300170898438,570.5011352049769 517.25,581.9022646213089 "/>
   <polygon class="cls-3" id="svg_348" points="517.25,582.3327740128916 517.25,605.14001629228 563.3300170898438,593.8230014161163 563.3300170898438,571.020712380745 517.25,582.3327740128916 "/>
   <polygon class="cls-3" id="svg_349" points="470.510009765625,570.9316445965596 470.510009765625,593.733933631931 485.4599914550781,597.4353358318222 493.54998779296875,602.0670418257032 493.54998779296875,585.5838840478391 485.4599914550781,580.922488792563 497.5899963378906,583.856893237491 497.5899963378906,600.4390252875746 516.5900268554688,605.14001629228 516.5900268554688,582.3327740128916 470.510009765625,570.9316445965596 "/>
  </g>
  <g class="cls-2" id="svg_350" transform="matrix(1 0 0 1 0 0)">
   <polygon class="cls-4" id="svg_351" points="702.7899780273438,581.4069938992961 702.7899780273438,559.0999755859375 748.8699951171875,570.2534995159658 702.7899780273438,581.4069938992961 "/>
   <polygon class="cls-3" id="svg_352" points="702.7899780273438,581.8281525324146 702.7899780273438,604.1400165042432 748.8699951171875,593.068809674809 748.8699951171875,570.7617913614504 702.7899780273438,581.8281525324146 "/>
   <polygon class="cls-3" id="svg_353" points="656.0499877929688,570.6746581490843 656.0499877929688,592.9816764624429 671,596.6026833942469 679.0900268554688,601.1337877174719 679.0900268554688,585.0086477439181 671,580.4484990165711 683.1400146484375,583.3191675529742 683.1400146484375,599.5411320558342 702.1300048828125,604.1400165042432 702.1300048828125,581.8281525324146 656.0499877929688,570.6746581490843 "/>
  </g>
  <g class="cls-2" id="svg_354" transform="matrix(1 0 0 1 0 0)">
   <polygon class="cls-4" id="svg_355" points="888.3300170898438,581.4069938992961 888.3300170898438,559.0999755859375 934.4199829101562,570.2534995159658 888.3300170898438,581.4069938992961 "/>
   <polygon class="cls-3" id="svg_356" points="888.3300170898438,581.8281525324146 888.3300170898438,604.1400165042432 934.4199829101562,593.068809674809 934.4199829101562,570.7617913614504 888.3300170898438,581.8281525324146 "/>
   <polygon class="cls-3" id="svg_357" points="841.5900268554688,570.6746581490843 841.5900268554688,592.9816764624429 856.5399780273438,596.6026833942469 864.6300048828125,601.1337877174719 864.6300048828125,585.0086477439181 856.5399780273438,580.4484990165711 868.6799926757812,583.3191675529742 868.6799926757812,599.5411320558342 887.6699829101562,604.1400165042432 887.6699829101562,581.8281525324146 841.5900268554688,570.6746581490843 "/>
  </g>
  <g class="cls-2" id="svg_358" transform="matrix(1 0 0 1 0 0)">
   <polygon class="cls-4" id="svg_359" points="1073.8699951171875,580.9117231772834 1073.8699951171875,559.0999755859375 1119.9599609375,570.0058638269547 1073.8699951171875,580.9117231772834 "/>
   <polygon class="cls-3" id="svg_360" points="1073.8699951171875,581.3235310519376 1073.8699951171875,603.1400167162064 1119.9599609375,592.3146179335017 1119.9599609375,570.5028703421558 1073.8699951171875,581.3235310519376 "/>
   <polygon class="cls-3" id="svg_361" points="1027.1300048828125,570.4176717016089 1027.1300048828125,592.2294192929548 1042.0799560546875,595.7700309566717 1050.1700439453125,600.2005336092407 1050.1700439453125,584.4334114399971 1042.0799560546875,579.9745092405792 1054.219970703125,582.7814418684575 1054.219970703125,598.6432388240937 1073.219970703125,603.1400167162064 1073.219970703125,581.3235310519376 1027.1300048828125,570.4176717016089 "/>
  </g>
  <g class="cls-2" id="svg_362" transform="matrix(1 0 0 1 0 0)">
   <polygon class="cls-4" id="svg_363" points="1259.4200439453125,580.9117231772834 1259.4200439453125,559.0999755859375 1305.5,570.0058638269547 1259.4200439453125,580.9117231772834 "/>
   <polygon class="cls-3" id="svg_364" points="1259.4200439453125,581.3235310519376 1259.4200439453125,603.1400167162064 1305.5,592.3146179335017 1305.5,570.5028703421558 1259.4200439453125,581.3235310519376 "/>
   <polygon class="cls-3" id="svg_365" points="1212.6700439453125,570.4176717016089 1212.6700439453125,592.2294192929548 1227.6199951171875,595.7700309566717 1235.719970703125,600.2005336092407 1235.719970703125,584.4334114399971 1227.6199951171875,579.9745092405792 1239.760009765625,582.7814418684575 1239.760009765625,598.6432388240937 1258.760009765625,603.1400167162064 1258.760009765625,581.3235310519376 1212.6700439453125,570.4176717016089 "/>
  </g>
  <g class="cls-2" id="svg_366">
   <polygon class="cls-4" id="svg_367" points="1352.39 93.17 1352.39 47.08 1398.48 70.13 1352.39 93.17"/>
   <polygon class="cls-3" id="svg_368" points="1352.39 94.04 1352.39 140.13 1398.48 117.26 1398.48 71.18 1352.39 94.04"/>
   <polygon class="cls-3" id="svg_369" points="1305.65 71 1305.65 117.08 1320.6 124.56 1328.69 133.92 1328.69 100.61 1320.6 91.19 1332.74 97.12 1332.74 130.63 1351.74 140.13 1351.74 94.04 1305.65 71"/>
  </g>
  <g class="cls-2" id="svg_370">
   <polygon class="cls-4" id="svg_371" points="1352.39 186.41 1352.39 140.32 1398.48 163.36 1352.39 186.41"/>
   <polygon class="cls-3" id="svg_372" points="1352.39 187.28 1352.39 233.36 1398.48 210.5 1398.48 164.42 1352.39 187.28"/>
   <polygon class="cls-3" id="svg_373" points="1305.65 164.24 1305.65 210.32 1320.6 217.8 1328.69 227.16 1328.69 193.84 1320.6 184.42 1332.74 190.36 1332.74 223.86 1351.74 233.36 1351.74 187.28 1305.65 164.24"/>
  </g>
  <g class="cls-2" id="svg_374">
   <polygon class="cls-4" id="svg_375" points="1352.39 279.64 1352.39 233.56 1398.48 256.6 1352.39 279.64"/>
   <polygon class="cls-3" id="svg_376" points="1352.39 280.52 1352.39 326.6 1398.48 303.74 1398.48 257.65 1352.39 280.52"/>
   <polygon class="cls-3" id="svg_377" points="1305.65 257.47 1305.65 303.56 1320.6 311.03 1328.69 320.39 1328.69 287.08 1320.6 277.66 1332.74 283.6 1332.74 317.1 1351.74 326.6 1351.74 280.52 1305.65 257.47"/>
  </g>
  <g class="cls-2" id="svg_378">
   <polygon class="cls-4" id="svg_379" points="1352.39 372.88 1352.39 326.8 1398.48 349.84 1352.39 372.88"/>
   <polygon class="cls-3" id="svg_380" points="1352.39 373.75 1352.39 419.84 1398.48 396.97 1398.48 350.89 1352.39 373.75"/>
   <polygon class="cls-3" id="svg_381" points="1305.65 350.71 1305.65 396.79 1320.6 404.27 1328.69 413.63 1328.69 380.32 1320.6 370.9 1332.74 376.84 1332.74 410.34 1351.74 419.84 1351.74 373.75 1305.65 350.71"/>
  </g>
  <g class="cls-2" id="svg_382">
   <polygon class="cls-4" id="svg_383" points="1352.39 466.12 1352.39 420.03 1398.48 443.07 1352.39 466.12"/>
   <polygon class="cls-3" id="svg_384" points="1352.39 466.99 1352.39 513.07 1398.48 490.21 1398.48 444.13 1352.39 466.99"/>
   <polygon class="cls-3" id="svg_385" points="1305.65 443.95 1305.65 490.03 1320.6 497.51 1328.69 506.87 1328.69 473.56 1320.6 464.14 1332.74 470.07 1332.74 503.58 1351.74 513.07 1351.74 466.99 1305.65 443.95"/>
  </g>
  <g class="cls-2" id="svg_386">
   <polygon class="cls-4" id="svg_387" points="1352.39 559.35 1352.39 513.27 1398.48 536.31 1352.39 559.35"/>
   <polygon class="cls-3" id="svg_388" points="1352.39 560.23 1352.39 606.31 1398.48 583.45 1398.48 537.36 1352.39 560.23"/>
   <polygon class="cls-3" id="svg_389" points="1305.65 537.18 1305.65 583.27 1320.6 590.74 1328.69 600.11 1328.69 566.79 1320.6 557.37 1332.74 563.31 1332.74 596.81 1351.74 606.31 1351.74 560.23 1305.65 537.18"/>
  </g>
  <g class="cls-2" id="svg_390">
   <polygon class="cls-4" id="svg_391" points="1445.1700439453125,70.30700172375282 1445.1700439453125,47.9999990368151 1491.25,59.15350038028396 1445.1700439453125,70.30700172375282 "/>
   <polygon class="cls-3" id="svg_392" points="1445.1700439453125,70.73300216464827 1445.1700439453125,93.04000485158599 1491.25,81.97364038163391 1491.25,59.66663861803016 1445.1700439453125,70.73300216464827 "/>
   <polygon class="cls-3" id="svg_393" points="1398.4200439453125,59.57466070450312 1398.4200439453125,81.88650350811713 1413.3699951171875,85.50267821905982 1421.469970703125,90.03862652526914 1421.469970703125,73.90865239133075 1413.3699951171875,69.3484961150682 1425.510009765625,72.22400924778617 1425.510009765625,88.44112210190929 1444.510009765625,93.04000485158599 1444.510009765625,70.73300216464827 1398.4200439453125,59.57466070450312 "/>
  </g>
  <g class="cls-2" id="svg_394">
   <polygon class="cls-4" id="svg_395" points="1445.17 139.32 1445.17 93.24 1491.25 116.28 1445.17 139.32"/>
   <polygon class="cls-3" id="svg_396" points="1445.17 140.19 1445.17 186.28 1491.25 163.42 1491.25 117.33 1445.17 140.19"/>
   <polygon class="cls-3" id="svg_397" points="1398.42 117.15 1398.42 163.24 1413.37 170.71 1421.47 180.07 1421.47 146.76 1413.37 137.34 1425.51 143.28 1425.51 176.78 1444.51 186.28 1444.51 140.19 1398.42 117.15"/>
  </g>
  <g class="cls-2" id="svg_398">
   <polygon class="cls-4" id="svg_399" points="1445.17 232.56 1445.17 186.47 1491.25 209.52 1445.17 232.56"/>
   <polygon class="cls-3" id="svg_400" points="1445.17 233.43 1445.17 279.52 1491.25 256.65 1491.25 210.57 1445.17 233.43"/>
   <polygon class="cls-3" id="svg_401" points="1398.42 210.39 1398.42 256.47 1413.37 263.95 1421.47 273.31 1421.47 240 1413.37 230.58 1425.51 236.51 1425.51 270.02 1444.51 279.52 1444.51 233.43 1398.42 210.39"/>
  </g>
  <g class="cls-2" id="svg_402">
   <polygon class="cls-4" id="svg_403" points="1445.17 325.8 1445.17 279.71 1491.25 302.75 1445.17 325.8"/>
   <polygon class="cls-3" id="svg_404" points="1445.17 326.67 1445.17 372.75 1491.25 349.89 1491.25 303.81 1445.17 326.67"/>
   <polygon class="cls-3" id="svg_405" points="1398.42 303.63 1398.42 349.71 1413.37 357.19 1421.47 366.55 1421.47 333.23 1413.37 323.81 1425.51 329.75 1425.51 363.25 1444.51 372.75 1444.51 326.67 1398.42 303.63"/>
  </g>
  <g class="cls-2" id="svg_406">
   <polygon class="cls-4" id="svg_407" points="1445.17 419.03 1445.17 372.95 1491.25 395.99 1445.17 419.03"/>
   <polygon class="cls-3" id="svg_408" points="1445.17 419.91 1445.17 465.99 1491.25 443.13 1491.25 397.04 1445.17 419.91"/>
   <polygon class="cls-3" id="svg_409" points="1398.42 396.86 1398.42 442.95 1413.37 450.42 1421.47 459.78 1421.47 426.47 1413.37 417.05 1425.51 422.99 1425.51 456.49 1444.51 465.99 1444.51 419.91 1398.42 396.86"/>
  </g>
  <g class="cls-2" id="svg_410">
   <polygon class="cls-4" id="svg_411" points="1445.17 512.27 1445.17 466.19 1491.25 489.23 1445.17 512.27"/>
   <polygon class="cls-3" id="svg_412" points="1445.17 513.14 1445.17 559.23 1491.25 536.36 1491.25 490.28 1445.17 513.14"/>
   <polygon class="cls-3" id="svg_413" points="1398.42 490.1 1398.42 536.18 1413.37 543.66 1421.47 553.02 1421.47 519.71 1413.37 510.29 1425.51 516.22 1425.51 549.73 1444.51 559.23 1444.51 513.14 1398.42 490.1"/>
  </g>
  <g class="cls-2" id="svg_414">
   <polygon class="cls-4" id="svg_415" points="1537.94 93.17 1537.94 47.08 1584.02 70.13 1537.94 93.17"/>
   <polygon class="cls-3" id="svg_416" points="1537.94 94.04 1537.94 140.13 1584.02 117.26 1584.02 71.18 1537.94 94.04"/>
   <polygon class="cls-3" id="svg_417" points="1491.19 71 1491.19 117.08 1506.14 124.56 1514.24 133.92 1514.24 100.61 1506.14 91.19 1518.28 97.12 1518.28 130.63 1537.28 140.13 1537.28 94.04 1491.19 71"/>
  </g>
  <g class="cls-2" id="svg_418">
   <polygon class="cls-4" id="svg_419" points="1537.94 186.41 1537.94 140.32 1584.02 163.36 1537.94 186.41"/>
   <polygon class="cls-3" id="svg_420" points="1537.94 187.28 1537.94 233.36 1584.02 210.5 1584.02 164.42 1537.94 187.28"/>
   <polygon class="cls-3" id="svg_421" points="1491.19 164.24 1491.19 210.32 1506.14 217.8 1514.24 227.16 1514.24 193.84 1506.14 184.42 1518.28 190.36 1518.28 223.86 1537.28 233.36 1537.28 187.28 1491.19 164.24"/>
  </g>
  <g class="cls-2" id="svg_422">
   <polygon class="cls-4" id="svg_423" points="1537.94 279.64 1537.94 233.56 1584.02 256.6 1537.94 279.64"/>
   <polygon class="cls-3" id="svg_424" points="1537.94 280.52 1537.94 326.6 1584.02 303.74 1584.02 257.65 1537.94 280.52"/>
   <polygon class="cls-3" id="svg_425" points="1491.19 257.47 1491.19 303.56 1506.14 311.03 1514.24 320.39 1514.24 287.08 1506.14 277.66 1518.28 283.6 1518.28 317.1 1537.28 326.6 1537.28 280.52 1491.19 257.47"/>
  </g>
  <g class="cls-2" id="svg_426">
   <polygon class="cls-4" id="svg_427" points="1537.94 372.88 1537.94 326.8 1584.02 349.84 1537.94 372.88"/>
   <polygon class="cls-3" id="svg_428" points="1537.94 373.75 1537.94 419.84 1584.02 396.97 1584.02 350.89 1537.94 373.75"/>
   <polygon class="cls-3" id="svg_429" points="1491.19 350.71 1491.19 396.79 1506.14 404.27 1514.24 413.63 1514.24 380.32 1506.14 370.9 1518.28 376.84 1518.28 410.34 1537.28 419.84 1537.28 373.75 1491.19 350.71"/>
  </g>
  <g class="cls-2" id="svg_430">
   <polygon class="cls-4" id="svg_431" points="1537.94 466.12 1537.94 420.03 1584.02 443.07 1537.94 466.12"/>
   <polygon class="cls-3" id="svg_432" points="1537.94 466.99 1537.94 513.07 1584.02 490.21 1584.02 444.13 1537.94 466.99"/>
   <polygon class="cls-3" id="svg_433" points="1491.19 443.95 1491.19 490.03 1506.14 497.51 1514.24 506.87 1514.24 473.56 1506.14 464.14 1518.28 470.07 1518.28 503.58 1537.28 513.07 1537.28 466.99 1491.19 443.95"/>
  </g>
  <g class="cls-2" id="svg_434">
   <polygon class="cls-4" id="svg_435" points="1537.94 559.35 1537.94 513.27 1584.02 536.31 1537.94 559.35"/>
   <polygon class="cls-3" id="svg_436" points="1537.94 560.23 1537.94 606.31 1584.02 583.45 1584.02 537.36 1537.94 560.23"/>
   <polygon class="cls-3" id="svg_437" points="1491.19 537.18 1491.19 583.27 1506.14 590.74 1514.24 600.11 1514.24 566.79 1506.14 557.37 1518.28 563.31 1518.28 596.81 1537.28 606.31 1537.28 560.23 1491.19 537.18"/>
  </g>
  <g class="cls-2" id="svg_438">
   <polygon class="cls-4" id="svg_439" points="1630.7099609375,70.30700172375282 1630.7099609375,47.9999990368151 1676.7900390625,59.15350038028396 1630.7099609375,70.30700172375282 "/>
   <polygon class="cls-3" id="svg_440" points="1630.7099609375,70.73300216464827 1630.7099609375,93.04000485158599 1676.7900390625,81.97364038163391 1676.7900390625,59.66663861803016 1630.7099609375,70.73300216464827 "/>
   <polygon class="cls-3" id="svg_441" points="1583.969970703125,59.57466070450312 1583.969970703125,81.88650350811713 1598.9200439453125,85.50267821905982 1607.010009765625,90.03862652526914 1607.010009765625,73.90865239133075 1598.9200439453125,69.3484961150682 1611.050048828125,72.22400924778617 1611.050048828125,88.44112210190929 1630.050048828125,93.04000485158599 1630.050048828125,70.73300216464827 1583.969970703125,59.57466070450312 "/>
  </g>
  <g class="cls-2" id="svg_442">
   <polygon class="cls-4" id="svg_443" points="1630.71 139.32 1630.71 93.24 1676.79 116.28 1630.71 139.32"/>
   <polygon class="cls-3" id="svg_444" points="1630.71 140.19 1630.71 186.28 1676.79 163.42 1676.79 117.33 1630.71 140.19"/>
   <polygon class="cls-3" id="svg_445" points="1583.97 117.15 1583.97 163.24 1598.92 170.71 1607.01 180.07 1607.01 146.76 1598.92 137.34 1611.05 143.28 1611.05 176.78 1630.05 186.28 1630.05 140.19 1583.97 117.15"/>
  </g>
  <g class="cls-2" id="svg_446">
   <polygon class="cls-4" id="svg_447" points="1630.71 232.56 1630.71 186.47 1676.79 209.52 1630.71 232.56"/>
   <polygon class="cls-3" id="svg_448" points="1630.71 233.43 1630.71 279.52 1676.79 256.65 1676.79 210.57 1630.71 233.43"/>
   <polygon class="cls-3" id="svg_449" points="1583.97 210.39 1583.97 256.47 1598.92 263.95 1607.01 273.31 1607.01 240 1598.92 230.58 1611.05 236.51 1611.05 270.02 1630.05 279.52 1630.05 233.43 1583.97 210.39"/>
  </g>
  <g class="cls-2" id="svg_450">
   <polygon class="cls-4" id="svg_451" points="1630.71 325.8 1630.71 279.71 1676.79 302.75 1630.71 325.8"/>
   <polygon class="cls-3" id="svg_452" points="1630.71 326.67 1630.71 372.75 1676.79 349.89 1676.79 303.81 1630.71 326.67"/>
   <polygon class="cls-3" id="svg_453" points="1583.97 303.63 1583.97 349.71 1598.92 357.19 1607.01 366.55 1607.01 333.23 1598.92 323.81 1611.05 329.75 1611.05 363.25 1630.05 372.75 1630.05 326.67 1583.97 303.63"/>
  </g>
  <g class="cls-2" id="svg_454">
   <polygon class="cls-4" id="svg_455" points="1630.71 419.03 1630.71 372.95 1676.79 395.99 1630.71 419.03"/>
   <polygon class="cls-3" id="svg_456" points="1630.71 419.91 1630.71 465.99 1676.79 443.13 1676.79 397.04 1630.71 419.91"/>
   <polygon class="cls-3" id="svg_457" points="1583.97 396.86 1583.97 442.95 1598.92 450.42 1607.01 459.78 1607.01 426.47 1598.92 417.05 1611.05 422.99 1611.05 456.49 1630.05 465.99 1630.05 419.91 1583.97 396.86"/>
  </g>
  <g class="cls-2" id="svg_458">
   <polygon class="cls-4" id="svg_459" points="1630.71 512.27 1630.71 466.19 1676.79 489.23 1630.71 512.27"/>
   <polygon class="cls-3" id="svg_460" points="1630.71 513.14 1630.71 559.23 1676.79 536.36 1676.79 490.28 1630.71 513.14"/>
   <polygon class="cls-3" id="svg_461" points="1583.97 490.1 1583.97 536.18 1598.92 543.66 1607.01 553.02 1607.01 519.71 1598.92 510.29 1611.05 516.22 1611.05 549.73 1630.05 559.23 1630.05 513.14 1583.97 490.1"/>
  </g>
  <g class="cls-2" id="svg_462">
   <polygon class="cls-4" id="svg_463" points="1723.48 93.17 1723.48 47.08 1769.56 70.13 1723.48 93.17"/>
   <polygon class="cls-3" id="svg_464" points="1723.48 94.04 1723.48 140.13 1769.56 117.26 1769.56 71.18 1723.48 94.04"/>
   <polygon class="cls-3" id="svg_465" points="1676.74 71 1676.74 117.08 1691.69 124.56 1699.78 133.92 1699.78 100.61 1691.69 91.19 1703.82 97.12 1703.82 130.63 1722.82 140.13 1722.82 94.04 1676.74 71"/>
  </g>
  <g class="cls-2" id="svg_466">
   <polygon class="cls-4" id="svg_467" points="1723.48 186.41 1723.48 140.32 1769.56 163.36 1723.48 186.41"/>
   <polygon class="cls-3" id="svg_468" points="1723.48 187.28 1723.48 233.36 1769.56 210.5 1769.56 164.42 1723.48 187.28"/>
   <polygon class="cls-3" id="svg_469" points="1676.74 164.24 1676.74 210.32 1691.69 217.8 1699.78 227.16 1699.78 193.84 1691.69 184.42 1703.82 190.36 1703.82 223.86 1722.82 233.36 1722.82 187.28 1676.74 164.24"/>
  </g>
  <g class="cls-2" id="svg_470">
   <polygon class="cls-4" id="svg_471" points="1723.48 279.64 1723.48 233.56 1769.56 256.6 1723.48 279.64"/>
   <polygon class="cls-3" id="svg_472" points="1723.48 280.52 1723.48 326.6 1769.56 303.74 1769.56 257.65 1723.48 280.52"/>
   <polygon class="cls-3" id="svg_473" points="1676.74 257.47 1676.74 303.56 1691.69 311.03 1699.78 320.39 1699.78 287.08 1691.69 277.66 1703.82 283.6 1703.82 317.1 1722.82 326.6 1722.82 280.52 1676.74 257.47"/>
  </g>
  <g class="cls-2" id="svg_474">
   <polygon class="cls-4" id="svg_475" points="1723.48 372.88 1723.48 326.8 1769.56 349.84 1723.48 372.88"/>
   <polygon class="cls-3" id="svg_476" points="1723.48 373.75 1723.48 419.84 1769.56 396.97 1769.56 350.89 1723.48 373.75"/>
   <polygon class="cls-3" id="svg_477" points="1676.74 350.71 1676.74 396.79 1691.69 404.27 1699.78 413.63 1699.78 380.32 1691.69 370.9 1703.82 376.84 1703.82 410.34 1722.82 419.84 1722.82 373.75 1676.74 350.71"/>
  </g>
  <g class="cls-2" id="svg_478">
   <polygon class="cls-4" id="svg_479" points="1723.48 466.12 1723.48 420.03 1769.56 443.07 1723.48 466.12"/>
   <polygon class="cls-3" id="svg_480" points="1723.48 466.99 1723.48 513.07 1769.56 490.21 1769.56 444.13 1723.48 466.99"/>
   <polygon class="cls-3" id="svg_481" points="1676.74 443.95 1676.74 490.03 1691.69 497.51 1699.78 506.87 1699.78 473.56 1691.69 464.14 1703.82 470.07 1703.82 503.58 1722.82 513.07 1722.82 466.99 1676.74 443.95"/>
  </g>
  <g class="cls-2" id="svg_482">
   <polygon class="cls-4" id="svg_483" points="1723.48 559.35 1723.48 513.27 1769.56 536.31 1723.48 559.35"/>
   <polygon class="cls-3" id="svg_484" points="1723.48 560.23 1723.48 606.31 1769.56 583.45 1769.56 537.36 1723.48 560.23"/>
   <polygon class="cls-3" id="svg_485" points="1676.74 537.18 1676.74 583.27 1691.69 590.74 1699.78 600.11 1699.78 566.79 1691.69 557.37 1703.82 563.31 1703.82 596.81 1722.82 606.31 1722.82 560.23 1676.74 537.18"/>
  </g>
  <g class="cls-2" id="svg_486">
   <polygon class="cls-4" id="svg_487" points="1816.25,69.8022728217311 1816.25,46.99999957678301 1862.3299560546875,58.40113619925705 1816.25,69.8022728217311 "/>
   <polygon class="cls-3" id="svg_488" points="1816.25,70.23773152463673 1816.25,93.04000476958481 1862.3299560546875,81.72793967444795 1862.3299560546875,58.925667373334136 1816.25,70.23773152463673 "/>
   <polygon class="cls-3" id="svg_489" points="1769.510009765625,58.83164732294108 1769.510009765625,81.63886814711077 1784.4599609375,85.33533086859825 1792.550048828125,89.97198843101069 1792.550048828125,73.48388903021669 1784.4599609375,68.82248602102209 1796.5899658203125,71.76184264781205 1796.5899658203125,88.33901546361176 1815.5899658203125,93.04000476958481 1815.5899658203125,70.23773152463673 1769.510009765625,58.83164732294108 "/>
  </g>
  <g class="cls-2" id="svg_490">
   <polygon class="cls-4" id="svg_491" points="1816.25 139.32 1816.25 93.24 1862.33 116.28 1816.25 139.32"/>
   <polygon class="cls-3" id="svg_492" points="1816.25 140.19 1816.25 186.28 1862.33 163.42 1862.33 117.33 1816.25 140.19"/>
   <polygon class="cls-3" id="svg_493" points="1769.51 117.15 1769.51 163.24 1784.46 170.71 1792.55 180.07 1792.55 146.76 1784.46 137.34 1796.59 143.28 1796.59 176.78 1815.59 186.28 1815.59 140.19 1769.51 117.15"/>
  </g>
  <g class="cls-2" id="svg_494">
   <polygon class="cls-4" id="svg_495" points="1816.25 232.56 1816.25 186.47 1862.33 209.52 1816.25 232.56"/>
   <polygon class="cls-3" id="svg_496" points="1816.25 233.43 1816.25 279.52 1862.33 256.65 1862.33 210.57 1816.25 233.43"/>
   <polygon class="cls-3" id="svg_497" points="1769.51 210.39 1769.51 256.47 1784.46 263.95 1792.55 273.31 1792.55 240 1784.46 230.58 1796.59 236.51 1796.59 270.02 1815.59 279.52 1815.59 233.43 1769.51 210.39"/>
  </g>
  <g class="cls-2" id="svg_498">
   <polygon class="cls-4" id="svg_499" points="1816.25 325.8 1816.25 279.71 1862.33 302.75 1816.25 325.8"/>
   <polygon class="cls-3" id="svg_500" points="1816.25 326.67 1816.25 372.75 1862.33 349.89 1862.33 303.81 1816.25 326.67"/>
   <polygon class="cls-3" id="svg_501" points="1769.51 303.63 1769.51 349.71 1784.46 357.19 1792.55 366.55 1792.55 333.23 1784.46 323.81 1796.59 329.75 1796.59 363.25 1815.59 372.75 1815.59 326.67 1769.51 303.63"/>
  </g>
  <g class="cls-2" id="svg_502">
   <polygon class="cls-4" id="svg_503" points="1816.25 419.03 1816.25 372.95 1862.33 395.99 1816.25 419.03"/>
   <polygon class="cls-3" id="svg_504" points="1816.25 419.91 1816.25 465.99 1862.33 443.13 1862.33 397.04 1816.25 419.91"/>
   <polygon class="cls-3" id="svg_505" points="1769.51 396.86 1769.51 442.95 1784.46 450.42 1792.55 459.78 1792.55 426.47 1784.46 417.05 1796.59 422.99 1796.59 456.49 1815.59 465.99 1815.59 419.91 1769.51 396.86"/>
  </g>
  <g class="cls-2" id="svg_506">
   <polygon class="cls-4" id="svg_507" points="1816.25 512.27 1816.25 466.19 1862.33 489.23 1816.25 512.27"/>
   <polygon class="cls-3" id="svg_508" points="1816.25 513.14 1816.25 559.23 1862.33 536.36 1862.33 490.28 1816.25 513.14"/>
   <polygon class="cls-3" id="svg_509" points="1769.51 490.1 1769.51 536.18 1784.46 543.66 1792.55 553.02 1792.55 519.71 1784.46 510.29 1796.59 516.22 1796.59 549.73 1815.59 559.23 1815.59 513.14 1769.51 490.1"/>
  </g>
  <g class="cls-2" id="svg_510">
   <polygon class="cls-4" id="svg_511" points="1890.3884684652148,93.16999816894531 1890.3884684652148,47.08000183105469 1918.0999770716153,70.12999725341797 1890.3884684652148,93.16999816894531 "/>
   <polygon class="cls-3" id="svg_512" points="1890.3884684652148,94.04000091552734 1890.3884684652148,140.1300048828125 1918.0999770716153,117.26000213623047 1918.0999770716153,71.18000030517578 1890.3884684652148,94.04000091552734 "/>
   <polygon class="cls-3" id="svg_513" points="1862.280029296875,71 1862.280029296875,117.08000183105469 1871.2706129700236,124.55999755859375 1876.1357468948263,133.9199981689453 1876.1357468948263,100.61000061035156 1871.2706129700236,91.19000244140625 1878.571360392889,97.12000274658203 1878.571360392889,130.6300048828125 1889.9915379032755,140.1300048828125 1889.9915379032755,94.04000091552734 1862.280029296875,71 "/>
  </g>
  <g class="cls-2" id="svg_514">
   <polygon class="cls-4" id="svg_515" points="1890.8920235982514,186.41000366210938 1890.8920235982514,140.32000732421875 1919.0999764333537,163.36000061035156 1890.8920235982514,186.41000366210938 "/>
   <polygon class="cls-3" id="svg_516" points="1890.8920235982514,187.27999877929688 1890.8920235982514,233.36000061035156 1919.0999764333537,210.5 1919.0999764333537,164.4199981689453 1890.8920235982514,187.27999877929688 "/>
   <polygon class="cls-3" id="svg_517" points="1862.280029296875,164.24000549316406 1862.280029296875,210.32000732421875 1871.431676860142,217.8000030517578 1876.3839683516126,227.16000366210938 1876.3839683516126,193.83999633789062 1871.431676860142,184.4199981689453 1878.8632152108767,190.36000061035156 1878.8632152108767,223.86000061035156 1890.4879821319773,233.36000061035156 1890.4879821319773,187.27999877929688 1862.280029296875,164.24000549316406 "/>
  </g>
  <g class="cls-2" id="svg_518">
   <polygon class="cls-4" id="svg_519" points="1890.3884684652148,279.6400146484375 1890.3884684652148,233.55999755859375 1918.0999770716153,256.6000061035156 1890.3884684652148,279.6400146484375 "/>
   <polygon class="cls-3" id="svg_520" points="1890.3884684652148,280.5199890136719 1890.3884684652148,326.6000061035156 1918.0999770716153,303.739990234375 1918.0999770716153,257.6499938964844 1890.3884684652148,280.5199890136719 "/>
   <polygon class="cls-3" id="svg_521" points="1862.280029296875,257.4700012207031 1862.280029296875,303.55999755859375 1871.2706129700236,311.0299987792969 1876.1357468948263,320.3900146484375 1876.1357468948263,287.0799865722656 1871.2706129700236,277.6600036621094 1878.571360392889,283.6000061035156 1878.571360392889,317.1000061035156 1889.9915379032755,326.6000061035156 1889.9915379032755,280.5199890136719 1862.280029296875,257.4700012207031 "/>
  </g>
  <g class="cls-2" id="svg_522" transform="matrix(1 0 0 1 0 0)">
   <polygon class="cls-4" id="svg_523" points="1890.3884684652148,372.8800048828125 1890.3884684652148,326.79998779296875 1918.0999770716153,349.8399963378906 1890.3884684652148,372.8800048828125 "/>
   <polygon class="cls-3" id="svg_524" points="1890.3884684652148,373.75 1890.3884684652148,419.8399963378906 1918.0999770716153,396.9700012207031 1918.0999770716153,350.8900146484375 1890.3884684652148,373.75 "/>
   <polygon class="cls-3" id="svg_525" points="1862.280029296875,350.7099914550781 1862.280029296875,396.7900085449219 1871.2706129700236,404.2699890136719 1876.1357468948263,413.6300048828125 1876.1357468948263,380.32000732421875 1871.2706129700236,370.8999938964844 1878.571360392889,376.8399963378906 1878.571360392889,410.3399963378906 1889.9915379032755,419.8399963378906 1889.9915379032755,373.75 1862.280029296875,350.7099914550781 "/>
  </g>
  <g class="cls-2" id="svg_526">
   <polygon class="cls-4" id="svg_527" points="1890.3884684652148,466.1199951171875 1890.3884684652148,420.0299987792969 1918.0999770716153,443.07000732421875 1890.3884684652148,466.1199951171875 "/>
   <polygon class="cls-3" id="svg_528" points="1890.3884684652148,466.989990234375 1890.3884684652148,513.0700073242188 1918.0999770716153,490.2099914550781 1918.0999770716153,444.1300048828125 1890.3884684652148,466.989990234375 "/>
   <polygon class="cls-3" id="svg_529" points="1862.280029296875,443.95001220703125 1862.280029296875,490.0299987792969 1871.2706129700236,497.510009765625 1876.1357468948263,506.8699951171875 1876.1357468948263,473.55999755859375 1871.2706129700236,464.1400146484375 1878.571360392889,470.07000732421875 1878.571360392889,503.5799865722656 1889.9915379032755,513.0700073242188 1889.9915379032755,466.989990234375 1862.280029296875,443.95001220703125 "/>
  </g>
  <g class="cls-2" id="svg_530" transform="matrix(1 0 0 1 0 0)">
   <polygon class="cls-4" id="svg_531" points="1890.8920235982514,559.3499755859375 1890.8920235982514,513.27001953125 1919.0999764333537,536.3099975585938 1890.8920235982514,559.3499755859375 "/>
   <polygon class="cls-3" id="svg_532" points="1890.8920235982514,560.22998046875 1890.8920235982514,606.3099975585938 1919.0999764333537,583.4500122070312 1919.0999764333537,537.3599853515625 1890.8920235982514,560.22998046875 "/>
   <polygon class="cls-3" id="svg_533" points="1862.280029296875,537.1799926757812 1862.280029296875,583.27001953125 1871.431676860142,590.739990234375 1876.3839683516126,600.1099853515625 1876.3839683516126,566.7899780273438 1871.431676860142,557.3699951171875 1878.8632152108767,563.3099975585938 1878.8632152108767,596.8099975585938 1890.4879821319773,606.3099975585938 1890.4879821319773,560.22998046875 1862.280029296875,537.1799926757812 "/>
  </g>
  <g class="cls-2" id="svg_534">
   <polygon class="cls-4" id="svg_535" points="1445.1700439453125,581.4069938992961 1445.1700439453125,559.0999755859375 1491.25,570.2534995159658 1445.1700439453125,581.4069938992961 "/>
   <polygon class="cls-3" id="svg_536" points="1445.1700439453125,581.8281525324146 1445.1700439453125,604.1400165042432 1491.25,593.068809674809 1491.25,570.7617913614504 1445.1700439453125,581.8281525324146 "/>
   <polygon class="cls-3" id="svg_537" points="1398.4200439453125,570.6746581490843 1398.4200439453125,592.9816764624429 1413.3699951171875,596.6026833942469 1421.469970703125,601.1337877174719 1421.469970703125,585.0086477439181 1413.3699951171875,580.4484990165711 1425.510009765625,583.3191675529742 1425.510009765625,599.5411320558342 1444.510009765625,604.1400165042432 1444.510009765625,581.8281525324146 1398.4200439453125,570.6746581490843 "/>
  </g>
  <g class="cls-2" id="svg_538" transform="matrix(1 0 0 1 0 0)">
   <polygon class="cls-4" id="svg_539" points="1630.7099609375,581.4069845116246 1630.7099609375,559.0999755859375 1676.7900390625,570.2535119844615 1630.7099609375,581.4069845116246 "/>
   <polygon class="cls-3" id="svg_540" points="1630.7099609375,581.8281522654506 1630.7099609375,604.1400154145667 1676.7900390625,593.0688092002529 1676.7900390625,570.7618002745658 1630.7099609375,581.8281522654506 "/>
   <polygon class="cls-3" id="svg_541" points="1583.969970703125,570.6746797382875 1583.969970703125,592.9816886639746 1598.9200439453125,596.6026838565595 1607.010009765625,601.1337820707195 1607.010009765625,585.0086266818544 1598.9200439453125,580.4484669984813 1611.050048828125,583.3191653144822 1611.050048828125,599.5411496864835 1630.050048828125,604.1400154145667 1630.050048828125,581.8281522654506 1583.969970703125,570.6746797382875 "/>
  </g>
  <g class="cls-2" id="svg_542">
   <polygon class="cls-4" id="svg_543" points="1816.25,581.9022646213089 1816.25,559.0999755859375 1862.3299560546875,570.5011352049769 1816.25,581.9022646213089 "/>
   <polygon class="cls-3" id="svg_544" points="1816.25,582.3327740128916 1816.25,605.14001629228 1862.3299560546875,593.8230014161163 1862.3299560546875,571.020712380745 1816.25,582.3327740128916 "/>
   <polygon class="cls-3" id="svg_545" points="1769.510009765625,570.9316445965596 1769.510009765625,593.733933631931 1784.4599609375,597.4353358318222 1792.550048828125,602.0670418257032 1792.550048828125,585.5838840478391 1784.4599609375,580.922488792563 1796.5899658203125,583.856893237491 1796.5899658203125,600.4390252875746 1815.5899658203125,605.14001629228 1815.5899658203125,582.3327740128916 1769.510009765625,570.9316445965596 "/>
  </g>
 </g>
</svg>