<?xml version="1.0" encoding="utf-8"?>
<!-- Generator: Adobe Illustrator 26.0.1, SVG Export Plug-In . SVG Version: 6.00 Build 0)  -->
<svg version="1.1" id="Layer_1" xmlns="http://www.w3.org/2000/svg" xmlns:xlink="http://www.w3.org/1999/xlink" x="0px" y="0px"
	 viewBox="0 0 1920 1080" style="enable-background:new 0 0 1920 1080;" xml:space="preserve">
<style type="text/css">
	.st0{opacity:5.000000e-02;}
	.st1{fill:#B5B7AF;}
	.st2{fill:#6F7073;}
</style>
<g class="st0">
	<polygon class="st1" points="52.9,51.2 52.9,5.1 99,28.1 	"/>
	<polygon class="st2" points="52.9,52 52.9,98.1 99,75.3 99,29.2 	"/>
	<polygon points="6.2,29 6.2,75.1 21.1,82.6 29.2,91.9 29.2,58.6 21.1,49.2 33.2,55.1 33.2,88.6 52.2,98.1 52.2,52 	"/>
</g>
<g class="st0">
	<polygon class="st1" points="52.9,144.4 52.9,98.3 99,121.4 	"/>
	<polygon class="st2" points="52.9,145.3 52.9,191.4 99,168.5 99,122.4 	"/>
	<polygon points="6.2,122.2 6.2,168.3 21.1,175.8 29.2,185.2 29.2,151.8 21.1,142.4 33.2,148.4 33.2,181.9 52.2,191.4 52.2,145.3 	
		"/>
</g>
<g class="st0">
	<polygon class="st1" points="52.9,237.6 52.9,191.6 99,214.6 	"/>
	<polygon class="st2" points="52.9,238.5 52.9,284.6 99,261.7 99,215.6 	"/>
	<polygon points="6.2,215.5 6.2,261.6 21.1,269 29.2,278.4 29.2,245.1 21.1,235.7 33.2,241.6 33.2,275.1 52.2,284.6 52.2,238.5 	"/>
</g>
<g class="st0">
	<polygon class="st1" points="52.9,330.9 52.9,284.8 99,307.8 	"/>
	<polygon class="st2" points="52.9,331.8 52.9,377.8 99,355 99,308.9 	"/>
	<polygon points="6.2,308.7 6.2,354.8 21.1,362.3 29.2,371.6 29.2,338.3 21.1,328.9 33.2,334.8 33.2,368.3 52.2,377.8 52.2,331.8 	
		"/>
</g>
<g class="st0">
	<polygon class="st1" points="52.9,424.1 52.9,378 99,401.1 	"/>
	<polygon class="st2" points="52.9,425 52.9,471.1 99,448.2 99,402.1 	"/>
	<polygon points="6.2,402 6.2,448 21.1,455.5 29.2,464.9 29.2,431.6 21.1,422.1 33.2,428.1 33.2,461.6 52.2,471.1 52.2,425 	"/>
</g>
<g class="st0">
	<polygon class="st1" points="52.9,517.3 52.9,471.3 99,494.3 	"/>
	<polygon class="st2" points="52.9,518.2 52.9,564.3 99,541.5 99,495.4 	"/>
	<polygon points="6.2,495.2 6.2,541.3 21.1,548.7 29.2,558.1 29.2,524.8 21.1,515.4 33.2,521.3 33.2,554.8 52.2,564.3 52.2,518.2 	
		"/>
</g>
<g class="st0">
	<polygon class="st1" points="145.7,4.1 145.7,-42 191.8,-19 	"/>
	<polygon class="st2" points="145.7,5 145.7,51 191.8,28.2 191.8,-17.9 	"/>
	<polygon points="98.9,-18.1 98.9,28 113.9,35.5 122,44.8 122,11.5 113.9,2.1 126,8 126,41.5 145,51 145,5 	"/>
</g>
<g class="st0">
	<polygon class="st1" points="145.7,97.3 145.7,51.2 191.8,74.3 	"/>
	<polygon class="st2" points="145.7,98.2 145.7,144.3 191.8,121.4 191.8,75.3 	"/>
	<polygon points="98.9,75.2 98.9,121.2 113.9,128.7 122,138.1 122,104.8 113.9,95.3 126,101.3 126,134.8 145,144.3 145,98.2 	"/>
</g>
<g class="st0">
	<polygon class="st1" points="145.7,190.6 145.7,144.5 191.8,167.5 	"/>
	<polygon class="st2" points="145.7,191.4 145.7,237.5 191.8,214.6 191.8,168.6 	"/>
	<polygon points="98.9,168.4 98.9,214.5 113.9,221.9 122,231.3 122,198 113.9,188.6 126,194.5 126,228 145,237.5 145,191.4 	"/>
</g>
<g class="st0">
	<polygon class="st1" points="145.7,283.8 145.7,237.7 191.8,260.8 	"/>
	<polygon class="st2" points="145.7,284.7 145.7,330.8 191.8,307.9 191.8,261.8 	"/>
	<polygon points="98.9,261.6 98.9,307.7 113.9,315.2 122,324.5 122,291.2 113.9,281.8 126,287.8 126,321.2 145,330.8 145,284.7 	"/>
</g>
<g class="st0">
	<polygon class="st1" points="145.7,377 145.7,331 191.8,354 	"/>
	<polygon class="st2" points="145.7,377.9 145.7,424 191.8,401.1 191.8,355 	"/>
	<polygon points="98.9,354.9 98.9,401 113.9,408.4 122,417.8 122,384.5 113.9,375 126,381 126,414.5 145,424 145,377.9 	"/>
</g>
<g class="st0">
	<polygon class="st1" points="145.7,470.3 145.7,424.2 191.8,447.2 	"/>
	<polygon class="st2" points="145.7,471.1 145.7,517.2 191.8,494.4 191.8,448.3 	"/>
	<polygon points="98.9,448.1 98.9,494.2 113.9,501.7 122,511 122,477.7 113.9,468.3 126,474.2 126,507.7 145,517.2 145,471.1 	"/>
</g>
<g class="st0">
	<polygon class="st1" points="238.4,51.2 238.4,5.1 284.5,28.1 	"/>
	<polygon class="st2" points="238.4,52 238.4,98.1 284.5,75.3 284.5,29.2 	"/>
	<polygon points="191.7,29 191.7,75.1 206.6,82.6 214.7,91.9 214.7,58.6 206.6,49.2 218.8,55.1 218.8,88.6 237.8,98.1 237.8,52 	"/>
</g>
<g class="st0">
	<polygon class="st1" points="238.4,144.4 238.4,98.3 284.5,121.4 	"/>
	<polygon class="st2" points="238.4,145.3 238.4,191.4 284.5,168.5 284.5,122.4 	"/>
	<polygon points="191.7,122.2 191.7,168.3 206.6,175.8 214.7,185.2 214.7,151.8 206.6,142.4 218.8,148.4 218.8,181.9 237.8,191.4 
		237.8,145.3 	"/>
</g>
<g class="st0">
	<polygon class="st1" points="238.4,237.6 238.4,191.6 284.5,214.6 	"/>
	<polygon class="st2" points="238.4,238.5 238.4,284.6 284.5,261.7 284.5,215.6 	"/>
	<polygon points="191.7,215.5 191.7,261.6 206.6,269 214.7,278.4 214.7,245.1 206.6,235.7 218.8,241.6 218.8,275.1 237.8,284.6 
		237.8,238.5 	"/>
</g>
<g class="st0">
	<polygon class="st1" points="238.4,330.9 238.4,284.8 284.5,307.8 	"/>
	<polygon class="st2" points="238.4,331.8 238.4,377.8 284.5,355 284.5,308.9 	"/>
	<polygon points="191.7,308.7 191.7,354.8 206.6,362.3 214.7,371.6 214.7,338.3 206.6,328.9 218.8,334.8 218.8,368.3 237.8,377.8 
		237.8,331.8 	"/>
</g>
<g class="st0">
	<polygon class="st1" points="238.4,424.1 238.4,378 284.5,401.1 	"/>
	<polygon class="st2" points="238.4,425 238.4,471.1 284.5,448.2 284.5,402.1 	"/>
	<polygon points="191.7,402 191.7,448 206.6,455.5 214.7,464.9 214.7,431.6 206.6,422.1 218.8,428.1 218.8,461.6 237.8,471.1 
		237.8,425 	"/>
</g>
<g class="st0">
	<polygon class="st1" points="238.4,517.3 238.4,471.3 284.5,494.3 	"/>
	<polygon class="st2" points="238.4,518.2 238.4,564.3 284.5,541.5 284.5,495.4 	"/>
	<polygon points="191.7,495.2 191.7,541.3 206.6,548.7 214.7,558.1 214.7,524.8 206.6,515.4 218.8,521.3 218.8,554.8 237.8,564.3 
		237.8,518.2 	"/>
</g>
<g class="st0">
	<polygon class="st1" points="331.2,4.1 331.2,-42 377.3,-19 	"/>
	<polygon class="st2" points="331.2,5 331.2,51 377.3,28.2 377.3,-17.9 	"/>
	<polygon points="284.5,-18.1 284.5,28 299.4,35.5 307.5,44.8 307.5,11.5 299.4,2.1 311.5,8 311.5,41.5 330.5,51 330.5,5 	"/>
</g>
<g class="st0">
	<polygon class="st1" points="331.2,97.3 331.2,51.2 377.3,74.3 	"/>
	<polygon class="st2" points="331.2,98.2 331.2,144.3 377.3,121.4 377.3,75.3 	"/>
	<polygon points="284.5,75.2 284.5,121.2 299.4,128.7 307.5,138.1 307.5,104.8 299.4,95.3 311.5,101.3 311.5,134.8 330.5,144.3 
		330.5,98.2 	"/>
</g>
<g class="st0">
	<polygon class="st1" points="331.2,190.6 331.2,144.5 377.3,167.5 	"/>
	<polygon class="st2" points="331.2,191.4 331.2,237.5 377.3,214.6 377.3,168.6 	"/>
	<polygon points="284.5,168.4 284.5,214.5 299.4,221.9 307.5,231.3 307.5,198 299.4,188.6 311.5,194.5 311.5,228 330.5,237.5 
		330.5,191.4 	"/>
</g>
<g class="st0">
	<polygon class="st1" points="331.2,283.8 331.2,237.7 377.3,260.8 	"/>
	<polygon class="st2" points="331.2,284.7 331.2,330.8 377.3,307.9 377.3,261.8 	"/>
	<polygon points="284.5,261.6 284.5,307.7 299.4,315.2 307.5,324.5 307.5,291.2 299.4,281.8 311.5,287.8 311.5,321.2 330.5,330.8 
		330.5,284.7 	"/>
</g>
<g class="st0">
	<polygon class="st1" points="331.2,377 331.2,331 377.3,354 	"/>
	<polygon class="st2" points="331.2,377.9 331.2,424 377.3,401.1 377.3,355 	"/>
	<polygon points="284.5,354.9 284.5,401 299.4,408.4 307.5,417.8 307.5,384.5 299.4,375 311.5,381 311.5,414.5 330.5,424 
		330.5,377.9 	"/>
</g>
<g class="st0">
	<polygon class="st1" points="331.2,470.3 331.2,424.2 377.3,447.2 	"/>
	<polygon class="st2" points="331.2,471.1 331.2,517.2 377.3,494.4 377.3,448.3 	"/>
	<polygon points="284.5,448.1 284.5,494.2 299.4,501.7 307.5,511 307.5,477.7 299.4,468.3 311.5,474.2 311.5,507.7 330.5,517.2 
		330.5,471.1 	"/>
</g>
<g class="st0">
	<polygon class="st1" points="424,51.2 424,5.1 470.1,28.1 	"/>
	<polygon class="st2" points="424,52 424,98.1 470.1,75.3 470.1,29.2 	"/>
	<polygon points="377.2,29 377.2,75.1 392.2,82.6 400.3,91.9 400.3,58.6 392.2,49.2 404.3,55.1 404.3,88.6 423.3,98.1 423.3,52 	"/>
</g>
<g class="st0">
	<polygon class="st1" points="424,144.4 424,98.3 470.1,121.4 	"/>
	<polygon class="st2" points="424,145.3 424,191.4 470.1,168.5 470.1,122.4 	"/>
	<polygon points="377.2,122.2 377.2,168.3 392.2,175.8 400.3,185.2 400.3,151.8 392.2,142.4 404.3,148.4 404.3,181.9 423.3,191.4 
		423.3,145.3 	"/>
</g>
<g class="st0">
	<polygon class="st1" points="424,237.6 424,191.6 470.1,214.6 	"/>
	<polygon class="st2" points="424,238.5 424,284.6 470.1,261.7 470.1,215.6 	"/>
	<polygon points="377.2,215.5 377.2,261.6 392.2,269 400.3,278.4 400.3,245.1 392.2,235.7 404.3,241.6 404.3,275.1 423.3,284.6 
		423.3,238.5 	"/>
</g>
<g class="st0">
	<polygon class="st1" points="424,330.9 424,284.8 470.1,307.8 	"/>
	<polygon class="st2" points="424,331.8 424,377.8 470.1,355 470.1,308.9 	"/>
	<polygon points="377.2,308.7 377.2,354.8 392.2,362.3 400.3,371.6 400.3,338.3 392.2,328.9 404.3,334.8 404.3,368.3 423.3,377.8 
		423.3,331.8 	"/>
</g>
<g class="st0">
	<polygon class="st1" points="424,424.1 424,378 470.1,401.1 	"/>
	<polygon class="st2" points="424,425 424,471.1 470.1,448.2 470.1,402.1 	"/>
	<polygon points="377.2,402 377.2,448 392.2,455.5 400.3,464.9 400.3,431.6 392.2,422.1 404.3,428.1 404.3,461.6 423.3,471.1 
		423.3,425 	"/>
</g>
<g class="st0">
	<polygon class="st1" points="424,517.3 424,471.3 470.1,494.3 	"/>
	<polygon class="st2" points="424,518.2 424,564.3 470.1,541.5 470.1,495.4 	"/>
	<polygon points="377.2,495.2 377.2,541.3 392.2,548.7 400.3,558.1 400.3,524.8 392.2,515.4 404.3,521.3 404.3,554.8 423.3,564.3 
		423.3,518.2 	"/>
</g>
<g class="st0">
	<polygon class="st1" points="516.8,4.1 516.8,-42 562.8,-19 	"/>
	<polygon class="st2" points="516.8,5 516.8,51 562.8,28.2 562.8,-17.9 	"/>
	<polygon points="470,-18.1 470,28 485,35.5 493,44.8 493,11.5 485,2.1 497.1,8 497.1,41.5 516.1,51 516.1,5 	"/>
</g>
<g class="st0">
	<polygon class="st1" points="516.8,97.3 516.8,51.2 562.8,74.3 	"/>
	<polygon class="st2" points="516.8,98.2 516.8,144.3 562.8,121.4 562.8,75.3 	"/>
	<polygon points="470,75.2 470,121.2 485,128.7 493,138.1 493,104.8 485,95.3 497.1,101.3 497.1,134.8 516.1,144.3 516.1,98.2 	"/>
</g>
<g class="st0">
	<polygon class="st1" points="516.8,190.6 516.8,144.5 562.8,167.5 	"/>
	<polygon class="st2" points="516.8,191.4 516.8,237.5 562.8,214.6 562.8,168.6 	"/>
	<polygon points="470,168.4 470,214.5 485,221.9 493,231.3 493,198 485,188.6 497.1,194.5 497.1,228 516.1,237.5 516.1,191.4 	"/>
</g>
<g class="st0">
	<polygon class="st1" points="516.8,283.8 516.8,237.7 562.8,260.8 	"/>
	<polygon class="st2" points="516.8,284.7 516.8,330.8 562.8,307.9 562.8,261.8 	"/>
	<polygon points="470,261.6 470,307.7 485,315.2 493,324.5 493,291.2 485,281.8 497.1,287.8 497.1,321.2 516.1,330.8 516.1,284.7 	
		"/>
</g>
<g class="st0">
	<polygon class="st1" points="516.8,377 516.8,331 562.8,354 	"/>
	<polygon class="st2" points="516.8,377.9 516.8,424 562.8,401.1 562.8,355 	"/>
	<polygon points="470,354.9 470,401 485,408.4 493,417.8 493,384.5 485,375 497.1,381 497.1,414.5 516.1,424 516.1,377.9 	"/>
</g>
<g class="st0">
	<polygon class="st1" points="516.8,470.3 516.8,424.2 562.8,447.2 	"/>
	<polygon class="st2" points="516.8,471.1 516.8,517.2 562.8,494.4 562.8,448.3 	"/>
	<polygon points="470,448.1 470,494.2 485,501.7 493,511 493,477.7 485,468.3 497.1,474.2 497.1,507.7 516.1,517.2 516.1,471.1 	"/>
</g>
<g class="st0">
	<polygon class="st1" points="609.5,51.2 609.5,5.1 655.6,28.1 	"/>
	<polygon class="st2" points="609.5,52 609.5,98.1 655.6,75.3 655.6,29.2 	"/>
	<polygon points="562.8,29 562.8,75.1 577.7,82.6 585.8,91.9 585.8,58.6 577.7,49.2 589.9,55.1 589.9,88.6 608.9,98.1 608.9,52 	"/>
</g>
<g class="st0">
	<polygon class="st1" points="609.5,144.4 609.5,98.3 655.6,121.4 	"/>
	<polygon class="st2" points="609.5,145.3 609.5,191.4 655.6,168.5 655.6,122.4 	"/>
	<polygon points="562.8,122.2 562.8,168.3 577.7,175.8 585.8,185.2 585.8,151.8 577.7,142.4 589.9,148.4 589.9,181.9 608.9,191.4 
		608.9,145.3 	"/>
</g>
<g class="st0">
	<polygon class="st1" points="609.5,237.6 609.5,191.6 655.6,214.6 	"/>
	<polygon class="st2" points="609.5,238.5 609.5,284.6 655.6,261.7 655.6,215.6 	"/>
	<polygon points="562.8,215.5 562.8,261.6 577.7,269 585.8,278.4 585.8,245.1 577.7,235.7 589.9,241.6 589.9,275.1 608.9,284.6 
		608.9,238.5 	"/>
</g>
<g class="st0">
	<polygon class="st1" points="609.5,330.9 609.5,284.8 655.6,307.8 	"/>
	<polygon class="st2" points="609.5,331.8 609.5,377.8 655.6,355 655.6,308.9 	"/>
	<polygon points="562.8,308.7 562.8,354.8 577.7,362.3 585.8,371.6 585.8,338.3 577.7,328.9 589.9,334.8 589.9,368.3 608.9,377.8 
		608.9,331.8 	"/>
</g>
<g class="st0">
	<polygon class="st1" points="609.5,424.1 609.5,378 655.6,401.1 	"/>
	<polygon class="st2" points="609.5,425 609.5,471.1 655.6,448.2 655.6,402.1 	"/>
	<polygon points="562.8,402 562.8,448 577.7,455.5 585.8,464.9 585.8,431.6 577.7,422.1 589.9,428.1 589.9,461.6 608.9,471.1 
		608.9,425 	"/>
</g>
<g class="st0">
	<polygon class="st1" points="609.5,517.3 609.5,471.3 655.6,494.3 	"/>
	<polygon class="st2" points="609.5,518.2 609.5,564.3 655.6,541.5 655.6,495.4 	"/>
	<polygon points="562.8,495.2 562.8,541.3 577.7,548.7 585.8,558.1 585.8,524.8 577.7,515.4 589.9,521.3 589.9,554.8 608.9,564.3 
		608.9,518.2 	"/>
</g>
<g class="st0">
	<polygon class="st1" points="702.3,4.1 702.3,-42 748.4,-19 	"/>
	<polygon class="st2" points="702.3,5 702.3,51 748.4,28.2 748.4,-17.9 	"/>
	<polygon points="655.5,-18.1 655.5,28 670.5,35.5 678.6,44.8 678.6,11.5 670.5,2.1 682.6,8 682.6,41.5 701.6,51 701.6,5 	"/>
</g>
<g class="st0">
	<polygon class="st1" points="702.3,97.3 702.3,51.2 748.4,74.3 	"/>
	<polygon class="st2" points="702.3,98.2 702.3,144.3 748.4,121.4 748.4,75.3 	"/>
	<polygon points="655.5,75.2 655.5,121.2 670.5,128.7 678.6,138.1 678.6,104.8 670.5,95.3 682.6,101.3 682.6,134.8 701.6,144.3 
		701.6,98.2 	"/>
</g>
<g class="st0">
	<polygon class="st1" points="702.3,190.6 702.3,144.5 748.4,167.5 	"/>
	<polygon class="st2" points="702.3,191.4 702.3,237.5 748.4,214.6 748.4,168.6 	"/>
	<polygon points="655.5,168.4 655.5,214.5 670.5,221.9 678.6,231.3 678.6,198 670.5,188.6 682.6,194.5 682.6,228 701.6,237.5 
		701.6,191.4 	"/>
</g>
<g class="st0">
	<polygon class="st1" points="702.3,283.8 702.3,237.7 748.4,260.8 	"/>
	<polygon class="st2" points="702.3,284.7 702.3,330.8 748.4,307.9 748.4,261.8 	"/>
	<polygon points="655.5,261.6 655.5,307.7 670.5,315.2 678.6,324.5 678.6,291.2 670.5,281.8 682.6,287.8 682.6,321.2 701.6,330.8 
		701.6,284.7 	"/>
</g>
<g class="st0">
	<polygon class="st1" points="702.3,377 702.3,331 748.4,354 	"/>
	<polygon class="st2" points="702.3,377.9 702.3,424 748.4,401.1 748.4,355 	"/>
	<polygon points="655.5,354.9 655.5,401 670.5,408.4 678.6,417.8 678.6,384.5 670.5,375 682.6,381 682.6,414.5 701.6,424 
		701.6,377.9 	"/>
</g>
<g class="st0">
	<polygon class="st1" points="702.3,470.3 702.3,424.2 748.4,447.2 	"/>
	<polygon class="st2" points="702.3,471.1 702.3,517.2 748.4,494.4 748.4,448.3 	"/>
	<polygon points="655.5,448.1 655.5,494.2 670.5,501.7 678.6,511 678.6,477.7 670.5,468.3 682.6,474.2 682.6,507.7 701.6,517.2 
		701.6,471.1 	"/>
</g>
<g class="st0">
	<polygon class="st1" points="795.1,51.2 795.1,5.1 841.2,28.1 	"/>
	<polygon class="st2" points="795.1,52 795.1,98.1 841.2,75.3 841.2,29.2 	"/>
	<polygon points="748.3,29 748.3,75.1 763.3,82.6 771.4,91.9 771.4,58.6 763.3,49.2 775.4,55.1 775.4,88.6 794.4,98.1 794.4,52 	"/>
</g>
<g class="st0">
	<polygon class="st1" points="795.1,144.4 795.1,98.3 841.2,121.4 	"/>
	<polygon class="st2" points="795.1,145.3 795.1,191.4 841.2,168.5 841.2,122.4 	"/>
	<polygon points="748.3,122.2 748.3,168.3 763.3,175.8 771.4,185.2 771.4,151.8 763.3,142.4 775.4,148.4 775.4,181.9 794.4,191.4 
		794.4,145.3 	"/>
</g>
<g class="st0">
	<polygon class="st1" points="795.1,237.6 795.1,191.6 841.2,214.6 	"/>
	<polygon class="st2" points="795.1,238.5 795.1,284.6 841.2,261.7 841.2,215.6 	"/>
	<polygon points="748.3,215.5 748.3,261.6 763.3,269 771.4,278.4 771.4,245.1 763.3,235.7 775.4,241.6 775.4,275.1 794.4,284.6 
		794.4,238.5 	"/>
</g>
<g class="st0">
	<polygon class="st1" points="795.1,330.9 795.1,284.8 841.2,307.8 	"/>
	<polygon class="st2" points="795.1,331.8 795.1,377.8 841.2,355 841.2,308.9 	"/>
	<polygon points="748.3,308.7 748.3,354.8 763.3,362.3 771.4,371.6 771.4,338.3 763.3,328.9 775.4,334.8 775.4,368.3 794.4,377.8 
		794.4,331.8 	"/>
</g>
<g class="st0">
	<polygon class="st1" points="795.1,424.1 795.1,378 841.2,401.1 	"/>
	<polygon class="st2" points="795.1,425 795.1,471.1 841.2,448.2 841.2,402.1 	"/>
	<polygon points="748.3,402 748.3,448 763.3,455.5 771.4,464.9 771.4,431.6 763.3,422.1 775.4,428.1 775.4,461.6 794.4,471.1 
		794.4,425 	"/>
</g>
<g class="st0">
	<polygon class="st1" points="795.1,517.3 795.1,471.3 841.2,494.3 	"/>
	<polygon class="st2" points="795.1,518.2 795.1,564.3 841.2,541.5 841.2,495.4 	"/>
	<polygon points="748.3,495.2 748.3,541.3 763.3,548.7 771.4,558.1 771.4,524.8 763.3,515.4 775.4,521.3 775.4,554.8 794.4,564.3 
		794.4,518.2 	"/>
</g>
<g class="st0">
	<polygon class="st1" points="887.8,4.1 887.8,-42 933.9,-19 	"/>
	<polygon class="st2" points="887.8,5 887.8,51 933.9,28.2 933.9,-17.9 	"/>
	<polygon points="841.1,-18.1 841.1,28 856,35.5 864.1,44.8 864.1,11.5 856,2.1 868.2,8 868.2,41.5 887.2,51 887.2,5 	"/>
</g>
<g class="st0">
	<polygon class="st1" points="887.8,97.3 887.8,51.2 933.9,74.3 	"/>
	<polygon class="st2" points="887.8,98.2 887.8,144.3 933.9,121.4 933.9,75.3 	"/>
	<polygon points="841.1,75.2 841.1,121.2 856,128.7 864.1,138.1 864.1,104.8 856,95.3 868.2,101.3 868.2,134.8 887.2,144.3 
		887.2,98.2 	"/>
</g>
<g class="st0">
	<polygon class="st1" points="887.8,190.6 887.8,144.5 933.9,167.5 	"/>
	<polygon class="st2" points="887.8,191.4 887.8,237.5 933.9,214.6 933.9,168.6 	"/>
	<polygon points="841.1,168.4 841.1,214.5 856,221.9 864.1,231.3 864.1,198 856,188.6 868.2,194.5 868.2,228 887.2,237.5 
		887.2,191.4 	"/>
</g>
<g class="st0">
	<polygon class="st1" points="887.8,283.8 887.8,237.7 933.9,260.8 	"/>
	<polygon class="st2" points="887.8,284.7 887.8,330.8 933.9,307.9 933.9,261.8 	"/>
	<polygon points="841.1,261.6 841.1,307.7 856,315.2 864.1,324.5 864.1,291.2 856,281.8 868.2,287.8 868.2,321.2 887.2,330.8 
		887.2,284.7 	"/>
</g>
<g class="st0">
	<polygon class="st1" points="887.8,377 887.8,331 933.9,354 	"/>
	<polygon class="st2" points="887.8,377.9 887.8,424 933.9,401.1 933.9,355 	"/>
	<polygon points="841.1,354.9 841.1,401 856,408.4 864.1,417.8 864.1,384.5 856,375 868.2,381 868.2,414.5 887.2,424 887.2,377.9 	
		"/>
</g>
<g class="st0">
	<polygon class="st1" points="887.8,470.3 887.8,424.2 933.9,447.2 	"/>
	<polygon class="st2" points="887.8,471.1 887.8,517.2 933.9,494.4 933.9,448.3 	"/>
	<polygon points="841.1,448.1 841.1,494.2 856,501.7 864.1,511 864.1,477.7 856,468.3 868.2,474.2 868.2,507.7 887.2,517.2 
		887.2,471.1 	"/>
</g>
<g class="st0">
	<polygon class="st1" points="980.6,51.2 980.6,5.1 1026.7,28.1 	"/>
	<polygon class="st2" points="980.6,52 980.6,98.1 1026.7,75.3 1026.7,29.2 	"/>
	<polygon points="933.9,29 933.9,75.1 948.8,82.6 956.9,91.9 956.9,58.6 948.8,49.2 961,55.1 961,88.6 980,98.1 980,52 	"/>
</g>
<g class="st0">
	<polygon class="st1" points="980.6,144.4 980.6,98.3 1026.7,121.4 	"/>
	<polygon class="st2" points="980.6,145.3 980.6,191.4 1026.7,168.5 1026.7,122.4 	"/>
	<polygon points="933.9,122.2 933.9,168.3 948.8,175.8 956.9,185.2 956.9,151.8 948.8,142.4 961,148.4 961,181.9 980,191.4 
		980,145.3 	"/>
</g>
<g class="st0">
	<polygon class="st1" points="980.6,237.6 980.6,191.6 1026.7,214.6 	"/>
	<polygon class="st2" points="980.6,238.5 980.6,284.6 1026.7,261.7 1026.7,215.6 	"/>
	<polygon points="933.9,215.5 933.9,261.6 948.8,269 956.9,278.4 956.9,245.1 948.8,235.7 961,241.6 961,275.1 980,284.6 980,238.5 
			"/>
</g>
<g class="st0">
	<polygon class="st1" points="980.6,330.9 980.6,284.8 1026.7,307.8 	"/>
	<polygon class="st2" points="980.6,331.8 980.6,377.8 1026.7,355 1026.7,308.9 	"/>
	<polygon points="933.9,308.7 933.9,354.8 948.8,362.3 956.9,371.6 956.9,338.3 948.8,328.9 961,334.8 961,368.3 980,377.8 
		980,331.8 	"/>
</g>
<g class="st0">
	<polygon class="st1" points="980.6,424.1 980.6,378 1026.7,401.1 	"/>
	<polygon class="st2" points="980.6,425 980.6,471.1 1026.7,448.2 1026.7,402.1 	"/>
	<polygon points="933.9,402 933.9,448 948.8,455.5 956.9,464.9 956.9,431.6 948.8,422.1 961,428.1 961,461.6 980,471.1 980,425 	"/>
</g>
<g class="st0">
	<polygon class="st1" points="980.6,517.3 980.6,471.3 1026.7,494.3 	"/>
	<polygon class="st2" points="980.6,518.2 980.6,564.3 1026.7,541.5 1026.7,495.4 	"/>
	<polygon points="933.9,495.2 933.9,541.3 948.8,548.7 956.9,558.1 956.9,524.8 948.8,515.4 961,521.3 961,554.8 980,564.3 
		980,518.2 	"/>
</g>
<g class="st0">
	<polygon class="st1" points="1073.4,4.1 1073.4,-42 1119.5,-19 	"/>
	<polygon class="st2" points="1073.4,5 1073.4,51 1119.5,28.2 1119.5,-17.9 	"/>
	<polygon points="1026.6,-18.1 1026.6,28 1041.6,35.5 1049.7,44.8 1049.7,11.5 1041.6,2.1 1053.7,8 1053.7,41.5 1072.7,51 1072.7,5 
			"/>
</g>
<g class="st0">
	<polygon class="st1" points="1073.4,97.3 1073.4,51.2 1119.5,74.3 	"/>
	<polygon class="st2" points="1073.4,98.2 1073.4,144.3 1119.5,121.4 1119.5,75.3 	"/>
	<polygon points="1026.6,75.2 1026.6,121.2 1041.6,128.7 1049.7,138.1 1049.7,104.8 1041.6,95.3 1053.7,101.3 1053.7,134.8 
		1072.7,144.3 1072.7,98.2 	"/>
</g>
<g class="st0">
	<polygon class="st1" points="1073.4,190.6 1073.4,144.5 1119.5,167.5 	"/>
	<polygon class="st2" points="1073.4,191.4 1073.4,237.5 1119.5,214.6 1119.5,168.6 	"/>
	<polygon points="1026.6,168.4 1026.6,214.5 1041.6,221.9 1049.7,231.3 1049.7,198 1041.6,188.6 1053.7,194.5 1053.7,228 
		1072.7,237.5 1072.7,191.4 	"/>
</g>
<g class="st0">
	<polygon class="st1" points="1073.4,283.8 1073.4,237.7 1119.5,260.8 	"/>
	<polygon class="st2" points="1073.4,284.7 1073.4,330.8 1119.5,307.9 1119.5,261.8 	"/>
	<polygon points="1026.6,261.6 1026.6,307.7 1041.6,315.2 1049.7,324.5 1049.7,291.2 1041.6,281.8 1053.7,287.8 1053.7,321.2 
		1072.7,330.8 1072.7,284.7 	"/>
</g>
<g class="st0">
	<polygon class="st1" points="1073.4,377 1073.4,331 1119.5,354 	"/>
	<polygon class="st2" points="1073.4,377.9 1073.4,424 1119.5,401.1 1119.5,355 	"/>
	<polygon points="1026.6,354.9 1026.6,401 1041.6,408.4 1049.7,417.8 1049.7,384.5 1041.6,375 1053.7,381 1053.7,414.5 1072.7,424 
		1072.7,377.9 	"/>
</g>
<g class="st0">
	<polygon class="st1" points="1073.4,470.3 1073.4,424.2 1119.5,447.2 	"/>
	<polygon class="st2" points="1073.4,471.1 1073.4,517.2 1119.5,494.4 1119.5,448.3 	"/>
	<polygon points="1026.6,448.1 1026.6,494.2 1041.6,501.7 1049.7,511 1049.7,477.7 1041.6,468.3 1053.7,474.2 1053.7,507.7 
		1072.7,517.2 1072.7,471.1 	"/>
</g>
<g class="st0">
	<polygon class="st1" points="1166.2,51.2 1166.2,5.1 1212.2,28.1 	"/>
	<polygon class="st2" points="1166.2,52 1166.2,98.1 1212.2,75.3 1212.2,29.2 	"/>
	<polygon points="1119.4,29 1119.4,75.1 1134.3,82.6 1142.4,91.9 1142.4,58.6 1134.3,49.2 1146.5,55.1 1146.5,88.6 1165.5,98.1 
		1165.5,52 	"/>
</g>
<g class="st0">
	<polygon class="st1" points="1166.2,144.4 1166.2,98.3 1212.2,121.4 	"/>
	<polygon class="st2" points="1166.2,145.3 1166.2,191.4 1212.2,168.5 1212.2,122.4 	"/>
	<polygon points="1119.4,122.2 1119.4,168.3 1134.3,175.8 1142.4,185.2 1142.4,151.8 1134.3,142.4 1146.5,148.4 1146.5,181.9 
		1165.5,191.4 1165.5,145.3 	"/>
</g>
<g class="st0">
	<polygon class="st1" points="1166.2,237.6 1166.2,191.6 1212.2,214.6 	"/>
	<polygon class="st2" points="1166.2,238.5 1166.2,284.6 1212.2,261.7 1212.2,215.6 	"/>
	<polygon points="1119.4,215.5 1119.4,261.6 1134.3,269 1142.4,278.4 1142.4,245.1 1134.3,235.7 1146.5,241.6 1146.5,275.1 
		1165.5,284.6 1165.5,238.5 	"/>
</g>
<g class="st0">
	<polygon class="st1" points="1166.2,330.9 1166.2,284.8 1212.2,307.8 	"/>
	<polygon class="st2" points="1166.2,331.8 1166.2,377.8 1212.2,355 1212.2,308.9 	"/>
	<polygon points="1119.4,308.7 1119.4,354.8 1134.3,362.3 1142.4,371.6 1142.4,338.3 1134.3,328.9 1146.5,334.8 1146.5,368.3 
		1165.5,377.8 1165.5,331.8 	"/>
</g>
<g class="st0">
	<polygon class="st1" points="1166.2,424.1 1166.2,378 1212.2,401.1 	"/>
	<polygon class="st2" points="1166.2,425 1166.2,471.1 1212.2,448.2 1212.2,402.1 	"/>
	<polygon points="1119.4,402 1119.4,448 1134.3,455.5 1142.4,464.9 1142.4,431.6 1134.3,422.1 1146.5,428.1 1146.5,461.6 
		1165.5,471.1 1165.5,425 	"/>
</g>
<g class="st0">
	<polygon class="st1" points="1166.2,517.3 1166.2,471.3 1212.2,494.3 	"/>
	<polygon class="st2" points="1166.2,518.2 1166.2,564.3 1212.2,541.5 1212.2,495.4 	"/>
	<polygon points="1119.4,495.2 1119.4,541.3 1134.3,548.7 1142.4,558.1 1142.4,524.8 1134.3,515.4 1146.5,521.3 1146.5,554.8 
		1165.5,564.3 1165.5,518.2 	"/>
</g>
<g class="st0">
	<polygon class="st1" points="1258.9,4.1 1258.9,-42 1305,-19 	"/>
	<polygon class="st2" points="1258.9,5 1258.9,51 1305,28.2 1305,-17.9 	"/>
	<polygon points="1212.2,-18.1 1212.2,28 1227.1,35.5 1235.2,44.8 1235.2,11.5 1227.1,2.1 1239.3,8 1239.3,41.5 1258.3,51 1258.3,5 
			"/>
</g>
<g class="st0">
	<polygon class="st1" points="1258.9,97.3 1258.9,51.2 1305,74.3 	"/>
	<polygon class="st2" points="1258.9,98.2 1258.9,144.3 1305,121.4 1305,75.3 	"/>
	<polygon points="1212.2,75.2 1212.2,121.2 1227.1,128.7 1235.2,138.1 1235.2,104.8 1227.1,95.3 1239.3,101.3 1239.3,134.8 
		1258.3,144.3 1258.3,98.2 	"/>
</g>
<g class="st0">
	<polygon class="st1" points="1258.9,190.6 1258.9,144.5 1305,167.5 	"/>
	<polygon class="st2" points="1258.9,191.4 1258.9,237.5 1305,214.6 1305,168.6 	"/>
	<polygon points="1212.2,168.4 1212.2,214.5 1227.1,221.9 1235.2,231.3 1235.2,198 1227.1,188.6 1239.3,194.5 1239.3,228 
		1258.3,237.5 1258.3,191.4 	"/>
</g>
<g class="st0">
	<polygon class="st1" points="1258.9,283.8 1258.9,237.7 1305,260.8 	"/>
	<polygon class="st2" points="1258.9,284.7 1258.9,330.8 1305,307.9 1305,261.8 	"/>
	<polygon points="1212.2,261.6 1212.2,307.7 1227.1,315.2 1235.2,324.5 1235.2,291.2 1227.1,281.8 1239.3,287.8 1239.3,321.2 
		1258.3,330.8 1258.3,284.7 	"/>
</g>
<g class="st0">
	<polygon class="st1" points="1258.9,377 1258.9,331 1305,354 	"/>
	<polygon class="st2" points="1258.9,377.9 1258.9,424 1305,401.1 1305,355 	"/>
	<polygon points="1212.2,354.9 1212.2,401 1227.1,408.4 1235.2,417.8 1235.2,384.5 1227.1,375 1239.3,381 1239.3,414.5 1258.3,424 
		1258.3,377.9 	"/>
</g>
<g class="st0">
	<polygon class="st1" points="1258.9,470.3 1258.9,424.2 1305,447.2 	"/>
	<polygon class="st2" points="1258.9,471.1 1258.9,517.2 1305,494.4 1305,448.3 	"/>
	<polygon points="1212.2,448.1 1212.2,494.2 1227.1,501.7 1235.2,511 1235.2,477.7 1227.1,468.3 1239.3,474.2 1239.3,507.7 
		1258.3,517.2 1258.3,471.1 	"/>
</g>
<g class="st0">
	<polygon class="st1" points="52.9,610.3 52.9,564.2 99,587.2 	"/>
	<polygon class="st2" points="52.9,611.1 52.9,657.2 99,634.4 99,588.3 	"/>
	<polygon points="6.2,588.1 6.2,634.2 21.1,641.7 29.2,651 29.2,617.7 21.1,608.3 33.2,614.2 33.2,647.7 52.2,657.2 52.2,611.1 	"/>
</g>
<g class="st0">
	<polygon class="st1" points="52.9,703.5 52.9,657.4 99,680.5 	"/>
	<polygon class="st2" points="52.9,704.4 52.9,750.5 99,727.6 99,681.5 	"/>
	<polygon points="6.2,681.3 6.2,727.4 21.1,734.9 29.2,744.2 29.2,710.9 21.1,701.5 33.2,707.5 33.2,741 52.2,750.5 52.2,704.4 	"/>
</g>
<g class="st0">
	<polygon class="st1" points="52.9,796.7 52.9,750.7 99,773.7 	"/>
	<polygon class="st2" points="52.9,797.6 52.9,843.7 99,820.8 99,774.8 	"/>
	<polygon points="6.2,774.6 6.2,820.7 21.1,828.1 29.2,837.5 29.2,804.2 21.1,794.8 33.2,800.7 33.2,834.2 52.2,843.7 52.2,797.6 	
		"/>
</g>
<g class="st0">
	<polygon class="st1" points="52.9,890 52.9,843.9 99,866.9 	"/>
	<polygon class="st2" points="52.9,890.8 52.9,936.9 99,914.1 99,868 	"/>
	<polygon points="6.2,867.8 6.2,913.9 21.1,921.4 29.2,930.7 29.2,897.4 21.1,888 33.2,893.9 33.2,927.4 52.2,936.9 52.2,890.8 	"/>
</g>
<g class="st0">
	<polygon class="st1" points="52.9,983.2 52.9,937.1 99,960.2 	"/>
	<polygon class="st2" points="52.9,984.1 52.9,1030.2 99,1007.3 99,961.2 	"/>
	<polygon points="6.2,961 6.2,1007.1 21.1,1014.6 29.2,1024 29.2,990.7 21.1,981.2 33.2,987.2 33.2,1020.7 52.2,1030.2 52.2,984.1 	
		"/>
</g>
<g class="st0">
	<polygon class="st1" points="52.9,1076.4 52.9,1030.4 99,1053.4 	"/>
	<polygon class="st2" points="52.9,1077.3 52.9,1123.4 99,1100.5 99,1054.5 	"/>
	<polygon points="6.2,1054.3 6.2,1100.4 21.1,1107.8 29.2,1117.2 29.2,1083.9 21.1,1074.5 33.2,1080.4 33.2,1113.9 52.2,1123.4 
		52.2,1077.3 	"/>
</g>
<g class="st0">
	<polygon class="st1" points="145.7,563.2 145.7,517.1 191.8,540.1 	"/>
	<polygon class="st2" points="145.7,564 145.7,610.1 191.8,587.3 191.8,541.2 	"/>
	<polygon points="98.9,541 98.9,587.1 113.9,594.6 122,603.9 122,570.6 113.9,561.2 126,567.1 126,600.6 145,610.1 145,564 	"/>
</g>
<g class="st0">
	<polygon class="st1" points="145.7,656.4 145.7,610.3 191.8,633.4 	"/>
	<polygon class="st2" points="145.7,657.3 145.7,703.4 191.8,680.5 191.8,634.4 	"/>
	<polygon points="98.9,634.2 98.9,680.3 113.9,687.8 122,697.2 122,663.9 113.9,654.4 126,660.4 126,693.9 145,703.4 145,657.3 	"/>
</g>
<g class="st0">
	<polygon class="st1" points="145.7,749.7 145.7,703.6 191.8,726.6 	"/>
	<polygon class="st2" points="145.7,750.5 145.7,796.6 191.8,773.8 191.8,727.7 	"/>
	<polygon points="98.9,727.5 98.9,773.6 113.9,781 122,790.4 122,757.1 113.9,747.7 126,753.6 126,787.1 145,796.6 145,750.5 	"/>
</g>
<g class="st0">
	<polygon class="st1" points="145.7,842.9 145.7,796.8 191.8,819.8 	"/>
	<polygon class="st2" points="145.7,843.8 145.7,889.8 191.8,867 191.8,820.9 	"/>
	<polygon points="98.9,820.7 98.9,866.8 113.9,874.3 122,883.6 122,850.3 113.9,840.9 126,846.8 126,880.3 145,889.8 145,843.8 	"/>
</g>
<g class="st0">
	<polygon class="st1" points="145.7,936.1 145.7,890 191.8,913.1 	"/>
	<polygon class="st2" points="145.7,937 145.7,983.1 191.8,960.2 191.8,914.1 	"/>
	<polygon points="98.9,914 98.9,960 113.9,967.5 122,976.9 122,943.6 113.9,934.2 126,940.1 126,973.6 145,983.1 145,937 	"/>
</g>
<g class="st0">
	<polygon class="st1" points="145.7,1029.4 145.7,983.3 191.8,1006.3 	"/>
	<polygon class="st2" points="145.7,1030.2 145.7,1076.3 191.8,1053.5 191.8,1007.4 	"/>
	<polygon points="98.9,1007.2 98.9,1053.3 113.9,1060.8 122,1070.1 122,1036.8 113.9,1027.4 126,1033.3 126,1066.8 145,1076.3 
		145,1030.2 	"/>
</g>
<g class="st0">
	<polygon class="st1" points="238.4,610.3 238.4,564.2 284.5,587.2 	"/>
	<polygon class="st2" points="238.4,611.1 238.4,657.2 284.5,634.4 284.5,588.3 	"/>
	<polygon points="191.7,588.1 191.7,634.2 206.6,641.7 214.7,651 214.7,617.7 206.6,608.3 218.8,614.2 218.8,647.7 237.8,657.2 
		237.8,611.1 	"/>
</g>
<g class="st0">
	<polygon class="st1" points="238.4,703.5 238.4,657.4 284.5,680.5 	"/>
	<polygon class="st2" points="238.4,704.4 238.4,750.5 284.5,727.6 284.5,681.5 	"/>
	<polygon points="191.7,681.3 191.7,727.4 206.6,734.9 214.7,744.2 214.7,710.9 206.6,701.5 218.8,707.5 218.8,741 237.8,750.5 
		237.8,704.4 	"/>
</g>
<g class="st0">
	<polygon class="st1" points="238.4,796.7 238.4,750.7 284.5,773.7 	"/>
	<polygon class="st2" points="238.4,797.6 238.4,843.7 284.5,820.8 284.5,774.8 	"/>
	<polygon points="191.7,774.6 191.7,820.7 206.6,828.1 214.7,837.5 214.7,804.2 206.6,794.8 218.8,800.7 218.8,834.2 237.8,843.7 
		237.8,797.6 	"/>
</g>
<g class="st0">
	<polygon class="st1" points="238.4,890 238.4,843.9 284.5,866.9 	"/>
	<polygon class="st2" points="238.4,890.8 238.4,936.9 284.5,914.1 284.5,868 	"/>
	<polygon points="191.7,867.8 191.7,913.9 206.6,921.4 214.7,930.7 214.7,897.4 206.6,888 218.8,893.9 218.8,927.4 237.8,936.9 
		237.8,890.8 	"/>
</g>
<g class="st0">
	<polygon class="st1" points="238.4,983.2 238.4,937.1 284.5,960.2 	"/>
	<polygon class="st2" points="238.4,984.1 238.4,1030.2 284.5,1007.3 284.5,961.2 	"/>
	<polygon points="191.7,961 191.7,1007.1 206.6,1014.6 214.7,1024 214.7,990.7 206.6,981.2 218.8,987.2 218.8,1020.7 237.8,1030.2 
		237.8,984.1 	"/>
</g>
<g class="st0">
	<polygon class="st1" points="238.4,1076.4 238.4,1030.4 284.5,1053.4 	"/>
	<polygon class="st2" points="238.4,1077.3 238.4,1123.4 284.5,1100.5 284.5,1054.5 	"/>
	<polygon points="191.7,1054.3 191.7,1100.4 206.6,1107.8 214.7,1117.2 214.7,1083.9 206.6,1074.5 218.8,1080.4 218.8,1113.9 
		237.8,1123.4 237.8,1077.3 	"/>
</g>
<g class="st0">
	<polygon class="st1" points="331.2,563.2 331.2,517.1 377.3,540.1 	"/>
	<polygon class="st2" points="331.2,564 331.2,610.1 377.3,587.3 377.3,541.2 	"/>
	<polygon points="284.5,541 284.5,587.1 299.4,594.6 307.5,603.9 307.5,570.6 299.4,561.2 311.5,567.1 311.5,600.6 330.5,610.1 
		330.5,564 	"/>
</g>
<g class="st0">
	<polygon class="st1" points="331.2,656.4 331.2,610.3 377.3,633.4 	"/>
	<polygon class="st2" points="331.2,657.3 331.2,703.4 377.3,680.5 377.3,634.4 	"/>
	<polygon points="284.5,634.2 284.5,680.3 299.4,687.8 307.5,697.2 307.5,663.9 299.4,654.4 311.5,660.4 311.5,693.9 330.5,703.4 
		330.5,657.3 	"/>
</g>
<g class="st0">
	<polygon class="st1" points="331.2,749.7 331.2,703.6 377.3,726.6 	"/>
	<polygon class="st2" points="331.2,750.5 331.2,796.6 377.3,773.8 377.3,727.7 	"/>
	<polygon points="284.5,727.5 284.5,773.6 299.4,781 307.5,790.4 307.5,757.1 299.4,747.7 311.5,753.6 311.5,787.1 330.5,796.6 
		330.5,750.5 	"/>
</g>
<g class="st0">
	<polygon class="st1" points="331.2,842.9 331.2,796.8 377.3,819.8 	"/>
	<polygon class="st2" points="331.2,843.8 331.2,889.8 377.3,867 377.3,820.9 	"/>
	<polygon points="284.5,820.7 284.5,866.8 299.4,874.3 307.5,883.6 307.5,850.3 299.4,840.9 311.5,846.8 311.5,880.3 330.5,889.8 
		330.5,843.8 	"/>
</g>
<g class="st0">
	<polygon class="st1" points="331.2,936.1 331.2,890 377.3,913.1 	"/>
	<polygon class="st2" points="331.2,937 331.2,983.1 377.3,960.2 377.3,914.1 	"/>
	<polygon points="284.5,914 284.5,960 299.4,967.5 307.5,976.9 307.5,943.6 299.4,934.2 311.5,940.1 311.5,973.6 330.5,983.1 
		330.5,937 	"/>
</g>
<g class="st0">
	<polygon class="st1" points="331.2,1029.4 331.2,983.3 377.3,1006.3 	"/>
	<polygon class="st2" points="331.2,1030.2 331.2,1076.3 377.3,1053.5 377.3,1007.4 	"/>
	<polygon points="284.5,1007.2 284.5,1053.3 299.4,1060.8 307.5,1070.1 307.5,1036.8 299.4,1027.4 311.5,1033.3 311.5,1066.8 
		330.5,1076.3 330.5,1030.2 	"/>
</g>
<g class="st0">
	<polygon class="st1" points="424,610.3 424,564.2 470.1,587.2 	"/>
	<polygon class="st2" points="424,611.1 424,657.2 470.1,634.4 470.1,588.3 	"/>
	<polygon points="377.2,588.1 377.2,634.2 392.2,641.7 400.3,651 400.3,617.7 392.2,608.3 404.3,614.2 404.3,647.7 423.3,657.2 
		423.3,611.1 	"/>
</g>
<g class="st0">
	<polygon class="st1" points="424,703.5 424,657.4 470.1,680.5 	"/>
	<polygon class="st2" points="424,704.4 424,750.5 470.1,727.6 470.1,681.5 	"/>
	<polygon points="377.2,681.3 377.2,727.4 392.2,734.9 400.3,744.2 400.3,710.9 392.2,701.5 404.3,707.5 404.3,741 423.3,750.5 
		423.3,704.4 	"/>
</g>
<g class="st0">
	<polygon class="st1" points="424,796.7 424,750.7 470.1,773.7 	"/>
	<polygon class="st2" points="424,797.6 424,843.7 470.1,820.8 470.1,774.8 	"/>
	<polygon points="377.2,774.6 377.2,820.7 392.2,828.1 400.3,837.5 400.3,804.2 392.2,794.8 404.3,800.7 404.3,834.2 423.3,843.7 
		423.3,797.6 	"/>
</g>
<g class="st0">
	<polygon class="st1" points="424,890 424,843.9 470.1,866.9 	"/>
	<polygon class="st2" points="424,890.8 424,936.9 470.1,914.1 470.1,868 	"/>
	<polygon points="377.2,867.8 377.2,913.9 392.2,921.4 400.3,930.7 400.3,897.4 392.2,888 404.3,893.9 404.3,927.4 423.3,936.9 
		423.3,890.8 	"/>
</g>
<g class="st0">
	<polygon class="st1" points="424,983.2 424,937.1 470.1,960.2 	"/>
	<polygon class="st2" points="424,984.1 424,1030.2 470.1,1007.3 470.1,961.2 	"/>
	<polygon points="377.2,961 377.2,1007.1 392.2,1014.6 400.3,1024 400.3,990.7 392.2,981.2 404.3,987.2 404.3,1020.7 423.3,1030.2 
		423.3,984.1 	"/>
</g>
<g class="st0">
	<polygon class="st1" points="424,1076.4 424,1030.4 470.1,1053.4 	"/>
	<polygon class="st2" points="424,1077.3 424,1123.4 470.1,1100.5 470.1,1054.5 	"/>
	<polygon points="377.2,1054.3 377.2,1100.4 392.2,1107.8 400.3,1117.2 400.3,1083.9 392.2,1074.5 404.3,1080.4 404.3,1113.9 
		423.3,1123.4 423.3,1077.3 	"/>
</g>
<g class="st0">
	<polygon class="st1" points="516.8,563.2 516.8,517.1 562.8,540.1 	"/>
	<polygon class="st2" points="516.8,564 516.8,610.1 562.8,587.3 562.8,541.2 	"/>
	<polygon points="470,541 470,587.1 485,594.6 493,603.9 493,570.6 485,561.2 497.1,567.1 497.1,600.6 516.1,610.1 516.1,564 	"/>
</g>
<g class="st0">
	<polygon class="st1" points="516.8,656.4 516.8,610.3 562.8,633.4 	"/>
	<polygon class="st2" points="516.8,657.3 516.8,703.4 562.8,680.5 562.8,634.4 	"/>
	<polygon points="470,634.2 470,680.3 485,687.8 493,697.2 493,663.9 485,654.4 497.1,660.4 497.1,693.9 516.1,703.4 516.1,657.3 	
		"/>
</g>
<g class="st0">
	<polygon class="st1" points="516.8,749.7 516.8,703.6 562.8,726.6 	"/>
	<polygon class="st2" points="516.8,750.5 516.8,796.6 562.8,773.8 562.8,727.7 	"/>
	<polygon points="470,727.5 470,773.6 485,781 493,790.4 493,757.1 485,747.7 497.1,753.6 497.1,787.1 516.1,796.6 516.1,750.5 	"/>
</g>
<g class="st0">
	<polygon class="st1" points="516.8,842.9 516.8,796.8 562.8,819.8 	"/>
	<polygon class="st2" points="516.8,843.8 516.8,889.8 562.8,867 562.8,820.9 	"/>
	<polygon points="470,820.7 470,866.8 485,874.3 493,883.6 493,850.3 485,840.9 497.1,846.8 497.1,880.3 516.1,889.8 516.1,843.8 	
		"/>
</g>
<g class="st0">
	<polygon class="st1" points="516.8,936.1 516.8,890 562.8,913.1 	"/>
	<polygon class="st2" points="516.8,937 516.8,983.1 562.8,960.2 562.8,914.1 	"/>
	<polygon points="470,914 470,960 485,967.5 493,976.9 493,943.6 485,934.2 497.1,940.1 497.1,973.6 516.1,983.1 516.1,937 	"/>
</g>
<g class="st0">
	<polygon class="st1" points="516.8,1029.4 516.8,983.3 562.8,1006.3 	"/>
	<polygon class="st2" points="516.8,1030.2 516.8,1076.3 562.8,1053.5 562.8,1007.4 	"/>
	<polygon points="470,1007.2 470,1053.3 485,1060.8 493,1070.1 493,1036.8 485,1027.4 497.1,1033.3 497.1,1066.8 516.1,1076.3 
		516.1,1030.2 	"/>
</g>
<g class="st0">
	<polygon class="st1" points="609.5,610.3 609.5,564.2 655.6,587.2 	"/>
	<polygon class="st2" points="609.5,611.1 609.5,657.2 655.6,634.4 655.6,588.3 	"/>
	<polygon points="562.8,588.1 562.8,634.2 577.7,641.7 585.8,651 585.8,617.7 577.7,608.3 589.9,614.2 589.9,647.7 608.9,657.2 
		608.9,611.1 	"/>
</g>
<g class="st0">
	<polygon class="st1" points="609.5,703.5 609.5,657.4 655.6,680.5 	"/>
	<polygon class="st2" points="609.5,704.4 609.5,750.5 655.6,727.6 655.6,681.5 	"/>
	<polygon points="562.8,681.3 562.8,727.4 577.7,734.9 585.8,744.2 585.8,710.9 577.7,701.5 589.9,707.5 589.9,741 608.9,750.5 
		608.9,704.4 	"/>
</g>
<g class="st0">
	<polygon class="st1" points="609.5,796.7 609.5,750.7 655.6,773.7 	"/>
	<polygon class="st2" points="609.5,797.6 609.5,843.7 655.6,820.8 655.6,774.8 	"/>
	<polygon points="562.8,774.6 562.8,820.7 577.7,828.1 585.8,837.5 585.8,804.2 577.7,794.8 589.9,800.7 589.9,834.2 608.9,843.7 
		608.9,797.6 	"/>
</g>
<g class="st0">
	<polygon class="st1" points="609.5,890 609.5,843.9 655.6,866.9 	"/>
	<polygon class="st2" points="609.5,890.8 609.5,936.9 655.6,914.1 655.6,868 	"/>
	<polygon points="562.8,867.8 562.8,913.9 577.7,921.4 585.8,930.7 585.8,897.4 577.7,888 589.9,893.9 589.9,927.4 608.9,936.9 
		608.9,890.8 	"/>
</g>
<g class="st0">
	<polygon class="st1" points="609.5,983.2 609.5,937.1 655.6,960.2 	"/>
	<polygon class="st2" points="609.5,984.1 609.5,1030.2 655.6,1007.3 655.6,961.2 	"/>
	<polygon points="562.8,961 562.8,1007.1 577.7,1014.6 585.8,1024 585.8,990.7 577.7,981.2 589.9,987.2 589.9,1020.7 608.9,1030.2 
		608.9,984.1 	"/>
</g>
<g class="st0">
	<polygon class="st1" points="609.5,1076.4 609.5,1030.4 655.6,1053.4 	"/>
	<polygon class="st2" points="609.5,1077.3 609.5,1123.4 655.6,1100.5 655.6,1054.5 	"/>
	<polygon points="562.8,1054.3 562.8,1100.4 577.7,1107.8 585.8,1117.2 585.8,1083.9 577.7,1074.5 589.9,1080.4 589.9,1113.9 
		608.9,1123.4 608.9,1077.3 	"/>
</g>
<g class="st0">
	<polygon class="st1" points="702.3,563.2 702.3,517.1 748.4,540.1 	"/>
	<polygon class="st2" points="702.3,564 702.3,610.1 748.4,587.3 748.4,541.2 	"/>
	<polygon points="655.5,541 655.5,587.1 670.5,594.6 678.6,603.9 678.6,570.6 670.5,561.2 682.6,567.1 682.6,600.6 701.6,610.1 
		701.6,564 	"/>
</g>
<g class="st0">
	<polygon class="st1" points="702.3,656.4 702.3,610.3 748.4,633.4 	"/>
	<polygon class="st2" points="702.3,657.3 702.3,703.4 748.4,680.5 748.4,634.4 	"/>
	<polygon points="655.5,634.2 655.5,680.3 670.5,687.8 678.6,697.2 678.6,663.9 670.5,654.4 682.6,660.4 682.6,693.9 701.6,703.4 
		701.6,657.3 	"/>
</g>
<g class="st0">
	<polygon class="st1" points="702.3,749.7 702.3,703.6 748.4,726.6 	"/>
	<polygon class="st2" points="702.3,750.5 702.3,796.6 748.4,773.8 748.4,727.7 	"/>
	<polygon points="655.5,727.5 655.5,773.6 670.5,781 678.6,790.4 678.6,757.1 670.5,747.7 682.6,753.6 682.6,787.1 701.6,796.6 
		701.6,750.5 	"/>
</g>
<g class="st0">
	<polygon class="st1" points="702.3,842.9 702.3,796.8 748.4,819.8 	"/>
	<polygon class="st2" points="702.3,843.8 702.3,889.8 748.4,867 748.4,820.9 	"/>
	<polygon points="655.5,820.7 655.5,866.8 670.5,874.3 678.6,883.6 678.6,850.3 670.5,840.9 682.6,846.8 682.6,880.3 701.6,889.8 
		701.6,843.8 	"/>
</g>
<g class="st0">
	<polygon class="st1" points="702.3,936.1 702.3,890 748.4,913.1 	"/>
	<polygon class="st2" points="702.3,937 702.3,983.1 748.4,960.2 748.4,914.1 	"/>
	<polygon points="655.5,914 655.5,960 670.5,967.5 678.6,976.9 678.6,943.6 670.5,934.2 682.6,940.1 682.6,973.6 701.6,983.1 
		701.6,937 	"/>
</g>
<g class="st0">
	<polygon class="st1" points="702.3,1029.4 702.3,983.3 748.4,1006.3 	"/>
	<polygon class="st2" points="702.3,1030.2 702.3,1076.3 748.4,1053.5 748.4,1007.4 	"/>
	<polygon points="655.5,1007.2 655.5,1053.3 670.5,1060.8 678.6,1070.1 678.6,1036.8 670.5,1027.4 682.6,1033.3 682.6,1066.8 
		701.6,1076.3 701.6,1030.2 	"/>
</g>
<g class="st0">
	<polygon class="st1" points="795.1,610.3 795.1,564.2 841.2,587.2 	"/>
	<polygon class="st2" points="795.1,611.1 795.1,657.2 841.2,634.4 841.2,588.3 	"/>
	<polygon points="748.3,588.1 748.3,634.2 763.3,641.7 771.4,651 771.4,617.7 763.3,608.3 775.4,614.2 775.4,647.7 794.4,657.2 
		794.4,611.1 	"/>
</g>
<g class="st0">
	<polygon class="st1" points="795.1,703.5 795.1,657.4 841.2,680.5 	"/>
	<polygon class="st2" points="795.1,704.4 795.1,750.5 841.2,727.6 841.2,681.5 	"/>
	<polygon points="748.3,681.3 748.3,727.4 763.3,734.9 771.4,744.2 771.4,710.9 763.3,701.5 775.4,707.5 775.4,741 794.4,750.5 
		794.4,704.4 	"/>
</g>
<g class="st0">
	<polygon class="st1" points="795.1,796.7 795.1,750.7 841.2,773.7 	"/>
	<polygon class="st2" points="795.1,797.6 795.1,843.7 841.2,820.8 841.2,774.8 	"/>
	<polygon points="748.3,774.6 748.3,820.7 763.3,828.1 771.4,837.5 771.4,804.2 763.3,794.8 775.4,800.7 775.4,834.2 794.4,843.7 
		794.4,797.6 	"/>
</g>
<g class="st0">
	<polygon class="st1" points="795.1,890 795.1,843.9 841.2,866.9 	"/>
	<polygon class="st2" points="795.1,890.8 795.1,936.9 841.2,914.1 841.2,868 	"/>
	<polygon points="748.3,867.8 748.3,913.9 763.3,921.4 771.4,930.7 771.4,897.4 763.3,888 775.4,893.9 775.4,927.4 794.4,936.9 
		794.4,890.8 	"/>
</g>
<g class="st0">
	<polygon class="st1" points="795.1,983.2 795.1,937.1 841.2,960.2 	"/>
	<polygon class="st2" points="795.1,984.1 795.1,1030.2 841.2,1007.3 841.2,961.2 	"/>
	<polygon points="748.3,961 748.3,1007.1 763.3,1014.6 771.4,1024 771.4,990.7 763.3,981.2 775.4,987.2 775.4,1020.7 794.4,1030.2 
		794.4,984.1 	"/>
</g>
<g class="st0">
	<polygon class="st1" points="795.1,1076.4 795.1,1030.4 841.2,1053.4 	"/>
	<polygon class="st2" points="795.1,1077.3 795.1,1123.4 841.2,1100.5 841.2,1054.5 	"/>
	<polygon points="748.3,1054.3 748.3,1100.4 763.3,1107.8 771.4,1117.2 771.4,1083.9 763.3,1074.5 775.4,1080.4 775.4,1113.9 
		794.4,1123.4 794.4,1077.3 	"/>
</g>
<g class="st0">
	<polygon class="st1" points="887.8,563.2 887.8,517.1 933.9,540.1 	"/>
	<polygon class="st2" points="887.8,564 887.8,610.1 933.9,587.3 933.9,541.2 	"/>
	<polygon points="841.1,541 841.1,587.1 856,594.6 864.1,603.9 864.1,570.6 856,561.2 868.2,567.1 868.2,600.6 887.2,610.1 
		887.2,564 	"/>
</g>
<g class="st0">
	<polygon class="st1" points="887.8,656.4 887.8,610.3 933.9,633.4 	"/>
	<polygon class="st2" points="887.8,657.3 887.8,703.4 933.9,680.5 933.9,634.4 	"/>
	<polygon points="841.1,634.2 841.1,680.3 856,687.8 864.1,697.2 864.1,663.9 856,654.4 868.2,660.4 868.2,693.9 887.2,703.4 
		887.2,657.3 	"/>
</g>
<g class="st0">
	<polygon class="st1" points="887.8,749.7 887.8,703.6 933.9,726.6 	"/>
	<polygon class="st2" points="887.8,750.5 887.8,796.6 933.9,773.8 933.9,727.7 	"/>
	<polygon points="841.1,727.5 841.1,773.6 856,781 864.1,790.4 864.1,757.1 856,747.7 868.2,753.6 868.2,787.1 887.2,796.6 
		887.2,750.5 	"/>
</g>
<g class="st0">
	<polygon class="st1" points="887.8,842.9 887.8,796.8 933.9,819.8 	"/>
	<polygon class="st2" points="887.8,843.8 887.8,889.8 933.9,867 933.9,820.9 	"/>
	<polygon points="841.1,820.7 841.1,866.8 856,874.3 864.1,883.6 864.1,850.3 856,840.9 868.2,846.8 868.2,880.3 887.2,889.8 
		887.2,843.8 	"/>
</g>
<g class="st0">
	<polygon class="st1" points="887.8,936.1 887.8,890 933.9,913.1 	"/>
	<polygon class="st2" points="887.8,937 887.8,983.1 933.9,960.2 933.9,914.1 	"/>
	<polygon points="841.1,914 841.1,960 856,967.5 864.1,976.9 864.1,943.6 856,934.2 868.2,940.1 868.2,973.6 887.2,983.1 887.2,937 
			"/>
</g>
<g class="st0">
	<polygon class="st1" points="887.8,1029.4 887.8,983.3 933.9,1006.3 	"/>
	<polygon class="st2" points="887.8,1030.2 887.8,1076.3 933.9,1053.5 933.9,1007.4 	"/>
	<polygon points="841.1,1007.2 841.1,1053.3 856,1060.8 864.1,1070.1 864.1,1036.8 856,1027.4 868.2,1033.3 868.2,1066.8 
		887.2,1076.3 887.2,1030.2 	"/>
</g>
<g class="st0">
	<polygon class="st1" points="980.6,610.3 980.6,564.2 1026.7,587.2 	"/>
	<polygon class="st2" points="980.6,611.1 980.6,657.2 1026.7,634.4 1026.7,588.3 	"/>
	<polygon points="933.9,588.1 933.9,634.2 948.8,641.7 956.9,651 956.9,617.7 948.8,608.3 961,614.2 961,647.7 980,657.2 980,611.1 
			"/>
</g>
<g class="st0">
	<polygon class="st1" points="980.6,703.5 980.6,657.4 1026.7,680.5 	"/>
	<polygon class="st2" points="980.6,704.4 980.6,750.5 1026.7,727.6 1026.7,681.5 	"/>
	<polygon points="933.9,681.3 933.9,727.4 948.8,734.9 956.9,744.2 956.9,710.9 948.8,701.5 961,707.5 961,741 980,750.5 980,704.4 
			"/>
</g>
<g class="st0">
	<polygon class="st1" points="980.6,796.7 980.6,750.7 1026.7,773.7 	"/>
	<polygon class="st2" points="980.6,797.6 980.6,843.7 1026.7,820.8 1026.7,774.8 	"/>
	<polygon points="933.9,774.6 933.9,820.7 948.8,828.1 956.9,837.5 956.9,804.2 948.8,794.8 961,800.7 961,834.2 980,843.7 
		980,797.6 	"/>
</g>
<g class="st0">
	<polygon class="st1" points="980.6,890 980.6,843.9 1026.7,866.9 	"/>
	<polygon class="st2" points="980.6,890.8 980.6,936.9 1026.7,914.1 1026.7,868 	"/>
	<polygon points="933.9,867.8 933.9,913.9 948.8,921.4 956.9,930.7 956.9,897.4 948.8,888 961,893.9 961,927.4 980,936.9 980,890.8 
			"/>
</g>
<g class="st0">
	<polygon class="st1" points="980.6,983.2 980.6,937.1 1026.7,960.2 	"/>
	<polygon class="st2" points="980.6,984.1 980.6,1030.2 1026.7,1007.3 1026.7,961.2 	"/>
	<polygon points="933.9,961 933.9,1007.1 948.8,1014.6 956.9,1024 956.9,990.7 948.8,981.2 961,987.2 961,1020.7 980,1030.2 
		980,984.1 	"/>
</g>
<g class="st0">
	<polygon class="st1" points="980.6,1076.4 980.6,1030.4 1026.7,1053.4 	"/>
	<polygon class="st2" points="980.6,1077.3 980.6,1123.4 1026.7,1100.5 1026.7,1054.5 	"/>
	<polygon points="933.9,1054.3 933.9,1100.4 948.8,1107.8 956.9,1117.2 956.9,1083.9 948.8,1074.5 961,1080.4 961,1113.9 
		980,1123.4 980,1077.3 	"/>
</g>
<g class="st0">
	<polygon class="st1" points="1073.4,563.2 1073.4,517.1 1119.5,540.1 	"/>
	<polygon class="st2" points="1073.4,564 1073.4,610.1 1119.5,587.3 1119.5,541.2 	"/>
	<polygon points="1026.6,541 1026.6,587.1 1041.6,594.6 1049.7,603.9 1049.7,570.6 1041.6,561.2 1053.7,567.1 1053.7,600.6 
		1072.7,610.1 1072.7,564 	"/>
</g>
<g class="st0">
	<polygon class="st1" points="1073.4,656.4 1073.4,610.3 1119.5,633.4 	"/>
	<polygon class="st2" points="1073.4,657.3 1073.4,703.4 1119.5,680.5 1119.5,634.4 	"/>
	<polygon points="1026.6,634.2 1026.6,680.3 1041.6,687.8 1049.7,697.2 1049.7,663.9 1041.6,654.4 1053.7,660.4 1053.7,693.9 
		1072.7,703.4 1072.7,657.3 	"/>
</g>
<g class="st0">
	<polygon class="st1" points="1073.4,749.7 1073.4,703.6 1119.5,726.6 	"/>
	<polygon class="st2" points="1073.4,750.5 1073.4,796.6 1119.5,773.8 1119.5,727.7 	"/>
	<polygon points="1026.6,727.5 1026.6,773.6 1041.6,781 1049.7,790.4 1049.7,757.1 1041.6,747.7 1053.7,753.6 1053.7,787.1 
		1072.7,796.6 1072.7,750.5 	"/>
</g>
<g class="st0">
	<polygon class="st1" points="1073.4,842.9 1073.4,796.8 1119.5,819.8 	"/>
	<polygon class="st2" points="1073.4,843.8 1073.4,889.8 1119.5,867 1119.5,820.9 	"/>
	<polygon points="1026.6,820.7 1026.6,866.8 1041.6,874.3 1049.7,883.6 1049.7,850.3 1041.6,840.9 1053.7,846.8 1053.7,880.3 
		1072.7,889.8 1072.7,843.8 	"/>
</g>
<g class="st0">
	<polygon class="st1" points="1073.4,936.1 1073.4,890 1119.5,913.1 	"/>
	<polygon class="st2" points="1073.4,937 1073.4,983.1 1119.5,960.2 1119.5,914.1 	"/>
	<polygon points="1026.6,914 1026.6,960 1041.6,967.5 1049.7,976.9 1049.7,943.6 1041.6,934.2 1053.7,940.1 1053.7,973.6 
		1072.7,983.1 1072.7,937 	"/>
</g>
<g class="st0">
	<polygon class="st1" points="1073.4,1029.4 1073.4,983.3 1119.5,1006.3 	"/>
	<polygon class="st2" points="1073.4,1030.2 1073.4,1076.3 1119.5,1053.5 1119.5,1007.4 	"/>
	<polygon points="1026.6,1007.2 1026.6,1053.3 1041.6,1060.8 1049.7,1070.1 1049.7,1036.8 1041.6,1027.4 1053.7,1033.3 
		1053.7,1066.8 1072.7,1076.3 1072.7,1030.2 	"/>
</g>
<g class="st0">
	<polygon class="st1" points="1166.2,610.3 1166.2,564.2 1212.2,587.2 	"/>
	<polygon class="st2" points="1166.2,611.1 1166.2,657.2 1212.2,634.4 1212.2,588.3 	"/>
	<polygon points="1119.4,588.1 1119.4,634.2 1134.3,641.7 1142.4,651 1142.4,617.7 1134.3,608.3 1146.5,614.2 1146.5,647.7 
		1165.5,657.2 1165.5,611.1 	"/>
</g>
<g class="st0">
	<polygon class="st1" points="1166.2,703.5 1166.2,657.4 1212.2,680.5 	"/>
	<polygon class="st2" points="1166.2,704.4 1166.2,750.5 1212.2,727.6 1212.2,681.5 	"/>
	<polygon points="1119.4,681.3 1119.4,727.4 1134.3,734.9 1142.4,744.2 1142.4,710.9 1134.3,701.5 1146.5,707.5 1146.5,741 
		1165.5,750.5 1165.5,704.4 	"/>
</g>
<g class="st0">
	<polygon class="st1" points="1166.2,796.7 1166.2,750.7 1212.2,773.7 	"/>
	<polygon class="st2" points="1166.2,797.6 1166.2,843.7 1212.2,820.8 1212.2,774.8 	"/>
	<polygon points="1119.4,774.6 1119.4,820.7 1134.3,828.1 1142.4,837.5 1142.4,804.2 1134.3,794.8 1146.5,800.7 1146.5,834.2 
		1165.5,843.7 1165.5,797.6 	"/>
</g>
<g class="st0">
	<polygon class="st1" points="1166.2,890 1166.2,843.9 1212.2,866.9 	"/>
	<polygon class="st2" points="1166.2,890.8 1166.2,936.9 1212.2,914.1 1212.2,868 	"/>
	<polygon points="1119.4,867.8 1119.4,913.9 1134.3,921.4 1142.4,930.7 1142.4,897.4 1134.3,888 1146.5,893.9 1146.5,927.4 
		1165.5,936.9 1165.5,890.8 	"/>
</g>
<g class="st0">
	<polygon class="st1" points="1166.2,983.2 1166.2,937.1 1212.2,960.2 	"/>
	<polygon class="st2" points="1166.2,984.1 1166.2,1030.2 1212.2,1007.3 1212.2,961.2 	"/>
	<polygon points="1119.4,961 1119.4,1007.1 1134.3,1014.6 1142.4,1024 1142.4,990.7 1134.3,981.2 1146.5,987.2 1146.5,1020.7 
		1165.5,1030.2 1165.5,984.1 	"/>
</g>
<g class="st0">
	<polygon class="st1" points="1166.2,1076.4 1166.2,1030.4 1212.2,1053.4 	"/>
	<polygon class="st2" points="1166.2,1077.3 1166.2,1123.4 1212.2,1100.5 1212.2,1054.5 	"/>
	<polygon points="1119.4,1054.3 1119.4,1100.4 1134.3,1107.8 1142.4,1117.2 1142.4,1083.9 1134.3,1074.5 1146.5,1080.4 
		1146.5,1113.9 1165.5,1123.4 1165.5,1077.3 	"/>
</g>
<g class="st0">
	<polygon class="st1" points="1258.9,563.2 1258.9,517.1 1305,540.1 	"/>
	<polygon class="st2" points="1258.9,564 1258.9,610.1 1305,587.3 1305,541.2 	"/>
	<polygon points="1212.2,541 1212.2,587.1 1227.1,594.6 1235.2,603.9 1235.2,570.6 1227.1,561.2 1239.3,567.1 1239.3,600.6 
		1258.3,610.1 1258.3,564 	"/>
</g>
<g class="st0">
	<polygon class="st1" points="1258.9,656.4 1258.9,610.3 1305,633.4 	"/>
	<polygon class="st2" points="1258.9,657.3 1258.9,703.4 1305,680.5 1305,634.4 	"/>
	<polygon points="1212.2,634.2 1212.2,680.3 1227.1,687.8 1235.2,697.2 1235.2,663.9 1227.1,654.4 1239.3,660.4 1239.3,693.9 
		1258.3,703.4 1258.3,657.3 	"/>
</g>
<g class="st0">
	<polygon class="st1" points="1258.9,749.7 1258.9,703.6 1305,726.6 	"/>
	<polygon class="st2" points="1258.9,750.5 1258.9,796.6 1305,773.8 1305,727.7 	"/>
	<polygon points="1212.2,727.5 1212.2,773.6 1227.1,781 1235.2,790.4 1235.2,757.1 1227.1,747.7 1239.3,753.6 1239.3,787.1 
		1258.3,796.6 1258.3,750.5 	"/>
</g>
<g class="st0">
	<polygon class="st1" points="1258.9,842.9 1258.9,796.8 1305,819.8 	"/>
	<polygon class="st2" points="1258.9,843.8 1258.9,889.8 1305,867 1305,820.9 	"/>
	<polygon points="1212.2,820.7 1212.2,866.8 1227.1,874.3 1235.2,883.6 1235.2,850.3 1227.1,840.9 1239.3,846.8 1239.3,880.3 
		1258.3,889.8 1258.3,843.8 	"/>
</g>
<g class="st0">
	<polygon class="st1" points="1258.9,936.1 1258.9,890 1305,913.1 	"/>
	<polygon class="st2" points="1258.9,937 1258.9,983.1 1305,960.2 1305,914.1 	"/>
	<polygon points="1212.2,914 1212.2,960 1227.1,967.5 1235.2,976.9 1235.2,943.6 1227.1,934.2 1239.3,940.1 1239.3,973.6 
		1258.3,983.1 1258.3,937 	"/>
</g>
<g class="st0">
	<polygon class="st1" points="1258.9,1029.4 1258.9,983.3 1305,1006.3 	"/>
	<polygon class="st2" points="1258.9,1030.2 1258.9,1076.3 1305,1053.5 1305,1007.4 	"/>
	<polygon points="1212.2,1007.2 1212.2,1053.3 1227.1,1060.8 1235.2,1070.1 1235.2,1036.8 1227.1,1027.4 1239.3,1033.3 
		1239.3,1066.8 1258.3,1076.3 1258.3,1030.2 	"/>
</g>
<g class="st0">
	<polygon class="st1" points="1351.9,51.2 1351.9,5.1 1398,28.1 	"/>
	<polygon class="st2" points="1351.9,52 1351.9,98.1 1398,75.3 1398,29.2 	"/>
	<polygon points="1305.2,29 1305.2,75.1 1320.1,82.6 1328.2,91.9 1328.2,58.6 1320.1,49.2 1332.2,55.1 1332.2,88.6 1351.2,98.1 
		1351.2,52 	"/>
</g>
<g class="st0">
	<polygon class="st1" points="1351.9,144.4 1351.9,98.3 1398,121.4 	"/>
	<polygon class="st2" points="1351.9,145.3 1351.9,191.4 1398,168.5 1398,122.4 	"/>
	<polygon points="1305.2,122.2 1305.2,168.3 1320.1,175.8 1328.2,185.2 1328.2,151.8 1320.1,142.4 1332.2,148.4 1332.2,181.9 
		1351.2,191.4 1351.2,145.3 	"/>
</g>
<g class="st0">
	<polygon class="st1" points="1351.9,237.6 1351.9,191.6 1398,214.6 	"/>
	<polygon class="st2" points="1351.9,238.5 1351.9,284.6 1398,261.7 1398,215.6 	"/>
	<polygon points="1305.2,215.5 1305.2,261.6 1320.1,269 1328.2,278.4 1328.2,245.1 1320.1,235.7 1332.2,241.6 1332.2,275.1 
		1351.2,284.6 1351.2,238.5 	"/>
</g>
<g class="st0">
	<polygon class="st1" points="1351.9,330.9 1351.9,284.8 1398,307.8 	"/>
	<polygon class="st2" points="1351.9,331.8 1351.9,377.8 1398,355 1398,308.9 	"/>
	<polygon points="1305.2,308.7 1305.2,354.8 1320.1,362.3 1328.2,371.6 1328.2,338.3 1320.1,328.9 1332.2,334.8 1332.2,368.3 
		1351.2,377.8 1351.2,331.8 	"/>
</g>
<g class="st0">
	<polygon class="st1" points="1351.9,424.1 1351.9,378 1398,401.1 	"/>
	<polygon class="st2" points="1351.9,425 1351.9,471.1 1398,448.2 1398,402.1 	"/>
	<polygon points="1305.2,402 1305.2,448 1320.1,455.5 1328.2,464.9 1328.2,431.6 1320.1,422.1 1332.2,428.1 1332.2,461.6 
		1351.2,471.1 1351.2,425 	"/>
</g>
<g class="st0">
	<polygon class="st1" points="1351.9,517.3 1351.9,471.3 1398,494.3 	"/>
	<polygon class="st2" points="1351.9,518.2 1351.9,564.3 1398,541.5 1398,495.4 	"/>
	<polygon points="1305.2,495.2 1305.2,541.3 1320.1,548.7 1328.2,558.1 1328.2,524.8 1320.1,515.4 1332.2,521.3 1332.2,554.8 
		1351.2,564.3 1351.2,518.2 	"/>
</g>
<g class="st0">
	<polygon class="st1" points="1444.7,4.1 1444.7,-42 1490.8,-19 	"/>
	<polygon class="st2" points="1444.7,5 1444.7,51 1490.8,28.2 1490.8,-17.9 	"/>
	<polygon points="1397.9,-18.1 1397.9,28 1412.9,35.5 1421,44.8 1421,11.5 1412.9,2.1 1425,8 1425,41.5 1444,51 1444,5 	"/>
</g>
<g class="st0">
	<polygon class="st1" points="1444.7,97.3 1444.7,51.2 1490.8,74.3 	"/>
	<polygon class="st2" points="1444.7,98.2 1444.7,144.3 1490.8,121.4 1490.8,75.3 	"/>
	<polygon points="1397.9,75.2 1397.9,121.2 1412.9,128.7 1421,138.1 1421,104.8 1412.9,95.3 1425,101.3 1425,134.8 1444,144.3 
		1444,98.2 	"/>
</g>
<g class="st0">
	<polygon class="st1" points="1444.7,190.6 1444.7,144.5 1490.8,167.5 	"/>
	<polygon class="st2" points="1444.7,191.4 1444.7,237.5 1490.8,214.6 1490.8,168.6 	"/>
	<polygon points="1397.9,168.4 1397.9,214.5 1412.9,221.9 1421,231.3 1421,198 1412.9,188.6 1425,194.5 1425,228 1444,237.5 
		1444,191.4 	"/>
</g>
<g class="st0">
	<polygon class="st1" points="1444.7,283.8 1444.7,237.7 1490.8,260.8 	"/>
	<polygon class="st2" points="1444.7,284.7 1444.7,330.8 1490.8,307.9 1490.8,261.8 	"/>
	<polygon points="1397.9,261.6 1397.9,307.7 1412.9,315.2 1421,324.5 1421,291.2 1412.9,281.8 1425,287.8 1425,321.2 1444,330.8 
		1444,284.7 	"/>
</g>
<g class="st0">
	<polygon class="st1" points="1444.7,377 1444.7,331 1490.8,354 	"/>
	<polygon class="st2" points="1444.7,377.9 1444.7,424 1490.8,401.1 1490.8,355 	"/>
	<polygon points="1397.9,354.9 1397.9,401 1412.9,408.4 1421,417.8 1421,384.5 1412.9,375 1425,381 1425,414.5 1444,424 1444,377.9 
			"/>
</g>
<g class="st0">
	<polygon class="st1" points="1444.7,470.3 1444.7,424.2 1490.8,447.2 	"/>
	<polygon class="st2" points="1444.7,471.1 1444.7,517.2 1490.8,494.4 1490.8,448.3 	"/>
	<polygon points="1397.9,448.1 1397.9,494.2 1412.9,501.7 1421,511 1421,477.7 1412.9,468.3 1425,474.2 1425,507.7 1444,517.2 
		1444,471.1 	"/>
</g>
<g class="st0">
	<polygon class="st1" points="1537.4,51.2 1537.4,5.1 1583.5,28.1 	"/>
	<polygon class="st2" points="1537.4,52 1537.4,98.1 1583.5,75.3 1583.5,29.2 	"/>
	<polygon points="1490.7,29 1490.7,75.1 1505.6,82.6 1513.7,91.9 1513.7,58.6 1505.6,49.2 1517.8,55.1 1517.8,88.6 1536.8,98.1 
		1536.8,52 	"/>
</g>
<g class="st0">
	<polygon class="st1" points="1537.4,144.4 1537.4,98.3 1583.5,121.4 	"/>
	<polygon class="st2" points="1537.4,145.3 1537.4,191.4 1583.5,168.5 1583.5,122.4 	"/>
	<polygon points="1490.7,122.2 1490.7,168.3 1505.6,175.8 1513.7,185.2 1513.7,151.8 1505.6,142.4 1517.8,148.4 1517.8,181.9 
		1536.8,191.4 1536.8,145.3 	"/>
</g>
<g class="st0">
	<polygon class="st1" points="1537.4,237.6 1537.4,191.6 1583.5,214.6 	"/>
	<polygon class="st2" points="1537.4,238.5 1537.4,284.6 1583.5,261.7 1583.5,215.6 	"/>
	<polygon points="1490.7,215.5 1490.7,261.6 1505.6,269 1513.7,278.4 1513.7,245.1 1505.6,235.7 1517.8,241.6 1517.8,275.1 
		1536.8,284.6 1536.8,238.5 	"/>
</g>
<g class="st0">
	<polygon class="st1" points="1537.4,330.9 1537.4,284.8 1583.5,307.8 	"/>
	<polygon class="st2" points="1537.4,331.8 1537.4,377.8 1583.5,355 1583.5,308.9 	"/>
	<polygon points="1490.7,308.7 1490.7,354.8 1505.6,362.3 1513.7,371.6 1513.7,338.3 1505.6,328.9 1517.8,334.8 1517.8,368.3 
		1536.8,377.8 1536.8,331.8 	"/>
</g>
<g class="st0">
	<polygon class="st1" points="1537.4,424.1 1537.4,378 1583.5,401.1 	"/>
	<polygon class="st2" points="1537.4,425 1537.4,471.1 1583.5,448.2 1583.5,402.1 	"/>
	<polygon points="1490.7,402 1490.7,448 1505.6,455.5 1513.7,464.9 1513.7,431.6 1505.6,422.1 1517.8,428.1 1517.8,461.6 
		1536.8,471.1 1536.8,425 	"/>
</g>
<g class="st0">
	<polygon class="st1" points="1537.4,517.3 1537.4,471.3 1583.5,494.3 	"/>
	<polygon class="st2" points="1537.4,518.2 1537.4,564.3 1583.5,541.5 1583.5,495.4 	"/>
	<polygon points="1490.7,495.2 1490.7,541.3 1505.6,548.7 1513.7,558.1 1513.7,524.8 1505.6,515.4 1517.8,521.3 1517.8,554.8 
		1536.8,564.3 1536.8,518.2 	"/>
</g>
<g class="st0">
	<polygon class="st1" points="1630.2,4.1 1630.2,-42 1676.3,-19 	"/>
	<polygon class="st2" points="1630.2,5 1630.2,51 1676.3,28.2 1676.3,-17.9 	"/>
	<polygon points="1583.5,-18.1 1583.5,28 1598.4,35.5 1606.5,44.8 1606.5,11.5 1598.4,2.1 1610.6,8 1610.6,41.5 1629.6,51 1629.6,5 
			"/>
</g>
<g class="st0">
	<polygon class="st1" points="1630.2,97.3 1630.2,51.2 1676.3,74.3 	"/>
	<polygon class="st2" points="1630.2,98.2 1630.2,144.3 1676.3,121.4 1676.3,75.3 	"/>
	<polygon points="1583.5,75.2 1583.5,121.2 1598.4,128.7 1606.5,138.1 1606.5,104.8 1598.4,95.3 1610.6,101.3 1610.6,134.8 
		1629.6,144.3 1629.6,98.2 	"/>
</g>
<g class="st0">
	<polygon class="st1" points="1630.2,190.6 1630.2,144.5 1676.3,167.5 	"/>
	<polygon class="st2" points="1630.2,191.4 1630.2,237.5 1676.3,214.6 1676.3,168.6 	"/>
	<polygon points="1583.5,168.4 1583.5,214.5 1598.4,221.9 1606.5,231.3 1606.5,198 1598.4,188.6 1610.6,194.5 1610.6,228 
		1629.6,237.5 1629.6,191.4 	"/>
</g>
<g class="st0">
	<polygon class="st1" points="1630.2,283.8 1630.2,237.7 1676.3,260.8 	"/>
	<polygon class="st2" points="1630.2,284.7 1630.2,330.8 1676.3,307.9 1676.3,261.8 	"/>
	<polygon points="1583.5,261.6 1583.5,307.7 1598.4,315.2 1606.5,324.5 1606.5,291.2 1598.4,281.8 1610.6,287.8 1610.6,321.2 
		1629.6,330.8 1629.6,284.7 	"/>
</g>
<g class="st0">
	<polygon class="st1" points="1630.2,377 1630.2,331 1676.3,354 	"/>
	<polygon class="st2" points="1630.2,377.9 1630.2,424 1676.3,401.1 1676.3,355 	"/>
	<polygon points="1583.5,354.9 1583.5,401 1598.4,408.4 1606.5,417.8 1606.5,384.5 1598.4,375 1610.6,381 1610.6,414.5 1629.6,424 
		1629.6,377.9 	"/>
</g>
<g class="st0">
	<polygon class="st1" points="1630.2,470.3 1630.2,424.2 1676.3,447.2 	"/>
	<polygon class="st2" points="1630.2,471.1 1630.2,517.2 1676.3,494.4 1676.3,448.3 	"/>
	<polygon points="1583.5,448.1 1583.5,494.2 1598.4,501.7 1606.5,511 1606.5,477.7 1598.4,468.3 1610.6,474.2 1610.6,507.7 
		1629.6,517.2 1629.6,471.1 	"/>
</g>
<g class="st0">
	<polygon class="st1" points="1723,51.2 1723,5.1 1769.1,28.1 	"/>
	<polygon class="st2" points="1723,52 1723,98.1 1769.1,75.3 1769.1,29.2 	"/>
	<polygon points="1676.2,29 1676.2,75.1 1691.2,82.6 1699.3,91.9 1699.3,58.6 1691.2,49.2 1703.3,55.1 1703.3,88.6 1722.3,98.1 
		1722.3,52 	"/>
</g>
<g class="st0">
	<polygon class="st1" points="1723,144.4 1723,98.3 1769.1,121.4 	"/>
	<polygon class="st2" points="1723,145.3 1723,191.4 1769.1,168.5 1769.1,122.4 	"/>
	<polygon points="1676.2,122.2 1676.2,168.3 1691.2,175.8 1699.3,185.2 1699.3,151.8 1691.2,142.4 1703.3,148.4 1703.3,181.9 
		1722.3,191.4 1722.3,145.3 	"/>
</g>
<g class="st0">
	<polygon class="st1" points="1723,237.6 1723,191.6 1769.1,214.6 	"/>
	<polygon class="st2" points="1723,238.5 1723,284.6 1769.1,261.7 1769.1,215.6 	"/>
	<polygon points="1676.2,215.5 1676.2,261.6 1691.2,269 1699.3,278.4 1699.3,245.1 1691.2,235.7 1703.3,241.6 1703.3,275.1 
		1722.3,284.6 1722.3,238.5 	"/>
</g>
<g class="st0">
	<polygon class="st1" points="1723,330.9 1723,284.8 1769.1,307.8 	"/>
	<polygon class="st2" points="1723,331.8 1723,377.8 1769.1,355 1769.1,308.9 	"/>
	<polygon points="1676.2,308.7 1676.2,354.8 1691.2,362.3 1699.3,371.6 1699.3,338.3 1691.2,328.9 1703.3,334.8 1703.3,368.3 
		1722.3,377.8 1722.3,331.8 	"/>
</g>
<g class="st0">
	<polygon class="st1" points="1723,424.1 1723,378 1769.1,401.1 	"/>
	<polygon class="st2" points="1723,425 1723,471.1 1769.1,448.2 1769.1,402.1 	"/>
	<polygon points="1676.2,402 1676.2,448 1691.2,455.5 1699.3,464.9 1699.3,431.6 1691.2,422.1 1703.3,428.1 1703.3,461.6 
		1722.3,471.1 1722.3,425 	"/>
</g>
<g class="st0">
	<polygon class="st1" points="1723,517.3 1723,471.3 1769.1,494.3 	"/>
	<polygon class="st2" points="1723,518.2 1723,564.3 1769.1,541.5 1769.1,495.4 	"/>
	<polygon points="1676.2,495.2 1676.2,541.3 1691.2,548.7 1699.3,558.1 1699.3,524.8 1691.2,515.4 1703.3,521.3 1703.3,554.8 
		1722.3,564.3 1722.3,518.2 	"/>
</g>
<g class="st0">
	<polygon class="st1" points="1815.8,4.1 1815.8,-42 1861.8,-19 	"/>
	<polygon class="st2" points="1815.8,5 1815.8,51 1861.8,28.2 1861.8,-17.9 	"/>
	<polygon points="1769,-18.1 1769,28 1784,35.5 1792.1,44.8 1792.1,11.5 1784,2.1 1796.1,8 1796.1,41.5 1815.1,51 1815.1,5 	"/>
</g>
<g class="st0">
	<polygon class="st1" points="1815.8,97.3 1815.8,51.2 1861.8,74.3 	"/>
	<polygon class="st2" points="1815.8,98.2 1815.8,144.3 1861.8,121.4 1861.8,75.3 	"/>
	<polygon points="1769,75.2 1769,121.2 1784,128.7 1792.1,138.1 1792.1,104.8 1784,95.3 1796.1,101.3 1796.1,134.8 1815.1,144.3 
		1815.1,98.2 	"/>
</g>
<g class="st0">
	<polygon class="st1" points="1815.8,190.6 1815.8,144.5 1861.8,167.5 	"/>
	<polygon class="st2" points="1815.8,191.4 1815.8,237.5 1861.8,214.6 1861.8,168.6 	"/>
	<polygon points="1769,168.4 1769,214.5 1784,221.9 1792.1,231.3 1792.1,198 1784,188.6 1796.1,194.5 1796.1,228 1815.1,237.5 
		1815.1,191.4 	"/>
</g>
<g class="st0">
	<polygon class="st1" points="1815.8,283.8 1815.8,237.7 1861.8,260.8 	"/>
	<polygon class="st2" points="1815.8,284.7 1815.8,330.8 1861.8,307.9 1861.8,261.8 	"/>
	<polygon points="1769,261.6 1769,307.7 1784,315.2 1792.1,324.5 1792.1,291.2 1784,281.8 1796.1,287.8 1796.1,321.2 1815.1,330.8 
		1815.1,284.7 	"/>
</g>
<g class="st0">
	<polygon class="st1" points="1815.8,377 1815.8,331 1861.8,354 	"/>
	<polygon class="st2" points="1815.8,377.9 1815.8,424 1861.8,401.1 1861.8,355 	"/>
	<polygon points="1769,354.9 1769,401 1784,408.4 1792.1,417.8 1792.1,384.5 1784,375 1796.1,381 1796.1,414.5 1815.1,424 
		1815.1,377.9 	"/>
</g>
<g class="st0">
	<polygon class="st1" points="1815.8,470.3 1815.8,424.2 1861.8,447.2 	"/>
	<polygon class="st2" points="1815.8,471.1 1815.8,517.2 1861.8,494.4 1861.8,448.3 	"/>
	<polygon points="1769,448.1 1769,494.2 1784,501.7 1792.1,511 1792.1,477.7 1784,468.3 1796.1,474.2 1796.1,507.7 1815.1,517.2 
		1815.1,471.1 	"/>
</g>
<g class="st0">
	<polygon class="st1" points="1908.5,51.2 1908.5,5.1 1954.6,28.1 	"/>
	<polygon class="st2" points="1908.5,52 1908.5,98.1 1954.6,75.3 1954.6,29.2 	"/>
	<polygon points="1861.8,29 1861.8,75.1 1876.7,82.6 1884.8,91.9 1884.8,58.6 1876.7,49.2 1888.9,55.1 1888.9,88.6 1907.9,98.1 
		1907.9,52 	"/>
</g>
<g class="st0">
	<polygon class="st1" points="1908.5,144.4 1908.5,98.3 1954.6,121.4 	"/>
	<polygon class="st2" points="1908.5,145.3 1908.5,191.4 1954.6,168.5 1954.6,122.4 	"/>
	<polygon points="1861.8,122.2 1861.8,168.3 1876.7,175.8 1884.8,185.2 1884.8,151.8 1876.7,142.4 1888.9,148.4 1888.9,181.9 
		1907.9,191.4 1907.9,145.3 	"/>
</g>
<g class="st0">
	<polygon class="st1" points="1908.5,237.6 1908.5,191.6 1954.6,214.6 	"/>
	<polygon class="st2" points="1908.5,238.5 1908.5,284.6 1954.6,261.7 1954.6,215.6 	"/>
	<polygon points="1861.8,215.5 1861.8,261.6 1876.7,269 1884.8,278.4 1884.8,245.1 1876.7,235.7 1888.9,241.6 1888.9,275.1 
		1907.9,284.6 1907.9,238.5 	"/>
</g>
<g class="st0">
	<polygon class="st1" points="1908.5,330.9 1908.5,284.8 1954.6,307.8 	"/>
	<polygon class="st2" points="1908.5,331.8 1908.5,377.8 1954.6,355 1954.6,308.9 	"/>
	<polygon points="1861.8,308.7 1861.8,354.8 1876.7,362.3 1884.8,371.6 1884.8,338.3 1876.7,328.9 1888.9,334.8 1888.9,368.3 
		1907.9,377.8 1907.9,331.8 	"/>
</g>
<g class="st0">
	<polygon class="st1" points="1908.5,424.1 1908.5,378 1954.6,401.1 	"/>
	<polygon class="st2" points="1908.5,425 1908.5,471.1 1954.6,448.2 1954.6,402.1 	"/>
	<polygon points="1861.8,402 1861.8,448 1876.7,455.5 1884.8,464.9 1884.8,431.6 1876.7,422.1 1888.9,428.1 1888.9,461.6 
		1907.9,471.1 1907.9,425 	"/>
</g>
<g class="st0">
	<polygon class="st1" points="1908.5,517.3 1908.5,471.3 1954.6,494.3 	"/>
	<polygon class="st2" points="1908.5,518.2 1908.5,564.3 1954.6,541.5 1954.6,495.4 	"/>
	<polygon points="1861.8,495.2 1861.8,541.3 1876.7,548.7 1884.8,558.1 1884.8,524.8 1876.7,515.4 1888.9,521.3 1888.9,554.8 
		1907.9,564.3 1907.9,518.2 	"/>
</g>
<g class="st0">
	<polygon class="st1" points="1351.9,610.3 1351.9,564.2 1398,587.2 	"/>
	<polygon class="st2" points="1351.9,611.1 1351.9,657.2 1398,634.4 1398,588.3 	"/>
	<polygon points="1305.2,588.1 1305.2,634.2 1320.1,641.7 1328.2,651 1328.2,617.7 1320.1,608.3 1332.2,614.2 1332.2,647.7 
		1351.2,657.2 1351.2,611.1 	"/>
</g>
<g class="st0">
	<polygon class="st1" points="1351.9,703.5 1351.9,657.4 1398,680.5 	"/>
	<polygon class="st2" points="1351.9,704.4 1351.9,750.5 1398,727.6 1398,681.5 	"/>
	<polygon points="1305.2,681.3 1305.2,727.4 1320.1,734.9 1328.2,744.2 1328.2,710.9 1320.1,701.5 1332.2,707.5 1332.2,741 
		1351.2,750.5 1351.2,704.4 	"/>
</g>
<g class="st0">
	<polygon class="st1" points="1351.9,796.7 1351.9,750.7 1398,773.7 	"/>
	<polygon class="st2" points="1351.9,797.6 1351.9,843.7 1398,820.8 1398,774.8 	"/>
	<polygon points="1305.2,774.6 1305.2,820.7 1320.1,828.1 1328.2,837.5 1328.2,804.2 1320.1,794.8 1332.2,800.7 1332.2,834.2 
		1351.2,843.7 1351.2,797.6 	"/>
</g>
<g class="st0">
	<polygon class="st1" points="1351.9,890 1351.9,843.9 1398,866.9 	"/>
	<polygon class="st2" points="1351.9,890.8 1351.9,936.9 1398,914.1 1398,868 	"/>
	<polygon points="1305.2,867.8 1305.2,913.9 1320.1,921.4 1328.2,930.7 1328.2,897.4 1320.1,888 1332.2,893.9 1332.2,927.4 
		1351.2,936.9 1351.2,890.8 	"/>
</g>
<g class="st0">
	<polygon class="st1" points="1351.9,983.2 1351.9,937.1 1398,960.2 	"/>
	<polygon class="st2" points="1351.9,984.1 1351.9,1030.2 1398,1007.3 1398,961.2 	"/>
	<polygon points="1305.2,961 1305.2,1007.1 1320.1,1014.6 1328.2,1024 1328.2,990.7 1320.1,981.2 1332.2,987.2 1332.2,1020.7 
		1351.2,1030.2 1351.2,984.1 	"/>
</g>
<g class="st0">
	<polygon class="st1" points="1351.9,1076.4 1351.9,1030.4 1398,1053.4 	"/>
	<polygon class="st2" points="1351.9,1077.3 1351.9,1123.4 1398,1100.5 1398,1054.5 	"/>
	<polygon points="1305.2,1054.3 1305.2,1100.4 1320.1,1107.8 1328.2,1117.2 1328.2,1083.9 1320.1,1074.5 1332.2,1080.4 
		1332.2,1113.9 1351.2,1123.4 1351.2,1077.3 	"/>
</g>
<g class="st0">
	<polygon class="st1" points="1444.7,563.2 1444.7,517.1 1490.8,540.1 	"/>
	<polygon class="st2" points="1444.7,564 1444.7,610.1 1490.8,587.3 1490.8,541.2 	"/>
	<polygon points="1397.9,541 1397.9,587.1 1412.9,594.6 1421,603.9 1421,570.6 1412.9,561.2 1425,567.1 1425,600.6 1444,610.1 
		1444,564 	"/>
</g>
<g class="st0">
	<polygon class="st1" points="1444.7,656.4 1444.7,610.3 1490.8,633.4 	"/>
	<polygon class="st2" points="1444.7,657.3 1444.7,703.4 1490.8,680.5 1490.8,634.4 	"/>
	<polygon points="1397.9,634.2 1397.9,680.3 1412.9,687.8 1421,697.2 1421,663.9 1412.9,654.4 1425,660.4 1425,693.9 1444,703.4 
		1444,657.3 	"/>
</g>
<g class="st0">
	<polygon class="st1" points="1444.7,749.7 1444.7,703.6 1490.8,726.6 	"/>
	<polygon class="st2" points="1444.7,750.5 1444.7,796.6 1490.8,773.8 1490.8,727.7 	"/>
	<polygon points="1397.9,727.5 1397.9,773.6 1412.9,781 1421,790.4 1421,757.1 1412.9,747.7 1425,753.6 1425,787.1 1444,796.6 
		1444,750.5 	"/>
</g>
<g class="st0">
	<polygon class="st1" points="1444.7,842.9 1444.7,796.8 1490.8,819.8 	"/>
	<polygon class="st2" points="1444.7,843.8 1444.7,889.8 1490.8,867 1490.8,820.9 	"/>
	<polygon points="1397.9,820.7 1397.9,866.8 1412.9,874.3 1421,883.6 1421,850.3 1412.9,840.9 1425,846.8 1425,880.3 1444,889.8 
		1444,843.8 	"/>
</g>
<g class="st0">
	<polygon class="st1" points="1444.7,936.1 1444.7,890 1490.8,913.1 	"/>
	<polygon class="st2" points="1444.7,937 1444.7,983.1 1490.8,960.2 1490.8,914.1 	"/>
	<polygon points="1397.9,914 1397.9,960 1412.9,967.5 1421,976.9 1421,943.6 1412.9,934.2 1425,940.1 1425,973.6 1444,983.1 
		1444,937 	"/>
</g>
<g class="st0">
	<polygon class="st1" points="1444.7,1029.4 1444.7,983.3 1490.8,1006.3 	"/>
	<polygon class="st2" points="1444.7,1030.2 1444.7,1076.3 1490.8,1053.5 1490.8,1007.4 	"/>
	<polygon points="1397.9,1007.2 1397.9,1053.3 1412.9,1060.8 1421,1070.1 1421,1036.8 1412.9,1027.4 1425,1033.3 1425,1066.8 
		1444,1076.3 1444,1030.2 	"/>
</g>
<g class="st0">
	<polygon class="st1" points="1537.4,610.3 1537.4,564.2 1583.5,587.2 	"/>
	<polygon class="st2" points="1537.4,611.1 1537.4,657.2 1583.5,634.4 1583.5,588.3 	"/>
	<polygon points="1490.7,588.1 1490.7,634.2 1505.6,641.7 1513.7,651 1513.7,617.7 1505.6,608.3 1517.8,614.2 1517.8,647.7 
		1536.8,657.2 1536.8,611.1 	"/>
</g>
<g class="st0">
	<polygon class="st1" points="1537.4,703.5 1537.4,657.4 1583.5,680.5 	"/>
	<polygon class="st2" points="1537.4,704.4 1537.4,750.5 1583.5,727.6 1583.5,681.5 	"/>
	<polygon points="1490.7,681.3 1490.7,727.4 1505.6,734.9 1513.7,744.2 1513.7,710.9 1505.6,701.5 1517.8,707.5 1517.8,741 
		1536.8,750.5 1536.8,704.4 	"/>
</g>
<g class="st0">
	<polygon class="st1" points="1537.4,796.7 1537.4,750.7 1583.5,773.7 	"/>
	<polygon class="st2" points="1537.4,797.6 1537.4,843.7 1583.5,820.8 1583.5,774.8 	"/>
	<polygon points="1490.7,774.6 1490.7,820.7 1505.6,828.1 1513.7,837.5 1513.7,804.2 1505.6,794.8 1517.8,800.7 1517.8,834.2 
		1536.8,843.7 1536.8,797.6 	"/>
</g>
<g class="st0">
	<polygon class="st1" points="1537.4,890 1537.4,843.9 1583.5,866.9 	"/>
	<polygon class="st2" points="1537.4,890.8 1537.4,936.9 1583.5,914.1 1583.5,868 	"/>
	<polygon points="1490.7,867.8 1490.7,913.9 1505.6,921.4 1513.7,930.7 1513.7,897.4 1505.6,888 1517.8,893.9 1517.8,927.4 
		1536.8,936.9 1536.8,890.8 	"/>
</g>
<g class="st0">
	<polygon class="st1" points="1537.4,983.2 1537.4,937.1 1583.5,960.2 	"/>
	<polygon class="st2" points="1537.4,984.1 1537.4,1030.2 1583.5,1007.3 1583.5,961.2 	"/>
	<polygon points="1490.7,961 1490.7,1007.1 1505.6,1014.6 1513.7,1024 1513.7,990.7 1505.6,981.2 1517.8,987.2 1517.8,1020.7 
		1536.8,1030.2 1536.8,984.1 	"/>
</g>
<g class="st0">
	<polygon class="st1" points="1537.4,1076.4 1537.4,1030.4 1583.5,1053.4 	"/>
	<polygon class="st2" points="1537.4,1077.3 1537.4,1123.4 1583.5,1100.5 1583.5,1054.5 	"/>
	<polygon points="1490.7,1054.3 1490.7,1100.4 1505.6,1107.8 1513.7,1117.2 1513.7,1083.9 1505.6,1074.5 1517.8,1080.4 
		1517.8,1113.9 1536.8,1123.4 1536.8,1077.3 	"/>
</g>
<g class="st0">
	<polygon class="st1" points="1630.2,563.2 1630.2,517.1 1676.3,540.1 	"/>
	<polygon class="st2" points="1630.2,564 1630.2,610.1 1676.3,587.3 1676.3,541.2 	"/>
	<polygon points="1583.5,541 1583.5,587.1 1598.4,594.6 1606.5,603.9 1606.5,570.6 1598.4,561.2 1610.6,567.1 1610.6,600.6 
		1629.6,610.1 1629.6,564 	"/>
</g>
<g class="st0">
	<polygon class="st1" points="1630.2,656.4 1630.2,610.3 1676.3,633.4 	"/>
	<polygon class="st2" points="1630.2,657.3 1630.2,703.4 1676.3,680.5 1676.3,634.4 	"/>
	<polygon points="1583.5,634.2 1583.5,680.3 1598.4,687.8 1606.5,697.2 1606.5,663.9 1598.4,654.4 1610.6,660.4 1610.6,693.9 
		1629.6,703.4 1629.6,657.3 	"/>
</g>
<g class="st0">
	<polygon class="st1" points="1630.2,749.7 1630.2,703.6 1676.3,726.6 	"/>
	<polygon class="st2" points="1630.2,750.5 1630.2,796.6 1676.3,773.8 1676.3,727.7 	"/>
	<polygon points="1583.5,727.5 1583.5,773.6 1598.4,781 1606.5,790.4 1606.5,757.1 1598.4,747.7 1610.6,753.6 1610.6,787.1 
		1629.6,796.6 1629.6,750.5 	"/>
</g>
<g class="st0">
	<polygon class="st1" points="1630.2,842.9 1630.2,796.8 1676.3,819.8 	"/>
	<polygon class="st2" points="1630.2,843.8 1630.2,889.8 1676.3,867 1676.3,820.9 	"/>
	<polygon points="1583.5,820.7 1583.5,866.8 1598.4,874.3 1606.5,883.6 1606.5,850.3 1598.4,840.9 1610.6,846.8 1610.6,880.3 
		1629.6,889.8 1629.6,843.8 	"/>
</g>
<g class="st0">
	<polygon class="st1" points="1630.2,936.1 1630.2,890 1676.3,913.1 	"/>
	<polygon class="st2" points="1630.2,937 1630.2,983.1 1676.3,960.2 1676.3,914.1 	"/>
	<polygon points="1583.5,914 1583.5,960 1598.4,967.5 1606.5,976.9 1606.5,943.6 1598.4,934.2 1610.6,940.1 1610.6,973.6 
		1629.6,983.1 1629.6,937 	"/>
</g>
<g class="st0">
	<polygon class="st1" points="1630.2,1029.4 1630.2,983.3 1676.3,1006.3 	"/>
	<polygon class="st2" points="1630.2,1030.2 1630.2,1076.3 1676.3,1053.5 1676.3,1007.4 	"/>
	<polygon points="1583.5,1007.2 1583.5,1053.3 1598.4,1060.8 1606.5,1070.1 1606.5,1036.8 1598.4,1027.4 1610.6,1033.3 
		1610.6,1066.8 1629.6,1076.3 1629.6,1030.2 	"/>
</g>
<g class="st0">
	<polygon class="st1" points="1723,610.3 1723,564.2 1769.1,587.2 	"/>
	<polygon class="st2" points="1723,611.1 1723,657.2 1769.1,634.4 1769.1,588.3 	"/>
	<polygon points="1676.2,588.1 1676.2,634.2 1691.2,641.7 1699.3,651 1699.3,617.7 1691.2,608.3 1703.3,614.2 1703.3,647.7 
		1722.3,657.2 1722.3,611.1 	"/>
</g>
<g class="st0">
	<polygon class="st1" points="1723,703.5 1723,657.4 1769.1,680.5 	"/>
	<polygon class="st2" points="1723,704.4 1723,750.5 1769.1,727.6 1769.1,681.5 	"/>
	<polygon points="1676.2,681.3 1676.2,727.4 1691.2,734.9 1699.3,744.2 1699.3,710.9 1691.2,701.5 1703.3,707.5 1703.3,741 
		1722.3,750.5 1722.3,704.4 	"/>
</g>
<g class="st0">
	<polygon class="st1" points="1723,796.7 1723,750.7 1769.1,773.7 	"/>
	<polygon class="st2" points="1723,797.6 1723,843.7 1769.1,820.8 1769.1,774.8 	"/>
	<polygon points="1676.2,774.6 1676.2,820.7 1691.2,828.1 1699.3,837.5 1699.3,804.2 1691.2,794.8 1703.3,800.7 1703.3,834.2 
		1722.3,843.7 1722.3,797.6 	"/>
</g>
<g class="st0">
	<polygon class="st1" points="1723,890 1723,843.9 1769.1,866.9 	"/>
	<polygon class="st2" points="1723,890.8 1723,936.9 1769.1,914.1 1769.1,868 	"/>
	<polygon points="1676.2,867.8 1676.2,913.9 1691.2,921.4 1699.3,930.7 1699.3,897.4 1691.2,888 1703.3,893.9 1703.3,927.4 
		1722.3,936.9 1722.3,890.8 	"/>
</g>
<g class="st0">
	<polygon class="st1" points="1723,983.2 1723,937.1 1769.1,960.2 	"/>
	<polygon class="st2" points="1723,984.1 1723,1030.2 1769.1,1007.3 1769.1,961.2 	"/>
	<polygon points="1676.2,961 1676.2,1007.1 1691.2,1014.6 1699.3,1024 1699.3,990.7 1691.2,981.2 1703.3,987.2 1703.3,1020.7 
		1722.3,1030.2 1722.3,984.1 	"/>
</g>
<g class="st0">
	<polygon class="st1" points="1723,1076.4 1723,1030.4 1769.1,1053.4 	"/>
	<polygon class="st2" points="1723,1077.3 1723,1123.4 1769.1,1100.5 1769.1,1054.5 	"/>
	<polygon points="1676.2,1054.3 1676.2,1100.4 1691.2,1107.8 1699.3,1117.2 1699.3,1083.9 1691.2,1074.5 1703.3,1080.4 
		1703.3,1113.9 1722.3,1123.4 1722.3,1077.3 	"/>
</g>
<g class="st0">
	<polygon class="st1" points="1815.8,563.2 1815.8,517.1 1861.8,540.1 	"/>
	<polygon class="st2" points="1815.8,564 1815.8,610.1 1861.8,587.3 1861.8,541.2 	"/>
	<polygon points="1769,541 1769,587.1 1784,594.6 1792.1,603.9 1792.1,570.6 1784,561.2 1796.1,567.1 1796.1,600.6 1815.1,610.1 
		1815.1,564 	"/>
</g>
<g class="st0">
	<polygon class="st1" points="1815.8,656.4 1815.8,610.3 1861.8,633.4 	"/>
	<polygon class="st2" points="1815.8,657.3 1815.8,703.4 1861.8,680.5 1861.8,634.4 	"/>
	<polygon points="1769,634.2 1769,680.3 1784,687.8 1792.1,697.2 1792.1,663.9 1784,654.4 1796.1,660.4 1796.1,693.9 1815.1,703.4 
		1815.1,657.3 	"/>
</g>
<g class="st0">
	<polygon class="st1" points="1815.8,749.7 1815.8,703.6 1861.8,726.6 	"/>
	<polygon class="st2" points="1815.8,750.5 1815.8,796.6 1861.8,773.8 1861.8,727.7 	"/>
	<polygon points="1769,727.5 1769,773.6 1784,781 1792.1,790.4 1792.1,757.1 1784,747.7 1796.1,753.6 1796.1,787.1 1815.1,796.6 
		1815.1,750.5 	"/>
</g>
<g class="st0">
	<polygon class="st1" points="1815.8,842.9 1815.8,796.8 1861.8,819.8 	"/>
	<polygon class="st2" points="1815.8,843.8 1815.8,889.8 1861.8,867 1861.8,820.9 	"/>
	<polygon points="1769,820.7 1769,866.8 1784,874.3 1792.1,883.6 1792.1,850.3 1784,840.9 1796.1,846.8 1796.1,880.3 1815.1,889.8 
		1815.1,843.8 	"/>
</g>
<g class="st0">
	<polygon class="st1" points="1815.8,936.1 1815.8,890 1861.8,913.1 	"/>
	<polygon class="st2" points="1815.8,937 1815.8,983.1 1861.8,960.2 1861.8,914.1 	"/>
	<polygon points="1769,914 1769,960 1784,967.5 1792.1,976.9 1792.1,943.6 1784,934.2 1796.1,940.1 1796.1,973.6 1815.1,983.1 
		1815.1,937 	"/>
</g>
<g class="st0">
	<polygon class="st1" points="1815.8,1029.4 1815.8,983.3 1861.8,1006.3 	"/>
	<polygon class="st2" points="1815.8,1030.2 1815.8,1076.3 1861.8,1053.5 1861.8,1007.4 	"/>
	<polygon points="1769,1007.2 1769,1053.3 1784,1060.8 1792.1,1070.1 1792.1,1036.8 1784,1027.4 1796.1,1033.3 1796.1,1066.8 
		1815.1,1076.3 1815.1,1030.2 	"/>
</g>
<g class="st0">
	<polygon class="st1" points="1908.5,610.3 1908.5,564.2 1954.6,587.2 	"/>
	<polygon class="st2" points="1908.5,611.1 1908.5,657.2 1954.6,634.4 1954.6,588.3 	"/>
	<polygon points="1861.8,588.1 1861.8,634.2 1876.7,641.7 1884.8,651 1884.8,617.7 1876.7,608.3 1888.9,614.2 1888.9,647.7 
		1907.9,657.2 1907.9,611.1 	"/>
</g>
<g class="st0">
	<polygon class="st1" points="1908.5,703.5 1908.5,657.4 1954.6,680.5 	"/>
	<polygon class="st2" points="1908.5,704.4 1908.5,750.5 1954.6,727.6 1954.6,681.5 	"/>
	<polygon points="1861.8,681.3 1861.8,727.4 1876.7,734.9 1884.8,744.2 1884.8,710.9 1876.7,701.5 1888.9,707.5 1888.9,741 
		1907.9,750.5 1907.9,704.4 	"/>
</g>
<g class="st0">
	<polygon class="st1" points="1908.5,796.7 1908.5,750.7 1954.6,773.7 	"/>
	<polygon class="st2" points="1908.5,797.6 1908.5,843.7 1954.6,820.8 1954.6,774.8 	"/>
	<polygon points="1861.8,774.6 1861.8,820.7 1876.7,828.1 1884.8,837.5 1884.8,804.2 1876.7,794.8 1888.9,800.7 1888.9,834.2 
		1907.9,843.7 1907.9,797.6 	"/>
</g>
<g class="st0">
	<polygon class="st1" points="1908.5,890 1908.5,843.9 1954.6,866.9 	"/>
	<polygon class="st2" points="1908.5,890.8 1908.5,936.9 1954.6,914.1 1954.6,868 	"/>
	<polygon points="1861.8,867.8 1861.8,913.9 1876.7,921.4 1884.8,930.7 1884.8,897.4 1876.7,888 1888.9,893.9 1888.9,927.4 
		1907.9,936.9 1907.9,890.8 	"/>
</g>
<g class="st0">
	<polygon class="st1" points="1908.5,983.2 1908.5,937.1 1954.6,960.2 	"/>
	<polygon class="st2" points="1908.5,984.1 1908.5,1030.2 1954.6,1007.3 1954.6,961.2 	"/>
	<polygon points="1861.8,961 1861.8,1007.1 1876.7,1014.6 1884.8,1024 1884.8,990.7 1876.7,981.2 1888.9,987.2 1888.9,1020.7 
		1907.9,1030.2 1907.9,984.1 	"/>
</g>
<g class="st0">
	<polygon class="st1" points="1908.5,1076.4 1908.5,1030.4 1954.6,1053.4 	"/>
	<polygon class="st2" points="1908.5,1077.3 1908.5,1123.4 1954.6,1100.5 1954.6,1054.5 	"/>
	<polygon points="1861.8,1054.3 1861.8,1100.4 1876.7,1107.8 1884.8,1117.2 1884.8,1083.9 1876.7,1074.5 1888.9,1080.4 
		1888.9,1113.9 1907.9,1123.4 1907.9,1077.3 	"/>
</g>
</svg>
