<svg xmlns="http://www.w3.org/2000/svg" version="1.1" xmlns:xlink="http://www.w3.org/1999/xlink" xmlns:svgjs="http://svgjs.dev/svgjs" width="1440" height="560" preserveAspectRatio="none" viewBox="0 0 1440 560"><g mask="url(&quot;#SvgjsMask1023&quot;)" fill="none"><rect width="1440" height="560" x="0" y="0" fill="rgba(7, 52, 47, 1)"></rect><path d="M 0,66 C 96,56.6 288,19.4 480,19 C 672,18.6 768,59.8 960,64 C 1152,68.2 1344,44.8 1440,40L1440 560L0 560z" fill="rgba(56, 153, 104, 1)"></path><path d="M 0,151 C 57.6,145.2 172.8,122.8 288,122 C 403.2,121.2 460.8,146.4 576,147 C 691.2,147.6 748.8,117.8 864,125 C 979.2,132.2 1036.8,187.4 1152,183 C 1267.2,178.6 1382.4,119 1440,103L1440 560L0 560z" fill="rgba(112, 207, 154, 1)"></path><path d="M 0,238 C 96,235.4 288,220 480,225 C 672,230 768,264.4 960,263 C 1152,261.6 1344,227 1440,218L1440 560L0 560z" fill="rgba(172, 223, 194, 1)"></path><path d="M 0,285 C 96,302.2 288,369.2 480,371 C 672,372.8 768,296 960,294 C 1152,292 1344,347.6 1440,361L1440 560L0 560z" fill="rgba(112, 207, 154, 1)"></path><path d="M 0,445 C 57.6,433.2 172.8,388.2 288,386 C 403.2,383.8 460.8,435.2 576,434 C 691.2,432.8 748.8,378 864,380 C 979.2,382 1036.8,440.4 1152,444 C 1267.2,447.6 1382.4,407.2 1440,398L1440 560L0 560z" fill="rgba(56, 153, 104, 1)"></path><path d="M 0,479 C 96,486.6 288,515.8 480,517 C 672,518.2 768,483.6 960,485 C 1152,486.4 1344,516.2 1440,524L1440 560L0 560z" fill="rgba(7, 52, 47, 1)"></path></g><defs><mask id="SvgjsMask1023"><rect width="1440" height="560" fill="#ffffff"></rect></mask></defs></svg>