<svg xmlns="http://www.w3.org/2000/svg" version="1.1" xmlns:xlink="http://www.w3.org/1999/xlink" xmlns:svgjs="http://svgjs.dev/svgjs" width="1440" height="560" preserveAspectRatio="none" viewBox="0 0 1440 560"><g mask="url(&quot;#SvgjsMask1125&quot;)" fill="none"><rect width="1440" height="560" x="0" y="0" fill="rgba(238, 240, 229, 1)"></rect><path d="M 460,-1021.5346839429532 C 512.4,-909.53 702.8,-685.53 722,-461.53468394295317 C 741.2,-237.53 486,-105.84 556,98.46531605704683 C 626,302.77 968.8,467.69 1072,560" stroke="rgba(7, 52, 47, 1)" stroke-width="2"></path><path d="M 887,-186.4396358655643 C 764.4,-74.44 304.6,149.56 274,373.5603641344357 C 243.4,597.56 703.6,896.27 734,933.5603641344358 C 764.4,970.85 487.6,634.71 426,560" stroke="rgba(7, 52, 47, 1)" stroke-width="2"></path><path d="M 529,-488.4699925450799 C 577.8,-376.47 787.6,-152.47 773,71.5300074549201 C 758.4,295.53 416.8,533.84 456,631.5300074549201 C 495.2,729.22 866.4,574.31 969,560" stroke="rgba(7, 52, 47, 1)" stroke-width="2"></path><path d="M 220,-801.6339395068815 C 338,-689.63 718.8,-465.63 810,-241.6339395068815 C 901.2,-17.63 648.4,158.04 676,318.36606049311854 C 703.6,478.69 893.6,511.67 948,560" stroke="rgba(7, 52, 47, 1)" stroke-width="2"></path><path d="M 727,-1055.4038700383612 C 716,-943.4 588,-719.4 672,-495.4038700383613 C 756,-271.4 1138.2,-146.48 1147,64.59612996163872 C 1155.8,275.68 802.2,460.92 716,560" stroke="rgba(7, 52, 47, 1)" stroke-width="2"></path><path d="M 724,-689.535086693673 C 703.8,-577.54 572,-353.54 623,-129.53508669367298 C 674,94.46 970.6,292.56 979,430.46491330632705 C 987.4,568.37 727.8,534.09 665,560" stroke="rgba(7, 52, 47, 1)" stroke-width="2"></path></g><defs><mask id="SvgjsMask1125"><rect width="1440" height="560" fill="#ffffff"></rect></mask></defs></svg>