<svg xmlns="http://www.w3.org/2000/svg" viewBox="0 0 208.55 279.26"><defs><style>.cls-1{fill:#fff;}</style></defs><g id="Layer_2" data-name="Layer 2"><g id="Layer_1-2" data-name="Layer 1"><path class="cls-1" d="M1.63,260.93a1.63,1.63,0,1,1,0-3.26h6.1a4.49,4.49,0,0,0,4.41-4.42,4.56,4.56,0,0,0-.3-1.59L1,223.45a1.62,1.62,0,0,1,1.52-2.21,1.65,1.65,0,0,1,1.57,1l10.7,28a9,9,0,0,1,.59,3,7.69,7.69,0,0,1-7.67,7.68Z"/><path class="cls-1" d="M42.1,260.93a1.63,1.63,0,0,1,0-3.26h6.1a4.5,4.5,0,0,0,4.42-4.42,4.58,4.58,0,0,0-.31-1.59L41.49,223.45A1.63,1.63,0,0,1,43,221.24a1.65,1.65,0,0,1,1.57,1l10.7,28a9.07,9.07,0,0,1,.59,3,7.69,7.69,0,0,1-7.67,7.68Z"/><path class="cls-1" d="M68.14,260.93a1.65,1.65,0,0,1-1.54-1.07l-10.69-28A7.77,7.77,0,0,1,63,221.13h6.07a1.66,1.66,0,0,1,0,3.31H63a4.42,4.42,0,0,0-4.42,4.42,4.58,4.58,0,0,0,.31,1.59l10.81,28.23a1.64,1.64,0,0,1-.18,1.53A1.66,1.66,0,0,1,68.14,260.93Z"/><path class="cls-1" d="M124.71,260.93A7.74,7.74,0,0,1,117,253.2V222.82a1.63,1.63,0,0,1,3.26,0v30.49a4.46,4.46,0,0,0,4.35,4.36h6.33a1.63,1.63,0,1,1,0,3.26Z"/><path class="cls-1" d="M89.77,260.93a1.63,1.63,0,0,1-1.63-1.63l0-30.15a4.39,4.39,0,0,0-4.42-4.59,4.44,4.44,0,0,0-4.41,4.35V259.3a1.63,1.63,0,0,1-3.26,0v-30a7.86,7.86,0,0,1,7.71-8l.5,0A7.71,7.71,0,0,1,91.4,229V259.3A1.63,1.63,0,0,1,89.77,260.93Z"/><path class="cls-1" d="M206.92,260.93a1.63,1.63,0,0,1-1.63-1.63l0-30.15a4.39,4.39,0,0,0-4.42-4.59,4.44,4.44,0,0,0-4.41,4.35V259.3a1.63,1.63,0,0,1-3.26,0v-30a7.86,7.86,0,0,1,7.71-8l.5,0a7.71,7.71,0,0,1,7.19,7.65V259.3A1.63,1.63,0,0,1,206.92,260.93Z"/><path class="cls-1" d="M28.64,261a7.74,7.74,0,0,1-7.73-7.73V222.87a1.63,1.63,0,0,1,3.26,0v30.19a4.54,4.54,0,0,0,3.56,4.52,4.68,4.68,0,0,0,.91.09,4.42,4.42,0,0,0,4.41-4.42,4.49,4.49,0,0,0-4-4.44v0l-.35,0a1.63,1.63,0,0,1-.14-3.26l.22,0a7.63,7.63,0,0,1,5.62,2.6,7.75,7.75,0,0,1-4.94,12.8A7.63,7.63,0,0,1,28.64,261Z"/><path class="cls-1" d="M165.58,261a7.74,7.74,0,0,1-7.73-7.73V222.87a1.63,1.63,0,0,1,3.26,0v30.19a4.54,4.54,0,0,0,3.55,4.52,4.78,4.78,0,0,0,.92.09,4.42,4.42,0,0,0,4.41-4.42,4.49,4.49,0,0,0-4-4.44v0l-.36,0a1.63,1.63,0,0,1-.13-3.26l.22,0a7.61,7.61,0,0,1,5.61,2.6A7.69,7.69,0,0,1,165.58,261Z"/><path class="cls-1" d="M138.57,260.93a1.63,1.63,0,0,1,0-3.26h6.09a4.5,4.5,0,0,0,4.42-4.42,4.67,4.67,0,0,0-.31-1.59L138,223.45a1.63,1.63,0,0,1,1.52-2.21,1.66,1.66,0,0,1,1.58,1l10.69,28a8.86,8.86,0,0,1,.6,3,7.69,7.69,0,0,1-7.68,7.68Z"/><path class="cls-1" d="M185.29,260.93a1.65,1.65,0,0,1-1.54-1.07l-10.69-28a7.75,7.75,0,0,1,7.08-10.74h6.07a1.66,1.66,0,0,1,0,3.31h-6.07a4.42,4.42,0,0,0-4.42,4.42,4.58,4.58,0,0,0,.31,1.59l10.81,28.23a1.66,1.66,0,0,1-1.55,2.25Z"/><path class="cls-1" d="M133.07,277.21a2,2,0,0,1-2,2h-13.9V277.6h13.6c.44,0,.66-.21.67-.61v-.41c0-.44-.22-.66-.68-.66H119.15q-2,0-2-1.86V273a1.76,1.76,0,0,1,2-2l14,0v1.66H119.46a.59.59,0,0,0-.66.67v.33c0,.45.22.67.64.67H131a1.77,1.77,0,0,1,2,2Z"/><path class="cls-1" d="M186.4,279.24h0a.81.81,0,0,1-.82-.82v-1.68a.82.82,0,0,0-.82-.82h-11a.82.82,0,0,0-.82.82v1.68a.81.81,0,0,1-.82.82h0a.82.82,0,0,1-.82-.82v-6.65a.82.82,0,0,1,.82-.82h0a.82.82,0,0,1,.82.82v1.68a.82.82,0,0,0,.82.81h11a.82.82,0,0,0,.82-.81v-1.68a.82.82,0,0,1,.82-.82h0a.82.82,0,0,1,.82.82v6.65A.82.82,0,0,1,186.4,279.24Z"/><path class="cls-1" d="M204,279.24H189.73a.83.83,0,0,1-.83-.83v-6.63a.83.83,0,0,1,.83-.83h0a.83.83,0,0,1,.83.83v5a.83.83,0,0,0,.82.83H204a.83.83,0,0,1,.83.83h0A.83.83,0,0,1,204,279.24Z"/><path class="cls-1" d="M206.86,278.37v-6.59a.85.85,0,0,1,.84-.85h0a.85.85,0,0,1,.85.85v6.59a.85.85,0,0,1-.85.85h0A.85.85,0,0,1,206.86,278.37Z"/><path class="cls-1" d="M167.3,275.08l1.6-2.8a.88.88,0,0,0-1.51-.91h0l-1.57,2.6h0a.56.56,0,0,1-.49.28H154.63a.57.57,0,0,1-.58-.57h0V271.8a.85.85,0,1,0-1.69,0v6.6a.85.85,0,0,0,1.69,0v-1.89h0a.58.58,0,0,1,.58-.58h10.69a.58.58,0,0,1,.51.32h0l1.56,2.59a.87.87,0,0,0,1.19.3.88.88,0,0,0,.31-1.2Z"/><path class="cls-1" d="M148.68,270.93H136.76c-1.33,0-2,.69-2,1.42v6.07a.83.83,0,0,0,1.65,0V276.5a.58.58,0,0,1,.58-.58h11.44a.58.58,0,0,1,.58.58v1.9a.84.84,0,1,0,1.68,0v-6C150.69,271.63,150,270.93,148.68,270.93Zm.33,2.75a.57.57,0,0,1-.58.57H137a.58.58,0,0,1-.58-.57v-.41a.6.6,0,0,1,.67-.68h11.27a.67.67,0,0,1,.66.66Z"/><path class="cls-1" d="M86.83,279.24H72.55a.83.83,0,0,1-.83-.83v-6.63a.83.83,0,0,1,.83-.83h0a.83.83,0,0,1,.83.83v5a.83.83,0,0,0,.83.83H86.83a.84.84,0,0,1,.83.83h0A.83.83,0,0,1,86.83,279.24Z"/><path class="cls-1" d="M89.68,278.37v-6.59a.84.84,0,0,1,.84-.85h0a.85.85,0,0,1,.85.85v6.59a.85.85,0,0,1-.85.85h0A.84.84,0,0,1,89.68,278.37Z"/><path class="cls-1" d="M51.61,271a.83.83,0,0,0-.82.83h0v1.91h0a.56.56,0,0,1-.57.57H38.73a.57.57,0,0,1-.58-.57h0v-1.92a.82.82,0,0,0-1.64,0v6.65a.82.82,0,0,0,1.64,0V276.5a.58.58,0,0,1,.58-.58H50.21a.57.57,0,0,1,.57.58v1.92a.83.83,0,0,0,1.66,0v-6.64A.83.83,0,0,0,51.61,271Z"/><path class="cls-1" d="M32.5,275.08l1.6-2.8a.88.88,0,0,0-1.5-.91h0L31,274h0a.56.56,0,0,1-.49.28H19.83a.56.56,0,0,1-.57-.57h0V271.8a.85.85,0,0,0-1.7,0v6.6a.85.85,0,0,0,1.7,0v-1.89h0a.57.57,0,0,1,.57-.58H30.52a.57.57,0,0,1,.51.32h0l1.56,2.59a.87.87,0,0,0,1.5-.9Z"/><path class="cls-1" d="M13.92,270.93H2c-1.33,0-2,.69-2,1.42v6.07a.83.83,0,0,0,1.65,0V276.5a.58.58,0,0,1,.58-.58H13.67a.58.58,0,0,1,.58.58v1.9a.84.84,0,0,0,1.68,0v-6C15.93,271.63,15.26,270.93,13.92,270.93Zm.33,2.75a.57.57,0,0,1-.58.57H2.23a.58.58,0,0,1-.58-.57v-.41a.6.6,0,0,1,.67-.68H13.59a.67.67,0,0,1,.66.66Z"/><path class="cls-1" d="M68.08,270.93H56.16c-1.34,0-2,.69-2,1.42v6.07a.83.83,0,0,0,1.65,0V276.5a.58.58,0,0,1,.58-.58H67.83a.57.57,0,0,1,.57.58v1.9a.84.84,0,1,0,1.68,0v-6C70.08,271.63,69.41,270.93,68.08,270.93Zm.32,2.75a.56.56,0,0,1-.57.57H56.39a.58.58,0,0,1-.58-.57v-.41a.6.6,0,0,1,.67-.68H67.74a.66.66,0,0,1,.66.66Z"/><polygon class="cls-1" points="104.28 98.85 104.28 0 203.13 49.43 104.28 98.85"/><polygon class="cls-1" points="104.28 100.73 104.28 199.58 203.13 150.54 203.13 51.69 104.28 100.73"/><polygon class="cls-1" points="4.01 51.3 4.01 150.15 36.08 166.19 53.44 186.27 53.44 114.81 36.08 94.6 62.12 107.34 62.12 179.21 102.86 199.58 102.86 100.73 4.01 51.3"/></g></g></svg>