<svg xmlns="http://www.w3.org/2000/svg" viewBox="0 0 570.18 243.13"><defs><style>.cls-1{fill:#fff;}.cls-2{fill:none;stroke:#fff;stroke-linecap:round;stroke-miterlimit:10;}</style></defs><g id="Layer_2" data-name="Layer 2"><g id="Layer_1-2" data-name="Layer 1"><path class="cls-1" d="M269.06,143.58a2.37,2.37,0,0,1,0-4.74h8.88a6.55,6.55,0,0,0,6.42-6.42,6.66,6.66,0,0,0-.44-2.32l-15.75-41a2.31,2.31,0,0,1,.26-2.19,2.35,2.35,0,0,1,1.95-1,2.42,2.42,0,0,1,2.29,1.53L288.23,128a13,13,0,0,1,.87,4.39,11.18,11.18,0,0,1-11.16,11.16Z"/><path class="cls-1" d="M328,143.58a2.37,2.37,0,0,1,0-4.74h8.87a6.55,6.55,0,0,0,6.43-6.42,6.66,6.66,0,0,0-.44-2.32l-15.75-41a2.31,2.31,0,0,1,.26-2.19,2.35,2.35,0,0,1,1.95-1,2.42,2.42,0,0,1,2.29,1.53L347.13,128a13,13,0,0,1,.87,4.39,11.18,11.18,0,0,1-11.17,11.16Z"/><path class="cls-1" d="M365.86,143.58a2.41,2.41,0,0,1-2.25-1.55L348.05,101.3a11.47,11.47,0,0,1-.86-4.38,11.35,11.35,0,0,1,11.16-11.25h8.84a2.41,2.41,0,1,1,0,4.82h-8.84a6.43,6.43,0,0,0-6.42,6.43,6.65,6.65,0,0,0,.44,2.31l15.73,41.08a2.4,2.4,0,0,1-2.24,3.27Z"/><path class="cls-1" d="M448.17,143.58a11.26,11.26,0,0,1-11.25-11.24V88.12a2.37,2.37,0,0,1,4.74,0V132.5a6.5,6.5,0,0,0,6.33,6.34h9.22a2.37,2.37,0,0,1,0,4.74Z"/><path class="cls-1" d="M397.33,143.58a2.37,2.37,0,0,1-2.37-2.37l-.08-43.87a6.58,6.58,0,0,0-4.83-6.48,6.16,6.16,0,0,0-1.6-.21A6.47,6.47,0,0,0,382,97v44.21a2.37,2.37,0,0,1-4.74,0V97.53A11.42,11.42,0,0,1,388.5,85.92c.24,0,.49,0,.73,0A11.22,11.22,0,0,1,399.7,97.08v44.13A2.37,2.37,0,0,1,397.33,143.58Z"/><path class="cls-1" d="M567.81,143.58a2.37,2.37,0,0,1-2.37-2.37l-.09-43.87a6.57,6.57,0,0,0-4.82-6.48,6.28,6.28,0,0,0-1.6-.21A6.47,6.47,0,0,0,552.51,97v44.21a2.37,2.37,0,0,1-4.74,0V97.53A11.42,11.42,0,0,1,559,85.92c.24,0,.48,0,.73,0a11.22,11.22,0,0,1,10.47,11.14v44.13A2.38,2.38,0,0,1,567.81,143.58Z"/><path class="cls-1" d="M308.37,143.66a11.26,11.26,0,0,1-11.25-11.24V88.2a2.37,2.37,0,1,1,4.74,0v43.93a6.48,6.48,0,0,0,6.51,6.71,6.43,6.43,0,0,0,6.42-6.42A6.54,6.54,0,0,0,309,126v0l-.52,0a2.37,2.37,0,0,1-.19-4.73l.31,0a11.25,11.25,0,0,1,1,22.42C309.16,143.64,308.76,143.66,308.37,143.66Z"/><path class="cls-1" d="M507.64,143.66a11.26,11.26,0,0,1-11.25-11.24V88.2a2.37,2.37,0,0,1,4.74,0v43.93a6.48,6.48,0,0,0,6.51,6.71,6.44,6.44,0,0,0,6.43-6.42,6.55,6.55,0,0,0-5.83-6.47v0l-.52,0a2.37,2.37,0,0,1-.19-4.73l.32,0a11.25,11.25,0,0,1,1,22.42Q508.23,143.66,507.64,143.66Z"/><path class="cls-1" d="M468.33,143.58a2.37,2.37,0,0,1,0-4.74h8.88a6.54,6.54,0,0,0,6.42-6.42,6.74,6.74,0,0,0-.44-2.32l-15.75-41a2.37,2.37,0,0,1,2.21-3.22,2.41,2.41,0,0,1,2.29,1.53L487.51,128a13,13,0,0,1,.86,4.39,11.18,11.18,0,0,1-11.16,11.16Z"/><path class="cls-1" d="M536.33,143.58a2.43,2.43,0,0,1-2.25-1.55L518.53,101.3a11.29,11.29,0,0,1,10.3-15.63h8.84a2.41,2.41,0,0,1,0,4.82h-8.84a6.44,6.44,0,0,0-6.43,6.43,6.67,6.67,0,0,0,.45,2.31l15.73,41.08a2.41,2.41,0,0,1-2.25,3.27Z"/><line class="cls-2" x1="228.11" y1="0.5" x2="228.11" y2="242.63"/><path class="cls-1" d="M460.34,167.27a3,3,0,0,1-3,3H437.15l0-2.4H457c.64,0,1-.29,1-.89v-.59c0-.63-.32-1-1-1H440.07c-1.95,0-2.92-.91-2.92-2.71v-1.6c0-2,1-2.94,2.87-2.94l20.32,0v2.42H440.53a.85.85,0,0,0-1,1V162c0,.65.31,1,.94,1h16.88c2,0,2.95,1,2.95,2.86Z"/><path class="cls-1" d="M537.94,170.24h0a1.19,1.19,0,0,1-1.19-1.2V166.6a1.19,1.19,0,0,0-1.19-1.19h-16a1.19,1.19,0,0,0-1.19,1.19V169a1.2,1.2,0,0,1-1.2,1.2h0A1.19,1.19,0,0,1,516,169v-9.67a1.19,1.19,0,0,1,1.19-1.2h0a1.2,1.2,0,0,1,1.2,1.2v2.43a1.19,1.19,0,0,0,1.19,1.19h16a1.19,1.19,0,0,0,1.19-1.19v-2.43a1.19,1.19,0,0,1,1.19-1.2h0a1.19,1.19,0,0,1,1.19,1.2V169A1.19,1.19,0,0,1,537.94,170.24Z"/><path class="cls-1" d="M563.57,170.24H542.79a1.21,1.21,0,0,1-1.21-1.21v-9.66a1.21,1.21,0,0,1,1.21-1.21h0a1.21,1.21,0,0,1,1.2,1.21v7.25a1.21,1.21,0,0,0,1.21,1.2h18.36a1.21,1.21,0,0,1,1.2,1.21h0A1.21,1.21,0,0,1,563.57,170.24Z"/><path class="cls-1" d="M567.71,169v-9.6a1.23,1.23,0,0,1,1.23-1.23h0a1.24,1.24,0,0,1,1.24,1.23V169a1.24,1.24,0,0,1-1.24,1.23h0A1.23,1.23,0,0,1,567.71,169Z"/><path class="cls-1" d="M510.15,164.18l2.32-4.07a1.29,1.29,0,0,0-.44-1.76,1.27,1.27,0,0,0-1.74.44h0L508,162.58h0a.83.83,0,0,1-.72.41H491.71a.84.84,0,0,1-.84-.84h0l0-2.74a1.24,1.24,0,0,0-2.47,0V169a1.24,1.24,0,0,0,2.47,0l0-2.75h0a.84.84,0,0,1,.84-.84h15.55a.84.84,0,0,1,.75.46h0l2.27,3.78a1.27,1.27,0,0,0,2.18-1.32Z"/><path class="cls-1" d="M483.05,158.14H465.71c-1.94,0-2.91,1-2.91,2.07V169a1.2,1.2,0,1,0,2.4,0v-2.78a.84.84,0,0,1,.84-.84h16.65a.84.84,0,0,1,.84.84V169a1.22,1.22,0,1,0,2.44,0v-8.77C486,159.15,485,158.14,483.05,158.14Zm.48,4a.85.85,0,0,1-.84.84H466a.85.85,0,0,1-.84-.84v-.59a.86.86,0,0,1,1-1h16.4a1,1,0,0,1,1,1Z"/><path class="cls-1" d="M393,170.24H372.26a1.21,1.21,0,0,1-1.21-1.21v-9.66a1.21,1.21,0,0,1,1.21-1.21h0a1.21,1.21,0,0,1,1.21,1.21v7.25a1.21,1.21,0,0,0,1.21,1.2H393a1.21,1.21,0,0,1,1.21,1.21h0A1.21,1.21,0,0,1,393,170.24Z"/><path class="cls-1" d="M397.19,169v-9.6a1.23,1.23,0,0,1,1.23-1.23h0a1.23,1.23,0,0,1,1.23,1.23V169a1.23,1.23,0,0,1-1.23,1.23h0A1.23,1.23,0,0,1,397.19,169Z"/><path class="cls-1" d="M341.8,158.17a1.2,1.2,0,0,0-1.2,1.2h0v2.78h0a.83.83,0,0,1-.84.84h-16.7a.84.84,0,0,1-.84-.84h0v-2.78a1.2,1.2,0,1,0-2.39,0V169a1.2,1.2,0,1,0,2.39,0v-2.79a.84.84,0,0,1,.84-.84h16.7a.83.83,0,0,1,.84.84V169a1.21,1.21,0,1,0,2.41,0v-9.66A1.2,1.2,0,0,0,341.8,158.17Z"/><path class="cls-1" d="M314,164.18l2.32-4.07a1.28,1.28,0,1,0-2.19-1.32h0l-2.29,3.79h0a.83.83,0,0,1-.72.41H295.55a.84.84,0,0,1-.84-.84h0l0-2.74a1.24,1.24,0,0,0-2.47,0V169a1.24,1.24,0,0,0,2.47,0l0-2.75h0a.84.84,0,0,1,.84-.84H311.1a.84.84,0,0,1,.75.46h0l2.27,3.78a1.27,1.27,0,0,0,2.18-1.32Z"/><path class="cls-1" d="M287,158.14H269.6c-1.94,0-2.91,1-2.91,2.07V169a1.21,1.21,0,1,0,2.41,0v-2.78a.83.83,0,0,1,.84-.84h16.64a.84.84,0,0,1,.84.84V169a1.22,1.22,0,1,0,2.44,0v-8.77C289.86,159.15,288.89,158.14,287,158.14Zm.47,4a.85.85,0,0,1-.84.84H269.93a.84.84,0,0,1-.83-.84v-.59a.86.86,0,0,1,1-1h16.4a1,1,0,0,1,1,1Z"/><path class="cls-1" d="M365.76,158.14H348.41c-1.94,0-2.91,1-2.91,2.07V169a1.21,1.21,0,1,0,2.41,0v-2.78a.83.83,0,0,1,.84-.84h16.64a.83.83,0,0,1,.84.84V169a1.23,1.23,0,1,0,2.45,0v-8.77C368.68,159.15,367.7,158.14,365.76,158.14Zm.47,4a.84.84,0,0,1-.83.84H348.74a.84.84,0,0,1-.83-.84v-.59a.86.86,0,0,1,1-1h16.4a1,1,0,0,1,1,1Z"/><polygon class="cls-1" points="100.27 120.63 100.27 21.77 199.12 71.2 100.27 120.63"/><polygon class="cls-1" points="100.27 122.5 100.27 221.35 199.12 172.31 199.12 73.46 100.27 122.5"/><polygon class="cls-1" points="0 73.07 0 171.93 32.07 187.96 49.43 208.04 49.43 136.59 32.07 116.38 58.1 129.11 58.1 200.98 98.85 221.35 98.85 122.5 0 73.07"/></g></g></svg>